<svg xmlns="http://www.w3.org/2000/svg" xmlns:xlink="http://www.w3.org/1999/xlink" width="1908" height="889" version="1.1">
<style type="text/css">
.l0{
  fill: #ffffff;
  stroke: #ffffff;
  stroke-linecap:round;
  stroke-linejoin:round;
  stroke-width: 0.864262;
}
.l1{
  fill: #0044ee;
  stroke: #0044ee;
  stroke-linecap:round;
  stroke-linejoin:round;
  stroke-width: 0.864262;
}
.l2{
  fill: #aaaaaa; fill-opacity: 0.2;
  stroke: #aaaaaa;
  stroke-linecap:round;
  stroke-linejoin:round;
  stroke-width: 0.864262;
}
.l3{
  fill: #222222; fill-opacity: 0.5;
  stroke: #222222;
  stroke-linecap:round;
  stroke-linejoin:round;
  stroke-width: 0.864262;
}
.l4{
  fill: #229900;
  stroke: #229900;
  stroke-linecap:round;
  stroke-linejoin:round;
  stroke-width: 0.864262;
}
.l5{
  fill: #bb2200;
  stroke: #bb2200;
  stroke-linecap:round;
  stroke-linejoin:round;
  stroke-width: 0.864262;
}
.l6{
  fill: #00ccee; fill-opacity: 0.5;
  stroke: #00ccee;
  stroke-linecap:round;
  stroke-linejoin:round;
  stroke-width: 0.864262;
}
.l7{
  fill: #ff0000; fill-opacity: 0.5;
  stroke: #ff0000;
  stroke-linecap:round;
  stroke-linejoin:round;
  stroke-width: 0.864262;
}
.l8{
  fill: #888800; fill-opacity: 0.5;
  stroke: #888800;
  stroke-linecap:round;
  stroke-linejoin:round;
  stroke-width: 0.864262;
}
.l9{
  fill: #00aaaa; fill-opacity: 0.5;
  stroke: #00aaaa;
  stroke-linecap:round;
  stroke-linejoin:round;
  stroke-width: 0.864262;
}
.l10{
  fill: #880088;
  stroke: #880088;
  stroke-linecap:round;
  stroke-linejoin:round;
  stroke-width: 0.864262;
}
.l11{
  fill: #00ff00; fill-opacity: 0.5;
  stroke: #00ff00;
  stroke-linecap:round;
  stroke-linejoin:round;
  stroke-width: 0.864262;
}
.l12{
  fill: #0000cc; fill-opacity: 0.5;
  stroke: #0000cc;
  stroke-linecap:round;
  stroke-linejoin:round;
  stroke-width: 0.864262;
}
.l13{
  fill: #666600; fill-opacity: 0.5;
  stroke: #666600;
  stroke-linecap:round;
  stroke-linejoin:round;
  stroke-width: 0.864262;
}
.l14{
  fill: #557755; fill-opacity: 0.2;
  stroke: #557755;
  stroke-linecap:round;
  stroke-linejoin:round;
  stroke-width: 0.864262;
}
.l15{
  fill: #aa2222; fill-opacity: 0.5;
  stroke: #aa2222;
  stroke-linecap:round;
  stroke-linejoin:round;
  stroke-width: 0.864262;
}
.l16{
  fill: #7ccc40; fill-opacity: 0.5;
  stroke: #7ccc40;
  stroke-linecap:round;
  stroke-linejoin:round;
  stroke-width: 0.864262;
}
.l17{
  fill: #00ffcc; fill-opacity: 0.2;
  stroke: #00ffcc;
  stroke-linecap:round;
  stroke-linejoin:round;
  stroke-width: 0.864262;
}
.l18{
  fill: #ce0097; fill-opacity: 0.5;
  stroke: #ce0097;
  stroke-linecap:round;
  stroke-linejoin:round;
  stroke-width: 0.864262;
}
.l19{
  fill: #d2d46b; fill-opacity: 0.2;
  stroke: #d2d46b;
  stroke-linecap:round;
  stroke-linejoin:round;
  stroke-width: 0.864262;
}
.l20{
  fill: #ef6158; fill-opacity: 0.2;
  stroke: #ef6158;
  stroke-linecap:round;
  stroke-linejoin:round;
  stroke-width: 0.864262;
}
.l21{
  fill: #fdb200; fill-opacity: 0.2;
  stroke: #fdb200;
  stroke-linecap:round;
  stroke-linejoin:round;
  stroke-width: 0.864262;
}
text {font-family: Sans-Serif;}
</style>
<rect class="l0" x="0" y="0" width="1908" height="889"/>
<text fill="#0044ee"  xml:space="preserve" font-size="13.7322" transform="translate(1025.89, 445.679)" >PLUS</text>
<text fill="#0044ee"  xml:space="preserve" font-size="13.7322" transform="translate(1483.01, 445.679)" >MINUS</text>
<text fill="#0044ee"  xml:space="preserve" font-size="13.7322" transform="translate(1812.11, 453.681)" >Vout</text>
<text fill="#0044ee"  xml:space="preserve" font-size="13.7322" transform="translate(116.612, 77.5676)" >AVDD</text>
<text fill="#0044ee"  xml:space="preserve" font-size="13.7322" transform="translate(32.5854, 805.788)" >AVSS</text>
<text fill="#0044ee"  xml:space="preserve" font-size="13.7322" transform="translate(12.5781, 469.686)" >Ibias</text>
<text fill="#222222"  xml:space="preserve" font-size="8.32252" transform="translate(1083.9, 423.762)" >M6</text>
<text fill="#ff0000"  xml:space="preserve" font-size="6.24189" transform="translate(1078.89, 437.878)" >G</text>
<text fill="#222222"  xml:space="preserve" font-size="8.32252" transform="translate(1115.9, 463.231)" >sg13_lv_nmos</text>
<text fill="#666600"  xml:space="preserve" font-size="8.32252" transform="translate(1116.9, 452.771)" >m=1</text>
<text fill="#666600"  xml:space="preserve" font-size="8.32252" transform="translate(1116.9, 445.769)" >ng=1</text>
<text fill="#666600"  xml:space="preserve" font-size="8.32252" transform="translate(1116.9, 435.766)" >l=1u</text>
<text fill="#666600"  xml:space="preserve" font-size="8.32252" transform="translate(1116.9, 426.763)" >w=5u</text>
<text fill="#ff0000"  xml:space="preserve" font-size="6.24189" transform="translate(1109.9, 459.884)" >S</text>
<text fill="#ff0000"  xml:space="preserve" font-size="6.24189" transform="translate(1109.9, 424.716)" >D</text>
<text fill="#ff0000"  xml:space="preserve" font-size="6.24189" transform="translate(1107.9, 437.878)" >B</text>
<text fill="#222222"  xml:space="preserve" font-size="8.32252" transform="translate(1251.95, 639.827)" >M8</text>
<text fill="#ff0000"  xml:space="preserve" font-size="6.24189" transform="translate(1246.94, 653.943)" >G</text>
<text fill="#222222"  xml:space="preserve" font-size="8.32252" transform="translate(1283.95, 679.296)" >sg13_lv_nmos</text>
<text fill="#666600"  xml:space="preserve" font-size="8.32252" transform="translate(1284.95, 668.836)" >m=1</text>
<text fill="#666600"  xml:space="preserve" font-size="8.32252" transform="translate(1284.95, 661.834)" >ng=3</text>
<text fill="#666600"  xml:space="preserve" font-size="8.32252" transform="translate(1284.95, 651.831)" >l=5u</text>
<text fill="#666600"  xml:space="preserve" font-size="8.32252" transform="translate(1284.95, 642.828)" >w=25u</text>
<text fill="#ff0000"  xml:space="preserve" font-size="6.24189" transform="translate(1277.95, 675.95)" >S</text>
<text fill="#ff0000"  xml:space="preserve" font-size="6.24189" transform="translate(1277.95, 640.782)" >D</text>
<text fill="#ff0000"  xml:space="preserve" font-size="6.24189" transform="translate(1275.95, 653.943)" >B</text>
<text fill="#222222"  xml:space="preserve" font-size="8.32252" transform="translate(1575.05, 639.827)" >M21</text>
<text fill="#ff0000"  xml:space="preserve" font-size="6.24189" transform="translate(1575.04, 653.943)" >G</text>
<text fill="#222222"  xml:space="preserve" font-size="8.32252" transform="translate(1612.05, 679.296)" >sg13_lv_nmos</text>
<text fill="#666600"  xml:space="preserve" font-size="8.32252" transform="translate(1613.05, 668.836)" >m=1</text>
<text fill="#666600"  xml:space="preserve" font-size="8.32252" transform="translate(1613.05, 661.834)" >ng=1</text>
<text fill="#666600"  xml:space="preserve" font-size="8.32252" transform="translate(1613.05, 651.831)" >l=0.5u</text>
<text fill="#666600"  xml:space="preserve" font-size="8.32252" transform="translate(1613.05, 642.828)" >w=1u</text>
<text fill="#ff0000"  xml:space="preserve" font-size="6.24189" transform="translate(1606.05, 675.95)" >S</text>
<text fill="#ff0000"  xml:space="preserve" font-size="6.24189" transform="translate(1606.05, 640.782)" >D</text>
<text fill="#ff0000"  xml:space="preserve" font-size="6.24189" transform="translate(1604.05, 653.943)" >B</text>
<text fill="#222222"  xml:space="preserve" font-size="8.32252" transform="translate(855.824, 639.827)" >M22</text>
<text fill="#ff0000"  xml:space="preserve" font-size="6.24189" transform="translate(867.827, 653.943)" >G</text>
<text fill="#222222"  xml:space="preserve" font-size="8.32252" transform="translate(779.818, 679.296)" >sg13_lv_nmos</text>
<text fill="#666600"  xml:space="preserve" font-size="8.32252" transform="translate(814.817, 668.836)" >m=1</text>
<text fill="#666600"  xml:space="preserve" font-size="8.32252" transform="translate(812.817, 661.834)" >ng=1</text>
<text fill="#666600"  xml:space="preserve" font-size="8.32252" transform="translate(807.817, 651.831)" >l=0.5u</text>
<text fill="#666600"  xml:space="preserve" font-size="8.32252" transform="translate(810.817, 642.828)" >w=1u</text>
<text fill="#ff0000"  xml:space="preserve" font-size="6.24189" transform="translate(837.819, 675.95)" >S</text>
<text fill="#ff0000"  xml:space="preserve" font-size="6.24189" transform="translate(836.819, 640.782)" >D</text>
<text fill="#ff0000"  xml:space="preserve" font-size="6.24189" transform="translate(839.82, 653.943)" >B</text>
<text fill="#222222"  xml:space="preserve" font-size="8.32252" transform="translate(1448, 423.762)" >M7</text>
<text fill="#ff0000"  xml:space="preserve" font-size="6.24189" transform="translate(1460.01, 437.878)" >G</text>
<text fill="#222222"  xml:space="preserve" font-size="8.32252" transform="translate(1372, 463.231)" >sg13_lv_nmos</text>
<text fill="#666600"  xml:space="preserve" font-size="8.32252" transform="translate(1407, 452.771)" >m=1</text>
<text fill="#666600"  xml:space="preserve" font-size="8.32252" transform="translate(1405, 445.769)" >ng=1</text>
<text fill="#666600"  xml:space="preserve" font-size="8.32252" transform="translate(1408, 435.766)" >l=1u</text>
<text fill="#666600"  xml:space="preserve" font-size="8.32252" transform="translate(1403, 426.763)" >w=5u</text>
<text fill="#ff0000"  xml:space="preserve" font-size="6.24189" transform="translate(1430, 459.884)" >S</text>
<text fill="#ff0000"  xml:space="preserve" font-size="6.24189" transform="translate(1429, 424.716)" >D</text>
<text fill="#ff0000"  xml:space="preserve" font-size="6.24189" transform="translate(1432, 437.878)" >B</text>
<text fill="#222222"  xml:space="preserve" font-size="8.32252" transform="translate(855.824, 567.806)" >M23</text>
<text fill="#ff0000"  xml:space="preserve" font-size="6.24189" transform="translate(867.827, 581.921)" >G</text>
<text fill="#222222"  xml:space="preserve" font-size="8.32252" transform="translate(779.818, 607.274)" >sg13_lv_nmos</text>
<text fill="#666600"  xml:space="preserve" font-size="8.32252" transform="translate(814.817, 596.814)" >m=1</text>
<text fill="#666600"  xml:space="preserve" font-size="8.32252" transform="translate(812.817, 589.812)" >ng=1</text>
<text fill="#666600"  xml:space="preserve" font-size="8.32252" transform="translate(807.817, 579.809)" >l=0.5u</text>
<text fill="#666600"  xml:space="preserve" font-size="8.32252" transform="translate(802.817, 570.806)" >w=1.5u</text>
<text fill="#ff0000"  xml:space="preserve" font-size="6.24189" transform="translate(837.819, 603.928)" >S</text>
<text fill="#ff0000"  xml:space="preserve" font-size="6.24189" transform="translate(836.819, 568.76)" >D</text>
<text fill="#ff0000"  xml:space="preserve" font-size="6.24189" transform="translate(839.82, 581.921)" >B</text>
<text fill="#222222"  xml:space="preserve" font-size="8.32252" transform="translate(1575.05, 567.806)" >M24</text>
<text fill="#ff0000"  xml:space="preserve" font-size="6.24189" transform="translate(1575.04, 581.921)" >G</text>
<text fill="#222222"  xml:space="preserve" font-size="8.32252" transform="translate(1612.05, 607.274)" >sg13_lv_nmos</text>
<text fill="#666600"  xml:space="preserve" font-size="8.32252" transform="translate(1613.05, 596.814)" >m=1</text>
<text fill="#666600"  xml:space="preserve" font-size="8.32252" transform="translate(1613.05, 589.812)" >ng=1</text>
<text fill="#666600"  xml:space="preserve" font-size="8.32252" transform="translate(1613.05, 579.809)" >l=0.5u</text>
<text fill="#666600"  xml:space="preserve" font-size="8.32252" transform="translate(1613.05, 570.806)" >w=1.5u</text>
<text fill="#ff0000"  xml:space="preserve" font-size="6.24189" transform="translate(1606.05, 603.928)" >S</text>
<text fill="#ff0000"  xml:space="preserve" font-size="6.24189" transform="translate(1606.05, 568.76)" >D</text>
<text fill="#ff0000"  xml:space="preserve" font-size="6.24189" transform="translate(1604.05, 581.921)" >B</text>
<text fill="#222222"  xml:space="preserve" font-size="8.32252" transform="translate(855.824, 295.723)" >M25</text>
<text fill="#ff0000"  xml:space="preserve" font-size="6.24189" transform="translate(867.827, 309.839)" >G</text>
<text fill="#222222"  xml:space="preserve" font-size="8.32252" transform="translate(779.818, 335.192)" >sg13_lv_pmos</text>
<text fill="#666600"  xml:space="preserve" font-size="8.32252" transform="translate(814.817, 324.732)" >m=1</text>
<text fill="#666600"  xml:space="preserve" font-size="8.32252" transform="translate(812.817, 317.73)" >ng=1</text>
<text fill="#666600"  xml:space="preserve" font-size="8.32252" transform="translate(807.817, 307.727)" >l=0.5u</text>
<text fill="#666600"  xml:space="preserve" font-size="8.32252" transform="translate(810.817, 298.724)" >w=6u</text>
<text fill="#ff0000"  xml:space="preserve" font-size="6.24189" transform="translate(836.819, 331.845)" >D</text>
<text fill="#ff0000"  xml:space="preserve" font-size="6.24189" transform="translate(837.819, 296.678)" >S</text>
<text fill="#ff0000"  xml:space="preserve" font-size="6.24189" transform="translate(839.82, 309.839)" >B</text>
<text fill="#222222"  xml:space="preserve" font-size="8.32252" transform="translate(855.824, 191.692)" >M26</text>
<text fill="#ff0000"  xml:space="preserve" font-size="6.24189" transform="translate(867.827, 205.807)" >G</text>
<text fill="#222222"  xml:space="preserve" font-size="8.32252" transform="translate(779.818, 231.161)" >sg13_lv_pmos</text>
<text fill="#666600"  xml:space="preserve" font-size="8.32252" transform="translate(814.817, 220.7)" >m=1</text>
<text fill="#666600"  xml:space="preserve" font-size="8.32252" transform="translate(812.817, 213.698)" >ng=1</text>
<text fill="#666600"  xml:space="preserve" font-size="8.32252" transform="translate(807.817, 203.695)" >l=0.5u</text>
<text fill="#666600"  xml:space="preserve" font-size="8.32252" transform="translate(810.817, 194.693)" >w=6u</text>
<text fill="#ff0000"  xml:space="preserve" font-size="6.24189" transform="translate(836.819, 227.814)" >D</text>
<text fill="#ff0000"  xml:space="preserve" font-size="6.24189" transform="translate(837.819, 192.646)" >S</text>
<text fill="#ff0000"  xml:space="preserve" font-size="6.24189" transform="translate(839.82, 205.807)" >B</text>
<text fill="#222222"  xml:space="preserve" font-size="8.32252" transform="translate(1575.05, 295.723)" >M27</text>
<text fill="#ff0000"  xml:space="preserve" font-size="6.24189" transform="translate(1575.04, 309.839)" >G</text>
<text fill="#222222"  xml:space="preserve" font-size="8.32252" transform="translate(1612.05, 335.192)" >sg13_lv_pmos</text>
<text fill="#666600"  xml:space="preserve" font-size="8.32252" transform="translate(1613.05, 324.732)" >m=1</text>
<text fill="#666600"  xml:space="preserve" font-size="8.32252" transform="translate(1613.05, 317.73)" >ng=1</text>
<text fill="#666600"  xml:space="preserve" font-size="8.32252" transform="translate(1613.05, 307.727)" >l=0.5u</text>
<text fill="#666600"  xml:space="preserve" font-size="8.32252" transform="translate(1613.05, 298.724)" >w=6u</text>
<text fill="#ff0000"  xml:space="preserve" font-size="6.24189" transform="translate(1606.05, 331.845)" >D</text>
<text fill="#ff0000"  xml:space="preserve" font-size="6.24189" transform="translate(1606.05, 296.678)" >S</text>
<text fill="#ff0000"  xml:space="preserve" font-size="6.24189" transform="translate(1604.05, 309.839)" >B</text>
<text fill="#222222"  xml:space="preserve" font-size="8.32252" transform="translate(1575.05, 191.692)" >M28</text>
<text fill="#ff0000"  xml:space="preserve" font-size="6.24189" transform="translate(1575.04, 205.807)" >G</text>
<text fill="#222222"  xml:space="preserve" font-size="8.32252" transform="translate(1612.05, 231.161)" >sg13_lv_pmos</text>
<text fill="#666600"  xml:space="preserve" font-size="8.32252" transform="translate(1613.05, 220.7)" >m=1</text>
<text fill="#666600"  xml:space="preserve" font-size="8.32252" transform="translate(1613.05, 213.698)" >ng=1</text>
<text fill="#666600"  xml:space="preserve" font-size="8.32252" transform="translate(1613.05, 203.695)" >l=0.5u</text>
<text fill="#666600"  xml:space="preserve" font-size="8.32252" transform="translate(1613.05, 194.693)" >w=6u</text>
<text fill="#ff0000"  xml:space="preserve" font-size="6.24189" transform="translate(1606.05, 227.814)" >D</text>
<text fill="#ff0000"  xml:space="preserve" font-size="6.24189" transform="translate(1606.05, 192.646)" >S</text>
<text fill="#ff0000"  xml:space="preserve" font-size="6.24189" transform="translate(1604.05, 205.807)" >B</text>
<text fill="#222222"  xml:space="preserve" font-size="8.32252" transform="translate(271.647, 639.827)" >M1</text>
<text fill="#ff0000"  xml:space="preserve" font-size="6.24189" transform="translate(283.65, 653.943)" >G</text>
<text fill="#222222"  xml:space="preserve" font-size="8.32252" transform="translate(195.641, 679.296)" >sg13_lv_nmos</text>
<text fill="#666600"  xml:space="preserve" font-size="8.32252" transform="translate(230.64, 668.836)" >m=1</text>
<text fill="#666600"  xml:space="preserve" font-size="8.32252" transform="translate(228.64, 661.834)" >ng=2</text>
<text fill="#666600"  xml:space="preserve" font-size="8.32252" transform="translate(231.64, 651.831)" >l=5u</text>
<text fill="#666600"  xml:space="preserve" font-size="8.32252" transform="translate(221.64, 642.828)" >w=18u</text>
<text fill="#ff0000"  xml:space="preserve" font-size="6.24189" transform="translate(253.643, 675.95)" >S</text>
<text fill="#ff0000"  xml:space="preserve" font-size="6.24189" transform="translate(252.643, 640.782)" >D</text>
<text fill="#ff0000"  xml:space="preserve" font-size="6.24189" transform="translate(255.643, 653.943)" >B</text>
<text fill="#222222"  xml:space="preserve" font-size="8.32252" transform="translate(591.744, 295.723)" >M2</text>
<text fill="#ff0000"  xml:space="preserve" font-size="6.24189" transform="translate(603.747, 309.839)" >G</text>
<text fill="#222222"  xml:space="preserve" font-size="8.32252" transform="translate(515.738, 335.192)" >sg13_lv_pmos</text>
<text fill="#666600"  xml:space="preserve" font-size="8.32252" transform="translate(550.737, 324.732)" >m=1</text>
<text fill="#666600"  xml:space="preserve" font-size="8.32252" transform="translate(548.737, 317.73)" >ng=2</text>
<text fill="#666600"  xml:space="preserve" font-size="8.32252" transform="translate(543.737, 307.727)" >l=0.5u</text>
<text fill="#666600"  xml:space="preserve" font-size="8.32252" transform="translate(546.737, 298.724)" >w=6u</text>
<text fill="#ff0000"  xml:space="preserve" font-size="6.24189" transform="translate(572.739, 331.845)" >D</text>
<text fill="#ff0000"  xml:space="preserve" font-size="6.24189" transform="translate(573.739, 296.678)" >S</text>
<text fill="#ff0000"  xml:space="preserve" font-size="6.24189" transform="translate(575.74, 309.839)" >B</text>
<text fill="#222222"  xml:space="preserve" font-size="8.32252" transform="translate(591.744, 191.692)" >M3</text>
<text fill="#ff0000"  xml:space="preserve" font-size="6.24189" transform="translate(603.747, 205.807)" >G</text>
<text fill="#222222"  xml:space="preserve" font-size="8.32252" transform="translate(515.738, 231.161)" >sg13_lv_pmos</text>
<text fill="#666600"  xml:space="preserve" font-size="8.32252" transform="translate(550.737, 220.7)" >m=1</text>
<text fill="#666600"  xml:space="preserve" font-size="8.32252" transform="translate(548.737, 213.698)" >ng=2</text>
<text fill="#666600"  xml:space="preserve" font-size="8.32252" transform="translate(543.737, 203.695)" >l=0.5u</text>
<text fill="#666600"  xml:space="preserve" font-size="8.32252" transform="translate(546.737, 194.693)" >w=6u</text>
<text fill="#ff0000"  xml:space="preserve" font-size="6.24189" transform="translate(572.739, 227.814)" >D</text>
<text fill="#ff0000"  xml:space="preserve" font-size="6.24189" transform="translate(573.739, 192.646)" >S</text>
<text fill="#ff0000"  xml:space="preserve" font-size="6.24189" transform="translate(575.74, 205.807)" >B</text>
<text fill="#222222"  xml:space="preserve" font-size="8.32252" transform="translate(1772.1, 191.692)" >M4</text>
<text fill="#ff0000"  xml:space="preserve" font-size="6.24189" transform="translate(1767.1, 205.807)" >G</text>
<text fill="#222222"  xml:space="preserve" font-size="8.32252" transform="translate(1804.11, 231.161)" >sg13_lv_pmos</text>
<text fill="#666600"  xml:space="preserve" font-size="8.32252" transform="translate(1805.11, 220.7)" >m=1</text>
<text fill="#666600"  xml:space="preserve" font-size="8.32252" transform="translate(1805.11, 213.698)" >ng=2</text>
<text fill="#666600"  xml:space="preserve" font-size="8.32252" transform="translate(1805.11, 203.695)" >l=0.5u</text>
<text fill="#666600"  xml:space="preserve" font-size="8.32252" transform="translate(1805.11, 194.693)" >w=6u</text>
<text fill="#ff0000"  xml:space="preserve" font-size="6.24189" transform="translate(1798.11, 227.814)" >D</text>
<text fill="#ff0000"  xml:space="preserve" font-size="6.24189" transform="translate(1798.11, 192.646)" >S</text>
<text fill="#ff0000"  xml:space="preserve" font-size="6.24189" transform="translate(1796.11, 205.807)" >B</text>
<text fill="#222222"  xml:space="preserve" font-size="8.32252" transform="translate(1772.1, 567.806)" >M5</text>
<text fill="#ff0000"  xml:space="preserve" font-size="6.24189" transform="translate(1767.1, 581.921)" >G</text>
<text fill="#222222"  xml:space="preserve" font-size="8.32252" transform="translate(1804.11, 607.274)" >sg13_lv_nmos</text>
<text fill="#666600"  xml:space="preserve" font-size="8.32252" transform="translate(1805.11, 596.814)" >m=1</text>
<text fill="#666600"  xml:space="preserve" font-size="8.32252" transform="translate(1805.11, 589.812)" >ng=1</text>
<text fill="#666600"  xml:space="preserve" font-size="8.32252" transform="translate(1805.11, 579.809)" >l=0.5u</text>
<text fill="#666600"  xml:space="preserve" font-size="8.32252" transform="translate(1805.11, 570.806)" >w=1.5u</text>
<text fill="#ff0000"  xml:space="preserve" font-size="6.24189" transform="translate(1798.11, 603.928)" >S</text>
<text fill="#ff0000"  xml:space="preserve" font-size="6.24189" transform="translate(1798.11, 568.76)" >D</text>
<text fill="#ff0000"  xml:space="preserve" font-size="6.24189" transform="translate(1796.11, 581.921)" >B</text>
<text fill="#222222"  xml:space="preserve" font-size="8.32252" transform="translate(555.736, 639.827)" >M9</text>
<text fill="#ff0000"  xml:space="preserve" font-size="6.24189" transform="translate(550.733, 653.943)" >G</text>
<text fill="#222222"  xml:space="preserve" font-size="8.32252" transform="translate(587.742, 679.296)" >sg13_lv_nmos</text>
<text fill="#666600"  xml:space="preserve" font-size="8.32252" transform="translate(588.743, 668.836)" >m=1</text>
<text fill="#666600"  xml:space="preserve" font-size="8.32252" transform="translate(588.743, 661.834)" >ng=3</text>
<text fill="#666600"  xml:space="preserve" font-size="8.32252" transform="translate(588.743, 651.831)" >l=5u</text>
<text fill="#666600"  xml:space="preserve" font-size="8.32252" transform="translate(588.743, 642.828)" >w=25u</text>
<text fill="#ff0000"  xml:space="preserve" font-size="6.24189" transform="translate(581.741, 675.95)" >S</text>
<text fill="#ff0000"  xml:space="preserve" font-size="6.24189" transform="translate(581.741, 640.782)" >D</text>
<text fill="#ff0000"  xml:space="preserve" font-size="6.24189" transform="translate(579.74, 653.943)" >B</text>
<path class="l4" d="M1097.9 422.207L1097.9 458.218"/>
<path class="l4" d="M1107.9 416.205L1107.9 426.208"/>
<path class="l4" d="M1107.9 454.217L1107.9 464.22"/>
<path class="l4" d="M1093.9 428.209L1093.9 452.216"/>
<path class="l4" d="M1097.9 454.217L1107.9 454.217"/>
<path class="l4" d="M1097.9 426.208L1107.9 426.208"/>
<path class="l4" d="M1075.89 440.212L1093.5 440.212"/>
<path class="l4" d="M1103.9 456.217L1107.9 454.217L1103.9 452.216L1103.9 456.217"/>
<path class="l4" d="M1265.95 638.272L1265.95 674.283"/>
<path class="l4" d="M1275.95 632.27L1275.95 642.273"/>
<path class="l4" d="M1275.95 670.282L1275.95 680.285"/>
<path class="l4" d="M1261.95 644.274L1261.95 668.281"/>
<path class="l4" d="M1265.95 670.282L1275.95 670.282"/>
<path class="l4" d="M1265.95 642.273L1275.95 642.273"/>
<path class="l4" d="M1243.94 656.278L1261.55 656.278"/>
<path class="l4" d="M1271.95 672.283L1275.95 670.282L1271.95 668.281L1271.95 672.283"/>
<path class="l4" d="M1594.05 638.272L1594.05 674.283"/>
<path class="l4" d="M1604.05 632.27L1604.05 642.273"/>
<path class="l4" d="M1604.05 670.282L1604.05 680.285"/>
<path class="l4" d="M1590.05 644.274L1590.05 668.281"/>
<path class="l4" d="M1594.05 670.282L1604.05 670.282"/>
<path class="l4" d="M1594.05 642.273L1604.05 642.273"/>
<path class="l4" d="M1572.04 656.278L1589.65 656.278"/>
<path class="l4" d="M1600.05 672.283L1604.05 670.282L1600.05 668.281L1600.05 672.283"/>
<path class="l4" d="M853.823 638.272L853.823 674.283"/>
<path class="l4" d="M843.82 632.27L843.82 642.273"/>
<path class="l4" d="M843.82 670.282L843.82 680.285"/>
<path class="l4" d="M857.824 644.274L857.824 668.281"/>
<path class="l4" d="M843.82 670.282L853.823 670.282"/>
<path class="l4" d="M843.82 642.273L853.823 642.273"/>
<path class="l4" d="M858.224 656.278L875.83 656.278"/>
<path class="l4" d="M847.821 672.283L843.82 670.282L847.821 668.281L847.821 672.283"/>
<path class="l4" d="M1446 422.207L1446 458.218"/>
<path class="l4" d="M1436 416.205L1436 426.208"/>
<path class="l4" d="M1436 454.217L1436 464.22"/>
<path class="l4" d="M1450 428.209L1450 452.216"/>
<path class="l4" d="M1436 454.217L1446 454.217"/>
<path class="l4" d="M1436 426.208L1446 426.208"/>
<path class="l4" d="M1450.4 440.212L1468.01 440.212"/>
<path class="l4" d="M1440 456.217L1436 454.217L1440 452.216L1440 456.217"/>
<path class="l4" d="M853.823 566.25L853.823 602.261"/>
<path class="l4" d="M843.82 560.249L843.82 570.252"/>
<path class="l4" d="M843.82 598.26L843.82 608.263"/>
<path class="l4" d="M857.824 572.252L857.824 596.26"/>
<path class="l4" d="M843.82 598.26L853.823 598.26"/>
<path class="l4" d="M843.82 570.252L853.823 570.252"/>
<path class="l4" d="M858.224 584.256L875.83 584.256"/>
<path class="l4" d="M847.821 600.261L843.82 598.26L847.821 596.26L847.821 600.261"/>
<path class="l4" d="M1594.05 566.25L1594.05 602.261"/>
<path class="l4" d="M1604.05 560.249L1604.05 570.252"/>
<path class="l4" d="M1604.05 598.26L1604.05 608.263"/>
<path class="l4" d="M1590.05 572.252L1590.05 596.26"/>
<path class="l4" d="M1594.05 598.26L1604.05 598.26"/>
<path class="l4" d="M1594.05 570.252L1604.05 570.252"/>
<path class="l4" d="M1572.04 584.256L1589.65 584.256"/>
<path class="l4" d="M1600.05 600.261L1604.05 598.26L1600.05 596.26L1600.05 600.261"/>
<path class="l4" d="M853.823 294.168L853.823 330.179"/>
<path class="l4" d="M843.82 288.166L843.82 298.169"/>
<path class="l4" d="M843.82 326.178L843.82 336.181"/>
<path class="l4" d="M857.824 300.17L857.824 324.177"/>
<path class="l4" d="M843.82 326.178L853.823 326.178"/>
<path class="l4" d="M843.82 298.169L853.823 298.169"/>
<path class="l4" d="M858.224 312.174L875.83 312.174"/>
<path class="l4" d="M849.822 296.169L853.823 298.169L849.822 300.17L849.822 296.169"/>
<path class="l4" d="M853.823 190.137L853.823 226.148"/>
<path class="l4" d="M843.82 184.135L843.82 194.138"/>
<path class="l4" d="M843.82 222.146L843.82 232.149"/>
<path class="l4" d="M857.824 196.138L857.824 220.146"/>
<path class="l4" d="M843.82 222.146L853.823 222.146"/>
<path class="l4" d="M843.82 194.138L853.823 194.138"/>
<path class="l4" d="M858.224 208.142L875.83 208.142"/>
<path class="l4" d="M849.822 192.137L853.823 194.138L849.822 196.138L849.822 192.137"/>
<path class="l4" d="M1594.05 294.168L1594.05 330.179"/>
<path class="l4" d="M1604.05 288.166L1604.05 298.169"/>
<path class="l4" d="M1604.05 326.178L1604.05 336.181"/>
<path class="l4" d="M1590.05 300.17L1590.05 324.177"/>
<path class="l4" d="M1594.05 326.178L1604.05 326.178"/>
<path class="l4" d="M1594.05 298.169L1604.05 298.169"/>
<path class="l4" d="M1572.04 312.174L1589.65 312.174"/>
<path class="l4" d="M1598.05 296.169L1594.05 298.169L1598.05 300.17L1598.05 296.169"/>
<path class="l4" d="M1594.05 190.137L1594.05 226.148"/>
<path class="l4" d="M1604.05 184.135L1604.05 194.138"/>
<path class="l4" d="M1604.05 222.146L1604.05 232.149"/>
<path class="l4" d="M1590.05 196.138L1590.05 220.146"/>
<path class="l4" d="M1594.05 222.146L1604.05 222.146"/>
<path class="l4" d="M1594.05 194.138L1604.05 194.138"/>
<path class="l4" d="M1572.04 208.142L1589.65 208.142"/>
<path class="l4" d="M1598.05 192.137L1594.05 194.138L1598.05 196.138L1598.05 192.137"/>
<path class="l4" d="M269.646 638.272L269.646 674.283"/>
<path class="l4" d="M259.643 632.27L259.643 642.273"/>
<path class="l4" d="M259.643 670.282L259.643 680.285"/>
<path class="l4" d="M273.647 644.274L273.647 668.281"/>
<path class="l4" d="M259.643 670.282L269.646 670.282"/>
<path class="l4" d="M259.643 642.273L269.646 642.273"/>
<path class="l4" d="M274.048 656.278L291.653 656.278"/>
<path class="l4" d="M263.644 672.283L259.643 670.282L263.644 668.281L263.644 672.283"/>
<path class="l4" d="M589.743 294.168L589.743 330.179"/>
<path class="l4" d="M579.74 288.166L579.74 298.169"/>
<path class="l4" d="M579.74 326.178L579.74 336.181"/>
<path class="l4" d="M593.744 300.17L593.744 324.177"/>
<path class="l4" d="M579.74 326.178L589.743 326.178"/>
<path class="l4" d="M579.74 298.169L589.743 298.169"/>
<path class="l4" d="M594.144 312.174L611.75 312.174"/>
<path class="l4" d="M585.742 296.169L589.743 298.169L585.742 300.17L585.742 296.169"/>
<path class="l4" d="M589.743 190.137L589.743 226.148"/>
<path class="l4" d="M579.74 184.135L579.74 194.138"/>
<path class="l4" d="M579.74 222.146L579.74 232.149"/>
<path class="l4" d="M593.744 196.138L593.744 220.146"/>
<path class="l4" d="M579.74 222.146L589.743 222.146"/>
<path class="l4" d="M579.74 194.138L589.743 194.138"/>
<path class="l4" d="M594.144 208.142L611.75 208.142"/>
<path class="l4" d="M585.742 192.137L589.743 194.138L585.742 196.138L585.742 192.137"/>
<path class="l4" d="M1786.11 190.137L1786.11 226.148"/>
<path class="l4" d="M1796.11 184.135L1796.11 194.138"/>
<path class="l4" d="M1796.11 222.146L1796.11 232.149"/>
<path class="l4" d="M1782.1 196.138L1782.1 220.146"/>
<path class="l4" d="M1786.11 222.146L1796.11 222.146"/>
<path class="l4" d="M1786.11 194.138L1796.11 194.138"/>
<path class="l4" d="M1764.1 208.142L1781.7 208.142"/>
<path class="l4" d="M1790.11 192.137L1786.11 194.138L1790.11 196.138L1790.11 192.137"/>
<path class="l4" d="M1786.11 566.25L1786.11 602.261"/>
<path class="l4" d="M1796.11 560.249L1796.11 570.252"/>
<path class="l4" d="M1796.11 598.26L1796.11 608.263"/>
<path class="l4" d="M1782.1 572.252L1782.1 596.26"/>
<path class="l4" d="M1786.11 598.26L1796.11 598.26"/>
<path class="l4" d="M1786.11 570.252L1796.11 570.252"/>
<path class="l4" d="M1764.1 584.256L1781.7 584.256"/>
<path class="l4" d="M1792.11 600.261L1796.11 598.26L1792.11 596.26L1792.11 600.261"/>
<path class="l4" d="M569.737 638.272L569.737 674.283"/>
<path class="l4" d="M579.74 632.27L579.74 642.273"/>
<path class="l4" d="M579.74 670.282L579.74 680.285"/>
<path class="l4" d="M565.736 644.274L565.736 668.281"/>
<path class="l4" d="M569.737 670.282L579.74 670.282"/>
<path class="l4" d="M569.737 642.273L579.74 642.273"/>
<path class="l4" d="M547.73 656.278L565.336 656.278"/>
<path class="l4" d="M575.739 672.283L579.74 670.282L575.739 668.281L575.739 672.283"/>
<path class="l5" d="M1071.89 440.212L1075.89 440.212"/>
<path class="l5" d="M1071.89 440.212L1068.89 436.211L1061.89 436.211L1064.89 440.212L1061.89 444.214L1068.89 444.214L1071.89 440.212"/>
<path class="l5" d="M1074.89 439.212L1076.89 439.212L1076.89 441.213L1074.89 441.213L1074.89 439.212z"/>
<path class="l5" d="M1468.01 440.212L1472.01 440.212"/>
<path class="l5" d="M1472.01 440.212L1475.01 436.211L1482.01 436.211L1479.01 440.212L1482.01 444.214L1475.01 444.214L1472.01 440.212"/>
<path class="l5" d="M1467.01 439.212L1469.01 439.212L1469.01 441.213L1467.01 441.213L1467.01 439.212z"/>
<path class="l5" d="M1796.11 448.215L1803.11 448.215"/>
<path class="l5" d="M1810.11 448.215L1807.11 444.214L1800.11 444.214L1803.11 448.215L1800.11 452.216L1807.11 452.216L1810.11 448.215"/>
<path class="l5" d="M1795.11 447.214L1797.11 447.214L1797.11 449.215L1795.11 449.215L1795.11 447.214z"/>
<path class="l5" d="M167.615 72.101L171.617 72.101"/>
<path class="l5" d="M167.615 72.101L164.614 68.0997L157.612 68.0997L160.613 72.101L157.612 76.1022L164.614 76.1022L167.615 72.101"/>
<path class="l5" d="M170.616 71.1007L172.617 71.1007L172.617 73.1013L170.616 73.1013L170.616 71.1007z"/>
<path class="l5" d="M1107.9 442.213L1103.9 440.212L1107.9 438.212L1107.9 442.213"/>
<path class="l5" d="M1105.9 414.204L1109.9 414.204L1109.9 418.206L1105.9 418.206L1105.9 414.204z"/>
<path class="l5" d="M1073.89 438.212L1077.89 438.212L1077.89 442.213L1073.89 442.213L1073.89 438.212z"/>
<path class="l5" d="M1105.9 462.219L1109.9 462.219L1109.9 466.22L1105.9 466.22L1105.9 462.219z"/>
<path class="l5" d="M1107.84 440.15L1107.96 440.15L1107.96 440.275L1107.84 440.275L1107.84 440.15z"/>
<path class="l5" d="M1275.95 658.278L1271.95 656.278L1275.95 654.277L1275.95 658.278"/>
<path class="l5" d="M1273.95 630.27L1277.95 630.27L1277.95 634.271L1273.95 634.271L1273.95 630.27z"/>
<path class="l5" d="M1241.94 654.277L1245.94 654.277L1245.94 658.278L1241.94 658.278L1241.94 654.277z"/>
<path class="l5" d="M1273.95 678.284L1277.95 678.284L1277.95 682.286L1273.95 682.286L1273.95 678.284z"/>
<path class="l5" d="M1275.89 656.215L1276.01 656.215L1276.01 656.34L1275.89 656.34L1275.89 656.215z"/>
<path class="l5" d="M79.5887 800.321L83.5899 800.321"/>
<path class="l5" d="M79.5887 800.321L76.5878 796.32L69.5857 796.32L72.5866 800.321L69.5857 804.323L76.5878 804.323L79.5887 800.321"/>
<path class="l5" d="M82.5896 799.321L84.5902 799.321L84.5902 801.322L82.5896 801.322L82.5896 799.321z"/>
<path class="l5" d="M1604.05 658.278L1600.05 656.278L1604.05 654.277L1604.05 658.278"/>
<path class="l5" d="M1602.05 630.27L1606.05 630.27L1606.05 634.271L1602.05 634.271L1602.05 630.27z"/>
<path class="l5" d="M1570.04 654.277L1574.04 654.277L1574.04 658.278L1570.04 658.278L1570.04 654.277z"/>
<path class="l5" d="M1602.05 678.284L1606.05 678.284L1606.05 682.286L1602.05 682.286L1602.05 678.284z"/>
<path class="l5" d="M1603.99 656.215L1604.11 656.215L1604.11 656.34L1603.99 656.34L1603.99 656.215z"/>
<path class="l5" d="M843.82 658.278L847.821 656.278L843.82 654.277L843.82 658.278"/>
<path class="l5" d="M841.819 630.27L845.821 630.27L845.821 634.271L841.819 634.271L841.819 630.27z"/>
<path class="l5" d="M873.829 654.277L877.83 654.277L877.83 658.278L873.829 658.278L873.829 654.277z"/>
<path class="l5" d="M841.819 678.284L845.821 678.284L845.821 682.286L841.819 682.286L841.819 678.284z"/>
<path class="l5" d="M843.757 656.215L843.882 656.215L843.882 656.34L843.757 656.34L843.757 656.215z"/>
<path class="l5" d="M1436 442.213L1440 440.212L1436 438.212L1436 442.213"/>
<path class="l5" d="M1434 414.204L1438 414.204L1438 418.206L1434 418.206L1434 414.204z"/>
<path class="l5" d="M1466.01 438.212L1470.01 438.212L1470.01 442.213L1466.01 442.213L1466.01 438.212z"/>
<path class="l5" d="M1434 462.219L1438 462.219L1438 466.22L1434 466.22L1434 462.219z"/>
<path class="l5" d="M1435.94 440.15L1436.06 440.15L1436.06 440.275L1435.94 440.275L1435.94 440.15z"/>
<path class="l5" d="M843.82 586.257L847.821 584.256L843.82 582.255L843.82 586.257"/>
<path class="l5" d="M841.819 558.248L845.821 558.248L845.821 562.249L841.819 562.249L841.819 558.248z"/>
<path class="l5" d="M873.829 582.255L877.83 582.255L877.83 586.257L873.829 586.257L873.829 582.255z"/>
<path class="l5" d="M841.819 606.263L845.821 606.263L845.821 610.264L841.819 610.264L841.819 606.263z"/>
<path class="l5" d="M843.757 584.193L843.882 584.193L843.882 584.318L843.757 584.318L843.757 584.193z"/>
<path class="l5" d="M1604.05 586.257L1600.05 584.256L1604.05 582.255L1604.05 586.257"/>
<path class="l5" d="M1602.05 558.248L1606.05 558.248L1606.05 562.249L1602.05 562.249L1602.05 558.248z"/>
<path class="l5" d="M1570.04 582.255L1574.04 582.255L1574.04 586.257L1570.04 586.257L1570.04 582.255z"/>
<path class="l5" d="M1602.05 606.263L1606.05 606.263L1606.05 610.264L1602.05 610.264L1602.05 606.263z"/>
<path class="l5" d="M1603.99 584.193L1604.11 584.193L1604.11 584.318L1603.99 584.318L1603.99 584.193z"/>
<path class="l5" d="M847.821 310.173L843.82 312.174L847.821 314.174L847.821 310.173"/>
<path class="l5" d="M841.819 334.18L845.821 334.18L845.821 338.181L841.819 338.181L841.819 334.18z"/>
<path class="l5" d="M873.829 310.173L877.83 310.173L877.83 314.174L873.829 314.174L873.829 310.173z"/>
<path class="l5" d="M841.819 286.166L845.821 286.166L845.821 290.167L841.819 290.167L841.819 286.166z"/>
<path class="l5" d="M843.757 312.111L843.882 312.111L843.882 312.236L843.757 312.236L843.757 312.111z"/>
<path class="l5" d="M847.821 206.142L843.82 208.142L847.821 210.143L847.821 206.142"/>
<path class="l5" d="M841.819 230.149L845.821 230.149L845.821 234.15L841.819 234.15L841.819 230.149z"/>
<path class="l5" d="M873.829 206.142L877.83 206.142L877.83 210.143L873.829 210.143L873.829 206.142z"/>
<path class="l5" d="M841.819 182.134L845.821 182.134L845.821 186.135L841.819 186.135L841.819 182.134z"/>
<path class="l5" d="M843.757 208.08L843.882 208.08L843.882 208.205L843.757 208.205L843.757 208.08z"/>
<path class="l5" d="M1600.05 310.173L1604.05 312.174L1600.05 314.174L1600.05 310.173"/>
<path class="l5" d="M1602.05 334.18L1606.05 334.18L1606.05 338.181L1602.05 338.181L1602.05 334.18z"/>
<path class="l5" d="M1570.04 310.173L1574.04 310.173L1574.04 314.174L1570.04 314.174L1570.04 310.173z"/>
<path class="l5" d="M1602.05 286.166L1606.05 286.166L1606.05 290.167L1602.05 290.167L1602.05 286.166z"/>
<path class="l5" d="M1603.99 312.111L1604.11 312.111L1604.11 312.236L1603.99 312.236L1603.99 312.111z"/>
<path class="l5" d="M1600.05 206.142L1604.05 208.142L1600.05 210.143L1600.05 206.142"/>
<path class="l5" d="M1602.05 230.149L1606.05 230.149L1606.05 234.15L1602.05 234.15L1602.05 230.149z"/>
<path class="l5" d="M1570.04 206.142L1574.04 206.142L1574.04 210.143L1570.04 210.143L1570.04 206.142z"/>
<path class="l5" d="M1602.05 182.134L1606.05 182.134L1606.05 186.135L1602.05 186.135L1602.05 182.134z"/>
<path class="l5" d="M1603.99 208.08L1604.11 208.08L1604.11 208.205L1603.99 208.205L1603.99 208.08z"/>
<path class="l5" d="M55.5815 464.22L59.5827 464.22"/>
<path class="l5" d="M55.5815 464.22L52.5806 460.218L45.5784 460.218L48.5793 464.22L45.5784 468.221L52.5806 468.221L55.5815 464.22"/>
<path class="l5" d="M58.5824 463.219L60.583 463.219L60.583 465.22L58.5824 465.22L58.5824 463.219z"/>
<path class="l5" d="M259.643 658.278L263.644 656.278L259.643 654.277L259.643 658.278"/>
<path class="l5" d="M257.643 630.27L261.644 630.27L261.644 634.271L257.643 634.271L257.643 630.27z"/>
<path class="l5" d="M289.652 654.277L293.653 654.277L293.653 658.278L289.652 658.278L289.652 654.277z"/>
<path class="l5" d="M257.643 678.284L261.644 678.284L261.644 682.286L257.643 682.286L257.643 678.284z"/>
<path class="l5" d="M259.581 656.215L259.706 656.215L259.706 656.34L259.581 656.34L259.581 656.215z"/>
<path class="l5" d="M583.741 310.173L579.74 312.174L583.741 314.174L583.741 310.173"/>
<path class="l5" d="M577.739 334.18L581.741 334.18L581.741 338.181L577.739 338.181L577.739 334.18z"/>
<path class="l5" d="M609.749 310.173L613.75 310.173L613.75 314.174L609.749 314.174L609.749 310.173z"/>
<path class="l5" d="M577.739 286.166L581.741 286.166L581.741 290.167L577.739 290.167L577.739 286.166z"/>
<path class="l5" d="M579.678 312.111L579.803 312.111L579.803 312.236L579.678 312.236L579.678 312.111z"/>
<path class="l5" d="M583.741 206.142L579.74 208.142L583.741 210.143L583.741 206.142"/>
<path class="l5" d="M577.739 230.149L581.741 230.149L581.741 234.15L577.739 234.15L577.739 230.149z"/>
<path class="l5" d="M609.749 206.142L613.75 206.142L613.75 210.143L609.749 210.143L609.749 206.142z"/>
<path class="l5" d="M577.739 182.134L581.741 182.134L581.741 186.135L577.739 186.135L577.739 182.134z"/>
<path class="l5" d="M579.678 208.08L579.803 208.08L579.803 208.205L579.678 208.205L579.678 208.08z"/>
<path class="l5" d="M1792.11 206.142L1796.11 208.142L1792.11 210.143L1792.11 206.142"/>
<path class="l5" d="M1794.11 230.149L1798.11 230.149L1798.11 234.15L1794.11 234.15L1794.11 230.149z"/>
<path class="l5" d="M1762.1 206.142L1766.1 206.142L1766.1 210.143L1762.1 210.143L1762.1 206.142z"/>
<path class="l5" d="M1794.11 182.134L1798.11 182.134L1798.11 186.135L1794.11 186.135L1794.11 182.134z"/>
<path class="l5" d="M1796.05 208.08L1796.17 208.08L1796.17 208.205L1796.05 208.205L1796.05 208.08z"/>
<path class="l5" d="M1796.11 586.257L1792.11 584.256L1796.11 582.255L1796.11 586.257"/>
<path class="l5" d="M1794.11 558.248L1798.11 558.248L1798.11 562.249L1794.11 562.249L1794.11 558.248z"/>
<path class="l5" d="M1762.1 582.255L1766.1 582.255L1766.1 586.257L1762.1 586.257L1762.1 582.255z"/>
<path class="l5" d="M1794.11 606.263L1798.11 606.263L1798.11 610.264L1794.11 610.264L1794.11 606.263z"/>
<path class="l5" d="M1796.05 584.193L1796.17 584.193L1796.17 584.318L1796.05 584.318L1796.05 584.193z"/>
<path class="l5" d="M579.74 658.278L575.739 656.278L579.74 654.277L579.74 658.278"/>
<path class="l5" d="M577.739 630.27L581.741 630.27L581.741 634.271L577.739 634.271L577.739 630.27z"/>
<path class="l5" d="M545.73 654.277L549.731 654.277L549.731 658.278L545.73 658.278L545.73 654.277z"/>
<path class="l5" d="M577.739 678.284L581.741 678.284L581.741 682.286L577.739 682.286L577.739 678.284z"/>
<path class="l5" d="M579.678 656.215L579.803 656.215L579.803 656.34L579.678 656.34L579.678 656.215z"/>
<path class="l1" d="M1107.9 464.22L1107.9 536.241"/>
<path class="l1" d="M1275.95 536.241L1436 536.241"/>
<path class="l1" d="M1436 464.22L1436 536.241"/>
<path class="l1" d="M1275.95 536.241L1275.95 632.27"/>
<path class="l1" d="M1107.9 536.241L1275.95 536.241"/>
<path class="l1" d="M1604.05 800.321L1676.07 800.321"/>
<path class="l1" d="M1275.95 680.285L1275.95 800.321"/>
<path class="l1" d="M843.82 800.321L1275.95 800.321"/>
<path class="l1" d="M1323.97 440.212L1436 440.212"/>
<path class="l1" d="M1275.95 656.278L1323.97 656.278"/>
<path class="l1" d="M1323.97 656.278L1323.97 800.321"/>
<path class="l1" d="M1275.95 800.321L1323.97 800.321"/>
<path class="l1" d="M1323.97 440.212L1323.97 656.278"/>
<path class="l1" d="M1107.9 440.212L1323.97 440.212"/>
<path class="l1" d="M771.798 656.278L843.82 656.278"/>
<path class="l1" d="M771.798 656.278L771.798 800.321"/>
<path class="l1" d="M1604.05 656.278L1676.07 656.278"/>
<path class="l1" d="M1676.07 656.278L1676.07 800.321"/>
<path class="l1" d="M1604.05 680.285L1604.05 800.321"/>
<path class="l1" d="M1323.97 800.321L1604.05 800.321"/>
<path class="l1" d="M843.82 680.285L843.82 800.321"/>
<path class="l1" d="M771.798 800.321L843.82 800.321"/>
<path class="l1" d="M843.82 608.263L843.82 632.27"/>
<path class="l1" d="M771.798 584.256L771.798 656.278"/>
<path class="l1" d="M771.798 584.256L843.82 584.256"/>
<path class="l1" d="M1604.05 608.263L1604.05 632.27"/>
<path class="l1" d="M875.83 656.278L875.83 704.292"/>
<path class="l1" d="M1572.04 656.278L1572.04 704.292"/>
<path class="l1" d="M843.82 496.229L843.82 560.249"/>
<path class="l1" d="M843.82 264.159L843.82 288.166"/>
<path class="l1" d="M1604.05 264.159L1604.05 288.166"/>
<path class="l1" d="M843.82 72.101L843.82 184.135"/>
<path class="l1" d="M843.82 72.101L1604.05 72.101"/>
<path class="l1" d="M1604.05 72.101L1604.05 184.135"/>
<path class="l1" d="M771.798 208.142L843.82 208.142"/>
<path class="l1" d="M771.798 72.101L771.798 208.142"/>
<path class="l1" d="M771.798 72.101L843.82 72.101"/>
<path class="l1" d="M1604.05 208.142L1668.07 208.142"/>
<path class="l1" d="M1668.07 72.101L1668.07 208.142"/>
<path class="l1" d="M1604.05 72.101L1668.07 72.101"/>
<path class="l1" d="M771.798 312.174L843.82 312.174"/>
<path class="l1" d="M771.798 208.142L771.798 312.174"/>
<path class="l1" d="M1604.05 312.174L1668.07 312.174"/>
<path class="l1" d="M1668.07 208.142L1668.07 312.174"/>
<path class="l1" d="M1604.05 448.215L1604.05 560.249"/>
<path class="l1" d="M1604.05 584.256L1676.07 584.256"/>
<path class="l1" d="M1676.07 584.256L1676.07 656.278"/>
<path class="l1" d="M1436 264.159L1436 416.205"/>
<path class="l1" d="M1436 264.159L1604.05 264.159"/>
<path class="l1" d="M1604.05 232.149L1604.05 264.159"/>
<path class="l1" d="M1107.9 264.159L1107.9 416.205"/>
<path class="l1" d="M843.82 264.159L1107.9 264.159"/>
<path class="l1" d="M843.82 232.149L843.82 264.159"/>
<path class="l1" d="M59.5827 464.22L259.643 464.22"/>
<path class="l1" d="M843.82 496.229L955.854 496.229"/>
<path class="l1" d="M843.82 336.181L843.82 496.229"/>
<path class="l1" d="M955.854 496.229L955.854 704.292"/>
<path class="l1" d="M875.83 704.292L955.854 704.292"/>
<path class="l1" d="M1540.03 208.142L1572.04 208.142"/>
<path class="l1" d="M907.839 312.174L1572.04 312.174"/>
<path class="l1" d="M955.854 704.292L1572.04 704.292"/>
<path class="l1" d="M1604.05 448.215L1796.11 448.215"/>
<path class="l1" d="M1604.05 336.181L1604.05 448.215"/>
<path class="l1" d="M259.643 608.263L259.643 632.27"/>
<path class="l1" d="M1243.94 656.278L1243.94 736.302"/>
<path class="l1" d="M179.619 800.321L259.643 800.321"/>
<path class="l1" d="M323.663 736.302L1243.94 736.302"/>
<path class="l1" d="M259.643 680.285L259.643 800.321"/>
<path class="l1" d="M179.619 656.278L259.643 656.278"/>
<path class="l1" d="M179.619 656.278L179.619 800.321"/>
<path class="l1" d="M83.5899 800.321L179.619 800.321"/>
<path class="l1" d="M259.643 608.263L323.663 608.263"/>
<path class="l1" d="M259.643 464.22L259.643 608.263"/>
<path class="l1" d="M323.663 608.263L323.663 656.278"/>
<path class="l1" d="M291.653 656.278L323.663 656.278"/>
<path class="l1" d="M323.663 656.278L323.663 736.302"/>
<path class="l1" d="M579.74 256.157L579.74 288.166"/>
<path class="l1" d="M579.74 72.101L579.74 184.135"/>
<path class="l1" d="M507.718 72.101L579.74 72.101"/>
<path class="l1" d="M507.718 312.174L579.74 312.174"/>
<path class="l1" d="M507.718 208.142L507.718 312.174"/>
<path class="l1" d="M171.617 72.101L507.718 72.101"/>
<path class="l1" d="M507.718 208.142L579.74 208.142"/>
<path class="l1" d="M579.74 256.157L643.759 256.157"/>
<path class="l1" d="M579.74 232.149L579.74 256.157"/>
<path class="l1" d="M643.759 208.142L643.759 256.157"/>
<path class="l1" d="M611.75 208.142L643.759 208.142"/>
<path class="l1" d="M643.759 352.186L643.759 376.193"/>
<path class="l1" d="M611.75 312.174L643.759 312.174"/>
<path class="l1" d="M579.74 376.193L643.759 376.193"/>
<path class="l1" d="M579.74 336.181L579.74 376.193"/>
<path class="l1" d="M643.759 800.321L771.798 800.321"/>
<path class="l1" d="M1548.03 584.256L1572.04 584.256"/>
<path class="l1" d="M907.839 152.125L907.839 208.142"/>
<path class="l1" d="M875.83 208.142L907.839 208.142"/>
<path class="l1" d="M907.839 312.174L907.839 352.186"/>
<path class="l1" d="M875.83 312.174L907.839 312.174"/>
<path class="l1" d="M579.74 72.101L771.798 72.101"/>
<path class="l1" d="M1540.03 152.125L1540.03 208.142"/>
<path class="l1" d="M907.839 208.142L1540.03 208.142"/>
<path class="l1" d="M1540.03 152.125L1756.1 152.125"/>
<path class="l1" d="M1756.1 152.125L1756.1 208.142"/>
<path class="l1" d="M1756.1 208.142L1764.1 208.142"/>
<path class="l1" d="M1796.11 72.101L1796.11 184.135"/>
<path class="l1" d="M1668.07 72.101L1796.11 72.101"/>
<path class="l1" d="M1796.11 208.142L1844.12 208.142"/>
<path class="l1" d="M1844.12 72.101L1844.12 208.142"/>
<path class="l1" d="M1796.11 72.101L1844.12 72.101"/>
<path class="l1" d="M1796.11 232.149L1796.11 400.2"/>
<path class="l1" d="M1724.09 400.2L1796.11 400.2"/>
<path class="l1" d="M1724.09 400.2L1724.09 504.232"/>
<path class="l1" d="M1724.09 504.232L1796.11 504.232"/>
<path class="l1" d="M1796.11 544.244L1796.11 560.249"/>
<path class="l1" d="M1796.11 584.256L1852.13 584.256"/>
<path class="l1" d="M1852.13 584.256L1852.13 800.321"/>
<path class="l1" d="M1796.11 800.321L1852.13 800.321"/>
<path class="l1" d="M1796.11 608.263L1796.11 800.321"/>
<path class="l1" d="M1676.07 800.321L1796.11 800.321"/>
<path class="l1" d="M1548.03 544.244L1548.03 584.256"/>
<path class="l1" d="M875.83 584.256L1548.03 584.256"/>
<path class="l1" d="M1764.1 544.244L1796.11 544.244"/>
<path class="l1" d="M1796.11 504.232L1796.11 544.244"/>
<path class="l1" d="M579.74 680.285L579.74 800.321"/>
<path class="l1" d="M259.643 800.321L579.74 800.321"/>
<path class="l1" d="M579.74 656.278L643.759 656.278"/>
<path class="l1" d="M643.759 656.278L643.759 800.321"/>
<path class="l1" d="M579.74 800.321L643.759 800.321"/>
<path class="l1" d="M323.663 656.278L547.73 656.278"/>
<path class="l1" d="M1764.1 544.244L1764.1 584.256"/>
<path class="l1" d="M1548.03 544.244L1764.1 544.244"/>
<path class="l1" d="M579.74 376.193L579.74 632.27"/>
<path class="l1" d="M507.718 72.101L507.718 208.142"/>
<path class="l1" d="M643.759 352.186L907.839 352.186"/>
<path class="l1" d="M643.759 312.174L643.759 352.186"/>
<path class="l1" d="M643.759 152.125L643.759 208.142"/>
<path class="l1" d="M643.759 152.125L907.839 152.125"/>
<circle class="l1" cx="507.718" cy="72.101" r="2.9609"/>
<circle class="l1" cx="323.663" cy="656.278" r="2.9609"/>
<circle class="l1" cx="323.663" cy="656.278" r="2.9609"/>
<circle class="l1" cx="323.663" cy="656.278" r="2.9609"/>
<circle class="l1" cx="323.663" cy="656.278" r="2.9609"/>
<circle class="l1" cx="259.643" cy="608.263" r="2.9609"/>
<circle class="l1" cx="259.643" cy="608.263" r="2.9609"/>
<circle class="l1" cx="179.619" cy="800.321" r="2.9609"/>
<circle class="l1" cx="259.643" cy="800.321" r="2.9609"/>
<circle class="l1" cx="259.643" cy="608.263" r="2.9609"/>
<circle class="l1" cx="259.643" cy="800.321" r="2.9609"/>
<circle class="l1" cx="579.74" cy="800.321" r="2.9609"/>
<circle class="l1" cx="179.619" cy="800.321" r="2.9609"/>
<circle class="l1" cx="179.619" cy="800.321" r="2.9609"/>
<circle class="l1" cx="259.643" cy="800.321" r="2.9609"/>
<circle class="l1" cx="643.759" cy="208.142" r="2.9609"/>
<circle class="l1" cx="643.759" cy="352.186" r="2.9609"/>
<circle class="l1" cx="643.759" cy="352.186" r="2.9609"/>
<circle class="l1" cx="507.718" cy="72.101" r="2.9609"/>
<circle class="l1" cx="507.718" cy="208.142" r="2.9609"/>
<circle class="l1" cx="579.74" cy="72.101" r="2.9609"/>
<circle class="l1" cx="771.798" cy="72.101" r="2.9609"/>
<circle class="l1" cx="579.74" cy="376.193" r="2.9609"/>
<circle class="l1" cx="643.759" cy="352.186" r="2.9609"/>
<circle class="l1" cx="643.759" cy="208.142" r="2.9609"/>
<circle class="l1" cx="643.759" cy="208.142" r="2.9609"/>
<circle class="l1" cx="579.74" cy="256.157" r="2.9609"/>
<circle class="l1" cx="579.74" cy="256.157" r="2.9609"/>
<circle class="l1" cx="507.718" cy="208.142" r="2.9609"/>
<circle class="l1" cx="507.718" cy="208.142" r="2.9609"/>
<circle class="l1" cx="507.718" cy="72.101" r="2.9609"/>
<circle class="l1" cx="579.74" cy="72.101" r="2.9609"/>
<circle class="l1" cx="579.74" cy="72.101" r="2.9609"/>
<circle class="l1" cx="579.74" cy="256.157" r="2.9609"/>
<circle class="l1" cx="579.74" cy="376.193" r="2.9609"/>
<circle class="l1" cx="643.759" cy="800.321" r="2.9609"/>
<circle class="l1" cx="579.74" cy="800.321" r="2.9609"/>
<circle class="l1" cx="579.74" cy="376.193" r="2.9609"/>
<circle class="l1" cx="579.74" cy="800.321" r="2.9609"/>
<circle class="l1" cx="643.759" cy="800.321" r="2.9609"/>
<circle class="l1" cx="643.759" cy="800.321" r="2.9609"/>
<circle class="l1" cx="771.798" cy="800.321" r="2.9609"/>
<circle class="l1" cx="907.839" cy="208.142" r="2.9609"/>
<circle class="l1" cx="1540.03" cy="208.142" r="2.9609"/>
<circle class="l1" cx="907.839" cy="312.174" r="2.9609"/>
<circle class="l1" cx="907.839" cy="312.174" r="2.9609"/>
<circle class="l1" cx="907.839" cy="208.142" r="2.9609"/>
<circle class="l1" cx="907.839" cy="208.142" r="2.9609"/>
<circle class="l1" cx="907.839" cy="312.174" r="2.9609"/>
<circle class="l1" cx="843.82" cy="496.229" r="2.9609"/>
<circle class="l1" cx="843.82" cy="264.159" r="2.9609"/>
<circle class="l1" cx="843.82" cy="264.159" r="2.9609"/>
<circle class="l1" cx="771.798" cy="208.142" r="2.9609"/>
<circle class="l1" cx="771.798" cy="72.101" r="2.9609"/>
<circle class="l1" cx="843.82" cy="72.101" r="2.9609"/>
<circle class="l1" cx="771.798" cy="72.101" r="2.9609"/>
<circle class="l1" cx="771.798" cy="208.142" r="2.9609"/>
<circle class="l1" cx="771.798" cy="208.142" r="2.9609"/>
<circle class="l1" cx="843.82" cy="72.101" r="2.9609"/>
<circle class="l1" cx="1604.05" cy="72.101" r="2.9609"/>
<circle class="l1" cx="843.82" cy="72.101" r="2.9609"/>
<circle class="l1" cx="843.82" cy="264.159" r="2.9609"/>
<circle class="l1" cx="1548.03" cy="584.256" r="2.9609"/>
<circle class="l1" cx="955.854" cy="704.292" r="2.9609"/>
<circle class="l1" cx="843.82" cy="496.229" r="2.9609"/>
<circle class="l1" cx="843.82" cy="496.229" r="2.9609"/>
<circle class="l1" cx="771.798" cy="656.278" r="2.9609"/>
<circle class="l1" cx="843.82" cy="800.321" r="2.9609"/>
<circle class="l1" cx="771.798" cy="656.278" r="2.9609"/>
<circle class="l1" cx="771.798" cy="800.321" r="2.9609"/>
<circle class="l1" cx="771.798" cy="656.278" r="2.9609"/>
<circle class="l1" cx="955.854" cy="704.292" r="2.9609"/>
<circle class="l1" cx="955.854" cy="704.292" r="2.9609"/>
<circle class="l1" cx="771.798" cy="800.321" r="2.9609"/>
<circle class="l1" cx="843.82" cy="800.321" r="2.9609"/>
<circle class="l1" cx="843.82" cy="800.321" r="2.9609"/>
<circle class="l1" cx="1275.95" cy="800.321" r="2.9609"/>
<circle class="l1" cx="1323.97" cy="440.212" r="2.9609"/>
<circle class="l1" cx="1323.97" cy="656.278" r="2.9609"/>
<circle class="l1" cx="1275.95" cy="800.321" r="2.9609"/>
<circle class="l1" cx="1275.95" cy="536.241" r="2.9609"/>
<circle class="l1" cx="1275.95" cy="536.241" r="2.9609"/>
<circle class="l1" cx="1275.95" cy="536.241" r="2.9609"/>
<circle class="l1" cx="1275.95" cy="800.321" r="2.9609"/>
<circle class="l1" cx="1323.97" cy="800.321" r="2.9609"/>
<circle class="l1" cx="1540.03" cy="208.142" r="2.9609"/>
<circle class="l1" cx="1604.05" cy="448.215" r="2.9609"/>
<circle class="l1" cx="1540.03" cy="208.142" r="2.9609"/>
<circle class="l1" cx="1604.05" cy="264.159" r="2.9609"/>
<circle class="l1" cx="1604.05" cy="264.159" r="2.9609"/>
<circle class="l1" cx="1604.05" cy="72.101" r="2.9609"/>
<circle class="l1" cx="1668.07" cy="72.101" r="2.9609"/>
<circle class="l1" cx="1668.07" cy="208.142" r="2.9609"/>
<circle class="l1" cx="1604.05" cy="72.101" r="2.9609"/>
<circle class="l1" cx="1604.05" cy="264.159" r="2.9609"/>
<circle class="l1" cx="1764.1" cy="544.244" r="2.9609"/>
<circle class="l1" cx="1548.03" cy="584.256" r="2.9609"/>
<circle class="l1" cx="1548.03" cy="584.256" r="2.9609"/>
<circle class="l1" cx="1604.05" cy="448.215" r="2.9609"/>
<circle class="l1" cx="1604.05" cy="448.215" r="2.9609"/>
<circle class="l1" cx="1604.05" cy="800.321" r="2.9609"/>
<circle class="l1" cx="1676.07" cy="656.278" r="2.9609"/>
<circle class="l1" cx="1323.97" cy="440.212" r="2.9609"/>
<circle class="l1" cx="1323.97" cy="656.278" r="2.9609"/>
<circle class="l1" cx="1323.97" cy="656.278" r="2.9609"/>
<circle class="l1" cx="1323.97" cy="800.321" r="2.9609"/>
<circle class="l1" cx="1323.97" cy="440.212" r="2.9609"/>
<circle class="l1" cx="1323.97" cy="800.321" r="2.9609"/>
<circle class="l1" cx="1604.05" cy="800.321" r="2.9609"/>
<circle class="l1" cx="1604.05" cy="800.321" r="2.9609"/>
<circle class="l1" cx="1676.07" cy="800.321" r="2.9609"/>
<circle class="l1" cx="1796.11" cy="72.101" r="2.9609"/>
<circle class="l1" cx="1668.07" cy="72.101" r="2.9609"/>
<circle class="l1" cx="1796.11" cy="72.101" r="2.9609"/>
<circle class="l1" cx="1796.11" cy="72.101" r="2.9609"/>
<circle class="l1" cx="1668.07" cy="208.142" r="2.9609"/>
<circle class="l1" cx="1668.07" cy="72.101" r="2.9609"/>
<circle class="l1" cx="1668.07" cy="208.142" r="2.9609"/>
<circle class="l1" cx="1764.1" cy="544.244" r="2.9609"/>
<circle class="l1" cx="1796.11" cy="544.244" r="2.9609"/>
<circle class="l1" cx="1764.1" cy="544.244" r="2.9609"/>
<circle class="l1" cx="1796.11" cy="544.244" r="2.9609"/>
<circle class="l1" cx="1796.11" cy="800.321" r="2.9609"/>
<circle class="l1" cx="1796.11" cy="544.244" r="2.9609"/>
<circle class="l1" cx="1676.07" cy="656.278" r="2.9609"/>
<circle class="l1" cx="1676.07" cy="656.278" r="2.9609"/>
<circle class="l1" cx="1676.07" cy="800.321" r="2.9609"/>
<circle class="l1" cx="1676.07" cy="800.321" r="2.9609"/>
<circle class="l1" cx="1796.11" cy="800.321" r="2.9609"/>
<circle class="l1" cx="1796.11" cy="800.321" r="2.9609"/>
</svg>
