<?xml version="1.0" standalone="yes"?>
<!DOCTYPE svg PUBLIC "-//W3C//DTD SVG 1.1//EN"
 "http://www.w3.org/Graphics/SVG/1.1/DTD/svg11.dtd">
<svg xmlns="http://www.w3.org/2000/svg" version="1.1"
  width="100%" height="100%" viewBox="0 0 1024 768"
  style="fill: none; font-family: Helvetica;
 font: Helvetica;
">

<!-- Creator: NGspice -->

<rect x="0" y="0" width="1024" height="768" fill="black" stroke="none"/>
<text stroke="none" fill="white" font-size="16" x="358" y="752">
time
</text>
<text stroke="none" fill="white" font-size="16" x="10" y="16">
tran1: ** sch_path: /foss/designs/thesis/workspace/thesis_hp/designs/otas/tb_foldedcascode_nmos_tran.sch
</text>
<path stroke="white" d="M50 720l0 -666"/>
<text stroke="none" fill="white" font-size="16" x="35" y="728">
0.0
</text>
<path stroke="white" stroke-dasharray="1,2" d="M165 720l0 -666"/>
<text stroke="none" fill="white" font-size="16" x="150" y="728">
2.0
</text>
<path stroke="white" stroke-dasharray="1,2" d="M280 720l0 -666"/>
<text stroke="none" fill="white" font-size="16" x="265" y="728">
4.0
</text>
<path stroke="white" stroke-dasharray="1,2" d="M395 720l0 -666"/>
<text stroke="none" fill="white" font-size="16" x="380" y="728">
6.0
</text>
<path stroke="white" stroke-dasharray="1,2" d="M510 720l0 -666"/>
<text stroke="none" fill="white" font-size="16" x="495" y="728">
8.0
</text>
<path stroke="white" stroke-dasharray="1,2" d="M625 720l0 -666"/>
<text stroke="none" fill="white" font-size="16" x="605" y="728">
10.0
</text>
<path stroke="white" stroke-dasharray="1,2" d="M740 720l0 -666"/>
<text stroke="none" fill="white" font-size="16" x="720" y="728">
12.0
</text>
<path stroke="white" stroke-dasharray="1,2" d="M855 720l0 -666"/>
<text stroke="none" fill="white" font-size="16" x="835" y="728">
14.0
</text>
<path stroke="white" stroke-dasharray="1,2" d="M970 720l0 -666"/>
<text stroke="none" fill="white" font-size="16" x="950" y="728">
16.0
</text>
<text stroke="none" fill="white" font-size="16" x="614" y="752">
us
</text>
<path stroke="white" stroke-dasharray="1,2" d="M50 720l920 0"/>
<text stroke="none" fill="white" font-size="16" x="8" y="728">
-0.2
</text>
<path stroke="white" d="M50 646l920 0"/>
<text stroke="none" fill="white" font-size="16" x="18" y="654">
0.0
</text>
<path stroke="white" stroke-dasharray="1,2" d="M50 572l920 0"/>
<text stroke="none" fill="white" font-size="16" x="18" y="580">
0.2
</text>
<path stroke="white" stroke-dasharray="1,2" d="M50 498l920 0"/>
<text stroke="none" fill="white" font-size="16" x="18" y="506">
0.4
</text>
<path stroke="white" stroke-dasharray="1,2" d="M50 424l920 0"/>
<text stroke="none" fill="white" font-size="16" x="18" y="432">
0.6
</text>
<path stroke="white" stroke-dasharray="1,2" d="M50 350l920 0"/>
<text stroke="none" fill="white" font-size="16" x="18" y="358">
0.8
</text>
<path stroke="white" stroke-dasharray="1,2" d="M50 276l920 0"/>
<text stroke="none" fill="white" font-size="16" x="18" y="284">
1.0
</text>
<path stroke="white" stroke-dasharray="1,2" d="M50 202l920 0"/>
<text stroke="none" fill="white" font-size="16" x="18" y="210">
1.2
</text>
<path stroke="white" stroke-dasharray="1,2" d="M50 128l920 0"/>
<text stroke="none" fill="white" font-size="16" x="18" y="136">
1.4
</text>
<path stroke="white" stroke-dasharray="1,2" d="M50 54l920 0"/>
<text stroke="none" fill="white" font-size="16" x="18" y="62">
1.6
</text>
<text stroke="none" fill="white" font-size="16" x="10" y="32">
V
</text>
<path stroke="red" d="M460 23l46 0"/>
<text stroke="none" fill="white" font-size="16" x="516" y="32">
v_ena
</text>
<path stroke="red" d="M50 646l57 0 1 -3 0 -66 1 -28 0 -83 1 -28 0 -74 1 -21 0 -77 1 -26 0 -75 1 -19 0 -55 799 0"/>
<path stroke="blue" d="M50 23l46 0"/>
<text stroke="none" fill="white" font-size="16" x="106" y="32">
v_out
</text>
<path stroke="blue" d="M50 646l0 -2M50 646l61 0M111 647l0 -1M111 647l1 0 0 -14 1 -6 0 -23 1 -7 0 -17 1 -8 0 -26 1 -8 0 -17 1 -8 0 -24 1 -8 0 -14 1 -7 0 -18 1 -6 0 -11 1 -6 0 -16 1 -6 0 -10 1 -5 0 -15 1 -4 0 -7 1 -2 0 -2 1 0 0 -1 786 0"/>
</svg>
