<svg xmlns="http://www.w3.org/2000/svg" xmlns:xlink="http://www.w3.org/1999/xlink" width="1908" height="889" version="1.1">
<style type="text/css">
.l0{
  fill: #ffffff;
  stroke: #ffffff;
  stroke-linecap:round;
  stroke-linejoin:round;
  stroke-width: 0.902477;
}
.l1{
  fill: #0044ee;
  stroke: #0044ee;
  stroke-linecap:round;
  stroke-linejoin:round;
  stroke-width: 0.902477;
}
.l2{
  fill: #aaaaaa; fill-opacity: 0.2;
  stroke: #aaaaaa;
  stroke-linecap:round;
  stroke-linejoin:round;
  stroke-width: 0.902477;
}
.l3{
  fill: #222222; fill-opacity: 0.5;
  stroke: #222222;
  stroke-linecap:round;
  stroke-linejoin:round;
  stroke-width: 0.902477;
}
.l4{
  fill: #229900;
  stroke: #229900;
  stroke-linecap:round;
  stroke-linejoin:round;
  stroke-width: 0.902477;
}
.l5{
  fill: #bb2200;
  stroke: #bb2200;
  stroke-linecap:round;
  stroke-linejoin:round;
  stroke-width: 0.902477;
}
.l6{
  fill: #00ccee; fill-opacity: 0.5;
  stroke: #00ccee;
  stroke-linecap:round;
  stroke-linejoin:round;
  stroke-width: 0.902477;
}
.l7{
  fill: #ff0000; fill-opacity: 0.5;
  stroke: #ff0000;
  stroke-linecap:round;
  stroke-linejoin:round;
  stroke-width: 0.902477;
}
.l8{
  fill: #888800; fill-opacity: 0.5;
  stroke: #888800;
  stroke-linecap:round;
  stroke-linejoin:round;
  stroke-width: 0.902477;
}
.l9{
  fill: #00aaaa; fill-opacity: 0.5;
  stroke: #00aaaa;
  stroke-linecap:round;
  stroke-linejoin:round;
  stroke-width: 0.902477;
}
.l10{
  fill: #880088;
  stroke: #880088;
  stroke-linecap:round;
  stroke-linejoin:round;
  stroke-width: 0.902477;
}
.l11{
  fill: #00ff00; fill-opacity: 0.5;
  stroke: #00ff00;
  stroke-linecap:round;
  stroke-linejoin:round;
  stroke-width: 0.902477;
}
.l12{
  fill: #0000cc; fill-opacity: 0.5;
  stroke: #0000cc;
  stroke-linecap:round;
  stroke-linejoin:round;
  stroke-width: 0.902477;
}
.l13{
  fill: #666600; fill-opacity: 0.5;
  stroke: #666600;
  stroke-linecap:round;
  stroke-linejoin:round;
  stroke-width: 0.902477;
}
.l14{
  fill: #557755; fill-opacity: 0.2;
  stroke: #557755;
  stroke-linecap:round;
  stroke-linejoin:round;
  stroke-width: 0.902477;
}
.l15{
  fill: #aa2222; fill-opacity: 0.5;
  stroke: #aa2222;
  stroke-linecap:round;
  stroke-linejoin:round;
  stroke-width: 0.902477;
}
.l16{
  fill: #7ccc40; fill-opacity: 0.5;
  stroke: #7ccc40;
  stroke-linecap:round;
  stroke-linejoin:round;
  stroke-width: 0.902477;
}
.l17{
  fill: #00ffcc; fill-opacity: 0.2;
  stroke: #00ffcc;
  stroke-linecap:round;
  stroke-linejoin:round;
  stroke-width: 0.902477;
}
.l18{
  fill: #ce0097; fill-opacity: 0.5;
  stroke: #ce0097;
  stroke-linecap:round;
  stroke-linejoin:round;
  stroke-width: 0.902477;
}
.l19{
  fill: #d2d46b; fill-opacity: 0.2;
  stroke: #d2d46b;
  stroke-linecap:round;
  stroke-linejoin:round;
  stroke-width: 0.902477;
}
.l20{
  fill: #ef6158; fill-opacity: 0.2;
  stroke: #ef6158;
  stroke-linecap:round;
  stroke-linejoin:round;
  stroke-width: 0.902477;
}
.l21{
  fill: #fdb200; fill-opacity: 0.2;
  stroke: #fdb200;
  stroke-linecap:round;
  stroke-linejoin:round;
  stroke-width: 0.902477;
}
text {font-family: Sans-Serif;}
</style>
<rect class="l0" x="0" y="0" width="1908" height="889"/>
<text fill="#0044ee"  xml:space="preserve" font-size="8.69052" transform="translate(593.804, 610.213)" >GND</text>
<text fill="#0044ee"  xml:space="preserve" font-size="14.3394" transform="translate(548.27, 520.812)" >v_dd</text>
<text fill="#0044ee"  xml:space="preserve" font-size="8.69052" transform="translate(660.654, 610.213)" >GND</text>
<text fill="#0044ee"  xml:space="preserve" font-size="14.3394" transform="translate(619.12, 520.812)" >v_ss</text>
<text fill="#0044ee"  xml:space="preserve" font-size="11.7322" transform="translate(1347.29, 301.826)" >v_out</text>
<text fill="#0044ee"  xml:space="preserve" font-size="11.7322" transform="translate(762.998, 276.758)" >v_in</text>
<text fill="#222222"  xml:space="preserve" font-size="13.0358" transform="translate(198.97, 576.556)" >MODEL1</text>
<text fill="#222222"  xml:space="preserve" font-size="13.0358" style="font-family:Monospace;" transform="translate(207.327, 597.446)" >.lib cornerMOSlv.lib mos_ss</text>
<text fill="#222222"  xml:space="preserve" font-size="8.69052" transform="translate(604.249, 548.586)" >Vdd</text>
<text fill="#222222"  xml:space="preserve" font-size="8.69052" transform="translate(604.249, 569.477)" >1.45</text>
<text fill="#222222"  xml:space="preserve" font-size="8.69052" transform="translate(671.1, 548.586)" >Vss</text>
<text fill="#222222"  xml:space="preserve" font-size="8.69052" transform="translate(671.1, 569.477)" >0</text>
<text fill="#666600"  xml:space="preserve" font-size="8.69052" transform="translate(1371.2, 350.125)" >1</text>
<text fill="#666600"  xml:space="preserve" font-size="8.69052" transform="translate(1371.2, 385.639)" >2</text>
<text fill="#222222"  xml:space="preserve" font-size="8.69052" transform="translate(1393.92, 356.392)" >C1</text>
<text fill="#222222"  xml:space="preserve" font-size="8.69052" transform="translate(1393.92, 366.837)" >2p</text>
<text fill="#222222"  xml:space="preserve" font-size="8.69052" transform="translate(1393.92, 377.282)" >m=1</text>
<text fill="#222222"  xml:space="preserve" font-size="8.69052" transform="translate(754.662, 373.104)" >Vin</text>
<text fill="#222222"  xml:space="preserve" font-size="8.69052" transform="translate(754.662, 393.995)" >dc 0.8 ac 1</text>
<text fill="#222222"  xml:space="preserve" font-size="8.69052" transform="translate(921.787, 213.291)" >I0</text>
<text fill="#222222"  xml:space="preserve" font-size="8.69052" transform="translate(921.787, 223.259)" >10u</text>
<text fill="#222222"  xml:space="preserve" font-size="13.0358" transform="translate(198.97, 175.455)" >NGSPICE1</text>
<text fill="#222222"  xml:space="preserve" font-size="13.0358" style="font-family:Monospace;" transform="translate(207.327, 211.298)" >.temp -40</text>
<text fill="#222222"  xml:space="preserve" font-size="13.0358" style="font-family:Monospace;" transform="translate(207.327, 241.202)" >.ic v(v_out)=0</text>
<text fill="#222222"  xml:space="preserve" font-size="13.0358" style="font-family:Monospace;" transform="translate(207.327, 256.154)" >.option method=gear</text>
<text fill="#222222"  xml:space="preserve" font-size="13.0358" style="font-family:Monospace;" transform="translate(207.327, 286.058)" >.control</text>
<text fill="#222222"  xml:space="preserve" font-size="13.0358" style="font-family:Monospace;" transform="translate(207.327, 315.962)" >tran 0.005u 15u uic</text>
<text fill="#222222"  xml:space="preserve" font-size="13.0358" style="font-family:Monospace;" transform="translate(207.327, 330.914)" >plot v_out</text>
<text fill="#222222"  xml:space="preserve" font-size="13.0358" style="font-family:Monospace;" transform="translate(207.327, 360.818)" >let vout_limit=0.8*0.9</text>
<text fill="#222222"  xml:space="preserve" font-size="13.0358" style="font-family:Monospace;" transform="translate(207.327, 375.77)" >meas tran tcross WHEN v(v_out)=vout_limit</text>
<text fill="#222222"  xml:space="preserve" font-size="13.0358" style="font-family:Monospace;" transform="translate(207.327, 405.674)" >let tstart=0</text>
<text fill="#222222"  xml:space="preserve" font-size="13.0358" style="font-family:Monospace;" transform="translate(207.327, 420.626)" >let tsettle=tcross-tstart</text>
<text fill="#222222"  xml:space="preserve" font-size="13.0358" style="font-family:Monospace;" transform="translate(207.327, 435.578)" >print tsettle</text>
<text fill="#222222"  xml:space="preserve" font-size="13.0358" style="font-family:Monospace;" transform="translate(207.327, 465.482)" >.endc</text>
<text fill="#222222"  xml:space="preserve" font-size="17.381" transform="translate(591.715, 726.736)" >         tb_foldedcascode_nmos_tran.sch</text>
<text fill="#222222"  xml:space="preserve" font-size="17.381" transform="translate(591.715, 701.667)" >(c) 2025 Thesis_HP, Apache-2.0 license</text>
<text fill="#222222"  xml:space="preserve" font-size="17.381" transform="translate(1057.68, 701.667)" >2025-06-05  20:46:31</text>
<text fill="#222222"  xml:space="preserve" font-size="43.4526" transform="translate(399.521, 725.34)" >SCHEM</text>
<text fill="#222222"  xml:space="preserve" font-size="13.0358" transform="translate(1066.77, 370.991)" >foldedcascode_nmos</text>
<text fill="#222222"  xml:space="preserve" font-size="8.69052" transform="translate(1093.09, 270.113)" >x1</text>
<text fill="#222222"  xml:space="preserve" font-size="8.69052" transform="translate(1051.31, 285.155)" >AVDD</text>
<text fill="#222222"  xml:space="preserve" font-size="8.69052" transform="translate(984.459, 285.155)" >PLUS</text>
<text fill="#222222"  xml:space="preserve" font-size="8.69052" transform="translate(984.459, 335.292)" >MINUS</text>
<text fill="#222222"  xml:space="preserve" font-size="8.69052" transform="translate(1097.16, 318.58)" >Vout</text>
<text fill="#222222"  xml:space="preserve" font-size="8.69052" transform="translate(984.459, 310.223)" >Ibias</text>
<text fill="#222222"  xml:space="preserve" font-size="8.69052" transform="translate(1051.31, 335.292)" >AVSS</text>
<path class="l4" d="M194.792 581.432L253.286 581.432"/>
<path class="l4" d="M194.792 581.432L194.792 598.144"/>
<path class="l4" d="M589.626 537.561L593.804 537.561"/>
<path class="l4" d="M591.715 535.472L591.715 539.65"/>
<path class="l4" d="M587.537 531.294L587.537 581.432"/>
<circle class="l4" cx="587.537" cy="556.363" r="12.5344" style="fill:none;" />
<path class="l4" d="M587.537 598.144L587.537 608.59"/>
<path class="l4" d="M583.359 608.59L591.715 608.59"/>
<path class="l4" d="M587.537 612.768L591.715 608.59"/>
<path class="l4" d="M583.359 608.59L587.537 612.768"/>
<path class="l4" d="M656.476 537.561L660.654 537.561"/>
<path class="l4" d="M658.565 535.472L658.565 539.65"/>
<path class="l4" d="M654.387 531.294L654.387 581.432"/>
<circle class="l4" cx="654.387" cy="556.363" r="12.5344" style="fill:none;" />
<path class="l4" d="M654.387 598.144L654.387 608.59"/>
<path class="l4" d="M650.209 608.59L658.565 608.59"/>
<path class="l4" d="M654.387 612.768L658.565 608.59"/>
<path class="l4" d="M650.209 608.59L654.387 612.768"/>
<path class="l4" d="M1381.38 368.347L1381.38 389.238"/>
<path class="l4" d="M1381.38 339.1L1381.38 359.991"/>
<path class="l4" d="M1373.03 359.991L1389.74 359.991"/>
<path class="l4" d="M1373.03 368.347L1389.74 368.347"/>
<path class="l4" d="M1383.47 345.367L1387.65 345.367"/>
<path class="l4" d="M1385.56 343.278L1385.56 347.456"/>
<path class="l4" d="M740.039 362.08L744.217 362.08"/>
<path class="l4" d="M742.128 359.991L742.128 364.169"/>
<path class="l4" d="M737.95 355.812L737.95 405.95"/>
<circle class="l4" cx="737.95" cy="380.881" r="12.5344" style="fill:none;" />
<path class="l4" d="M905.075 188.687L905.075 201.222"/>
<path class="l4" d="M905.075 226.29L905.075 238.825"/>
<path class="l4" d="M907.164 194.954L911.342 194.954"/>
<path class="l4" d="M909.253 192.865L909.253 197.043"/>
<path class="l4" d="M905.075 207.489L905.075 215.845L907.164 215.845L905.075 222.112L902.986 215.845L905.075 215.845L905.075 207.489"/>
<circle class="l4" cx="905.075" cy="213.756" r="12.5344" style="fill:none;" />
<path class="l4" d="M194.792 180.331L253.286 180.331"/>
<path class="l4" d="M194.792 180.331L194.792 197.043"/>
<path class="l4" d="M1047.13 272.25L1047.13 288.962"/>
<path class="l4" d="M963.569 280.606L980.281 280.606"/>
<path class="l4" d="M963.569 330.744L980.281 330.744"/>
<path class="l4" d="M1088.91 305.675L1105.63 305.675"/>
<path class="l4" d="M963.569 305.675L980.281 305.675"/>
<path class="l4" d="M1047.13 322.387L1047.13 339.1"/>
<path class="l4" style="fill:none;" d="M1088.91 305.675L980.281 263.894L980.281 347.456L1088.91 305.675L1088.91 305.675"/>
<path class="l5" d="M585.448 529.205L589.626 529.205L589.626 533.383L585.448 533.383L585.448 529.205z"/>
<path class="l5" d="M585.448 579.343L589.626 579.343L589.626 583.521L585.448 583.521L585.448 579.343z"/>
<path class="l5" d="M585.448 596.055L589.626 596.055L589.626 600.233L585.448 600.233L585.448 596.055z"/>
<path class="l5" d="M586.492 513.537L588.581 513.537L588.581 515.626L586.492 515.626L586.492 513.537z"/>
<path class="l5" d="M652.298 529.205L656.476 529.205L656.476 533.383L652.298 533.383L652.298 529.205z"/>
<path class="l5" d="M652.298 579.343L656.476 579.343L656.476 583.521L652.298 583.521L652.298 579.343z"/>
<path class="l5" d="M652.298 596.055L656.476 596.055L656.476 600.233L652.298 600.233L652.298 596.055z"/>
<path class="l5" d="M653.342 513.537L655.432 513.537L655.432 515.626L653.342 515.626L653.342 513.537z"/>
<path class="l5" d="M1379.29 337.011L1383.47 337.011L1383.47 341.189L1379.29 341.189L1379.29 337.011z"/>
<path class="l5" d="M1379.29 387.148L1383.47 387.148L1383.47 391.327L1379.29 391.327L1379.29 387.148z"/>
<path class="l5" d="M1380.34 304.63L1382.43 304.63L1382.43 306.719L1380.34 306.719L1380.34 304.63z"/>
<path class="l5" d="M735.861 353.723L740.039 353.723L740.039 357.902L735.861 357.902L735.861 353.723z"/>
<path class="l5" d="M735.861 403.861L740.039 403.861L740.039 408.039L735.861 408.039L735.861 403.861z"/>
<path class="l5" d="M787.043 279.562L789.132 279.562L789.132 281.651L787.043 281.651L787.043 279.562z"/>
<path class="l5" d="M902.986 186.598L907.164 186.598L907.164 190.776L902.986 190.776L902.986 186.598z"/>
<path class="l5" d="M902.986 236.736L907.164 236.736L907.164 240.914L902.986 240.914L902.986 236.736z"/>
<path class="l5" d="M837.833 280.214L838.617 280.214L838.617 280.998L837.833 280.998L837.833 280.214z"/>
<path class="l5" d="M1255.65 305.283L1256.43 305.283L1256.43 306.067L1255.65 306.067L1255.65 305.283z"/>
<path class="l5" d="M386.986 694.241L386.725 694.502L386.464 694.764L386.203 695.025L385.942 695.286L385.681 695.547L385.42 695.808L385.159 696.069L384.897 696.33L384.636 696.591L384.375 696.853L384.114 697.114L383.853 697.375L383.592 697.636L383.331 697.897L383.069 698.158L382.808 698.419L382.547 698.681L382.286 698.942L382.025 699.203L381.764 699.464L381.503 699.725L381.242 699.986L380.98 700.247L380.719 700.508L380.458 700.77L380.197 701.031L379.936 701.292L379.675 701.553L379.414 701.814L379.152 702.075L378.891 702.336L378.63 702.598L378.63 702.598L378.377 702.859L378.141 703.12L377.92 703.381L377.716 703.642L377.529 703.903L377.357 704.164L377.202 704.425L377.063 704.687L376.941 704.948L376.835 705.209L376.745 705.47L376.672 705.731L376.615 705.992L376.574 706.253L376.549 706.515L376.541 706.776L376.549 707.037L376.574 707.298L376.615 707.559L376.672 707.82L376.745 708.081L376.835 708.342L376.941 708.604L377.063 708.865L377.202 709.126L377.357 709.387L377.529 709.648L377.716 709.909L377.92 710.17L378.141 710.432L378.377 710.693L378.63 710.954L378.63 710.954L378.892 711.216L379.157 711.48L379.423 711.746L379.691 712.015L379.961 712.285L380.234 712.557L380.508 712.832L380.785 713.108L381.063 713.387L381.344 713.667L381.626 713.95L381.911 714.234L382.197 714.521L382.486 714.81L382.777 715.1L383.069 715.393L383.364 715.688L383.661 715.985L383.96 716.284L384.261 716.584L384.564 716.887L384.869 717.192L385.176 717.499L385.485 717.809L385.796 718.12L386.109 718.433L386.424 718.748L386.742 719.065L387.061 719.385L387.382 719.706L387.706 720.029L388.031 720.355L388.031 720.355L388.355 720.679L388.676 720.999L388.992 721.315L389.304 721.628L389.612 721.936L389.916 722.24L390.216 722.54L390.512 722.835L390.803 723.127L391.091 723.415L391.375 723.698L391.654 723.978L391.93 724.253L392.201 724.525L392.468 724.792L392.731 725.055L392.99 725.314L393.245 725.569L393.496 725.82L393.743 726.067L393.986 726.31L394.225 726.548L394.459 726.783L394.69 727.014L394.916 727.24L395.139 727.462L395.357 727.681L395.571 727.895L395.781 728.105L395.987 728.311L396.189 728.513L396.387 728.711L396.387 728.711L396.577 728.904L396.754 729.09L396.92 729.271L397.073 729.445L397.213 729.614L397.342 729.776L397.458 729.932L397.562 730.082L397.654 730.226L397.734 730.363L397.801 730.495L397.856 730.62L397.899 730.74L397.93 730.853L397.948 730.96L397.954 731.061L397.948 731.156L397.93 731.245L397.899 731.327L397.856 731.404L397.801 731.474L397.734 731.538L397.654 731.597L397.562 731.649L397.458 731.695L397.342 731.734L397.213 731.768L397.073 731.796L396.92 731.817L396.754 731.832L396.577 731.841L396.387 731.844L396.387 731.844L396.191 731.844L395.996 731.844L395.8 731.844L395.604 731.844L395.408 731.844L395.212 731.844L395.016 731.844L394.82 731.844L394.625 731.844L394.429 731.844L394.233 731.844L394.037 731.844L393.841 731.844L393.645 731.844L393.449 731.844L393.254 731.844L393.058 731.844L392.862 731.844L392.666 731.844L392.47 731.844L392.274 731.844L392.079 731.844L391.883 731.844L391.687 731.844L391.491 731.844L391.295 731.844L391.099 731.844L390.903 731.844L390.708 731.844L390.512 731.844L390.316 731.844L390.12 731.844L390.12 731.844L389.925 731.844L389.732 731.844L389.542 731.844L389.353 731.844L389.166 731.844L388.982 731.844L388.799 731.844L388.619 731.844L388.44 731.844L388.264 731.844L388.089 731.844L387.917 731.844L387.746 731.844L387.578 731.844L387.412 731.844L387.248 731.844L387.085 731.844L386.925 731.844L386.767 731.844L386.611 731.844L386.457 731.844L386.305 731.844L386.155 731.844L386.007 731.844L385.861 731.844L385.717 731.844L385.576 731.844L385.436 731.844L385.298 731.844L385.163 731.844L385.029 731.844L384.897 731.844L384.897 731.844L384.767 731.842L384.636 731.836L384.506 731.826L384.375 731.812L384.245 731.793L384.114 731.771L383.983 731.745L383.853 731.714L383.722 731.679L383.592 731.64L383.461 731.598L383.331 731.551L383.2 731.5L383.069 731.445L382.939 731.385L382.808 731.322L382.678 731.255L382.547 731.183L382.417 731.108L382.286 731.028L382.155 730.945L382.025 730.857L381.894 730.765L381.764 730.669L381.633 730.569L381.503 730.465L381.372 730.357L381.242 730.245L381.111 730.129L380.98 730.008L380.85 729.884L380.719 729.755L380.719 729.755L380.589 729.625L380.458 729.494L380.328 729.364L380.197 729.233L380.066 729.103L379.936 728.972L379.805 728.841L379.675 728.711L379.544 728.58L379.414 728.45L379.283 728.319L379.152 728.189L379.022 728.058L378.891 727.927L378.761 727.797L378.63 727.666L378.5 727.536L378.369 727.405L378.238 727.275L378.108 727.144L377.977 727.014L377.847 726.883L377.716 726.752L377.586 726.622L377.455 726.491L377.325 726.361L377.194 726.23L377.063 726.1L376.933 725.969L376.802 725.838L376.672 725.708L376.541 725.577L376.541 725.577L376.408 725.445L376.272 725.308L376.131 725.167L375.986 725.022L375.837 724.873L375.684 724.72L375.527 724.563L375.366 724.402L375.201 724.237L375.031 724.068L374.858 723.894L374.681 723.717L374.499 723.535L374.313 723.349L374.124 723.16L373.93 722.966L373.732 722.768L373.53 722.566L373.324 722.36L373.114 722.15L372.9 721.936L372.681 721.717L372.459 721.495L372.232 721.269L372.002 721.038L371.767 720.803L371.529 720.565L371.286 720.322L371.039 720.075L370.788 719.824L370.533 719.569L370.274 719.31L370.274 719.31L370.013 719.057L369.752 718.82L369.491 718.6L369.229 718.396L368.968 718.208L368.707 718.037L368.446 717.882L368.185 717.743L367.924 717.621L367.663 717.515L367.401 717.425L367.14 717.352L366.879 717.294L366.618 717.254L366.357 717.229L366.096 717.221L365.835 717.229L365.574 717.254L365.312 717.294L365.051 717.352L364.79 717.425L364.529 717.515L364.268 717.621L364.007 717.743L363.746 717.882L363.484 718.037L363.223 718.208L362.962 718.396L362.701 718.6L362.44 718.82L362.179 719.057L361.918 719.31L361.918 719.31L361.659 719.569L361.404 719.824L361.153 720.075L360.906 720.322L360.663 720.565L360.424 720.803L360.19 721.038L359.959 721.269L359.733 721.495L359.51 721.717L359.292 721.936L359.078 722.15L358.868 722.36L358.662 722.566L358.46 722.768L358.262 722.966L358.068 723.16L357.878 723.349L357.693 723.535L357.511 723.717L357.334 723.894L357.16 724.068L356.991 724.237L356.826 724.402L356.664 724.563L356.507 724.72L356.354 724.873L356.205 725.022L356.06 725.167L355.92 725.308L355.783 725.445L355.65 725.577L355.65 725.577L355.52 725.708L355.389 725.838L355.259 725.969L355.128 726.1L354.998 726.23L354.867 726.361L354.736 726.491L354.606 726.622L354.475 726.752L354.345 726.883L354.214 727.014L354.084 727.144L353.953 727.275L353.823 727.405L353.692 727.536L353.561 727.666L353.431 727.797L353.3 727.927L353.17 728.058L353.039 728.189L352.909 728.319L352.778 728.45L352.647 728.58L352.517 728.711L352.386 728.841L352.256 728.972L352.125 729.103L351.995 729.233L351.864 729.364L351.733 729.494L351.603 729.625L351.472 729.755L351.472 729.755L351.342 729.884L351.211 730.008L351.081 730.129L350.95 730.245L350.819 730.357L350.689 730.465L350.558 730.569L350.428 730.669L350.297 730.765L350.167 730.857L350.036 730.945L349.906 731.028L349.775 731.108L349.644 731.183L349.514 731.255L349.383 731.322L349.253 731.385L349.122 731.445L348.992 731.5L348.861 731.551L348.73 731.598L348.6 731.64L348.469 731.679L348.339 731.714L348.208 731.745L348.078 731.771L347.947 731.793L347.816 731.812L347.686 731.826L347.555 731.836L347.425 731.842L347.294 731.844L347.294 731.844L347.163 731.844L347.029 731.844L346.893 731.844L346.756 731.844L346.616 731.844L346.474 731.844L346.33 731.844L346.184 731.844L346.036 731.844L345.886 731.844L345.735 731.844L345.58 731.844L345.424 731.844L345.266 731.844L345.106 731.844L344.944 731.844L344.78 731.844L344.613 731.844L344.445 731.844L344.275 731.844L344.102 731.844L343.928 731.844L343.752 731.844L343.573 731.844L343.392 731.844L343.21 731.844L343.025 731.844L342.839 731.844L342.65 731.844L342.459 731.844L342.266 731.844L342.072 731.844L342.072 731.844L341.876 731.844L341.68 731.844L341.484 731.844L341.288 731.844L341.092 731.844L340.896 731.844L340.701 731.844L340.505 731.844L340.309 731.844L340.113 731.844L339.917 731.844L339.721 731.844L339.525 731.844L339.33 731.844L339.134 731.844L338.938 731.844L338.742 731.844L338.546 731.844L338.35 731.844L338.155 731.844L337.959 731.844L337.763 731.844L337.567 731.844L337.371 731.844L337.175 731.844L336.979 731.844L336.784 731.844L336.588 731.844L336.392 731.844L336.196 731.844L336 731.844L335.804 731.844L335.804 731.844L335.615 731.841L335.437 731.832L335.272 731.817L335.119 731.796L334.978 731.768L334.85 731.734L334.733 731.695L334.629 731.649L334.537 731.597L334.458 731.538L334.391 731.474L334.335 731.404L334.293 731.327L334.262 731.245L334.244 731.156L334.238 731.061L334.244 730.96L334.262 730.853L334.293 730.74L334.335 730.62L334.391 730.495L334.458 730.363L334.537 730.226L334.629 730.082L334.733 729.932L334.85 729.776L334.978 729.614L335.119 729.445L335.272 729.271L335.437 729.09L335.615 728.904L335.804 728.711L335.804 728.711L336.002 728.513L336.204 728.311L336.41 728.105L336.62 727.895L336.835 727.681L337.053 727.462L337.275 727.24L337.502 727.014L337.732 726.783L337.967 726.548L338.206 726.31L338.448 726.067L338.695 725.82L338.946 725.569L339.201 725.314L339.46 725.055L339.723 724.792L339.991 724.525L340.262 724.253L340.537 723.978L340.817 723.698L341.1 723.415L341.388 723.127L341.68 722.835L341.976 722.54L342.276 722.24L342.579 721.936L342.888 721.628L343.2 721.315L343.516 720.999L343.836 720.679L344.161 720.355L344.161 720.355L344.486 720.029L344.809 719.706L345.131 719.385L345.45 719.065L345.767 718.748L346.082 718.433L346.396 718.12L346.707 717.809L347.016 717.499L347.323 717.192L347.628 716.887L347.931 716.584L348.232 716.284L348.53 715.985L348.827 715.688L349.122 715.393L349.415 715.1L349.706 714.81L349.994 714.521L350.281 714.234L350.565 713.95L350.848 713.667L351.129 713.387L351.407 713.108L351.683 712.832L351.958 712.557L352.23 712.285L352.501 712.015L352.769 711.746L353.035 711.48L353.299 711.216L353.561 710.954L353.561 710.954L353.814 710.693L354.051 710.432L354.271 710.17L354.475 709.909L354.663 709.648L354.834 709.387L354.989 709.126L355.128 708.865L355.251 708.604L355.357 708.342L355.446 708.081L355.52 707.82L355.577 707.559L355.618 707.298L355.642 707.037L355.65 706.776L355.642 706.515L355.618 706.253L355.577 705.992L355.52 705.731L355.446 705.47L355.357 705.209L355.251 704.948L355.128 704.687L354.989 704.425L354.834 704.164L354.663 703.903L354.475 703.642L354.271 703.381L354.051 703.12L353.814 702.859L353.561 702.598L353.561 702.598L353.299 702.335L353.035 702.071L352.769 701.805L352.501 701.537L352.23 701.266L351.958 700.994L351.683 700.72L351.407 700.443L351.129 700.165L350.848 699.884L350.565 699.602L350.281 699.317L349.994 699.03L349.706 698.742L349.415 698.451L349.122 698.158L348.827 697.863L348.53 697.567L348.232 697.268L347.931 696.967L347.628 696.664L347.323 696.359L347.016 696.052L346.707 695.743L346.396 695.432L346.082 695.119L345.767 694.803L345.45 694.486L345.131 694.167L344.809 693.845L344.486 693.522L344.161 693.197L344.161 693.197L343.836 692.872L343.516 692.552L343.2 692.236L342.888 691.924L342.579 691.616L342.276 691.312L341.976 691.012L341.68 690.716L341.388 690.424L341.1 690.137L340.817 689.853L340.537 689.574L340.262 689.298L339.991 689.027L339.723 688.76L339.46 688.496L339.201 688.237L338.946 687.982L338.695 687.731L338.448 687.484L338.206 687.242L337.967 687.003L337.732 686.768L337.502 686.538L337.275 686.311L337.053 686.089L336.835 685.871L336.62 685.657L336.41 685.446L336.204 685.24L336.002 685.038L335.804 684.84L335.804 684.84L335.615 684.648L335.437 684.461L335.272 684.28L335.119 684.106L334.978 683.938L334.85 683.776L334.733 683.619L334.629 683.47L334.537 683.326L334.458 683.188L334.391 683.056L334.335 682.931L334.293 682.812L334.262 682.698L334.244 682.591L334.238 682.49L334.244 682.395L334.262 682.307L334.293 682.224L334.335 682.148L334.391 682.077L334.458 682.013L334.537 681.955L334.629 681.903L334.733 681.857L334.85 681.817L334.978 681.783L335.119 681.756L335.272 681.734L335.437 681.719L335.615 681.71L335.804 681.707L335.804 681.707L336 681.707L336.196 681.707L336.392 681.707L336.588 681.707L336.784 681.707L336.979 681.707L337.175 681.707L337.371 681.707L337.567 681.707L337.763 681.707L337.959 681.707L338.155 681.707L338.35 681.707L338.546 681.707L338.742 681.707L338.938 681.707L339.134 681.707L339.33 681.707L339.525 681.707L339.721 681.707L339.917 681.707L340.113 681.707L340.309 681.707L340.505 681.707L340.701 681.707L340.896 681.707L341.092 681.707L341.288 681.707L341.484 681.707L341.68 681.707L341.876 681.707L342.072 681.707L342.072 681.707L342.266 681.707L342.459 681.707L342.65 681.707L342.839 681.707L343.025 681.707L343.21 681.707L343.392 681.707L343.573 681.707L343.752 681.707L343.928 681.707L344.102 681.707L344.275 681.707L344.445 681.707L344.613 681.707L344.78 681.707L344.944 681.707L345.106 681.707L345.266 681.707L345.424 681.707L345.58 681.707L345.735 681.707L345.886 681.707L346.036 681.707L346.184 681.707L346.33 681.707L346.474 681.707L346.616 681.707L346.756 681.707L346.893 681.707L347.029 681.707L347.163 681.707L347.294 681.707L347.294 681.707L347.425 681.709L347.555 681.715L347.686 681.725L347.816 681.74L347.947 681.758L348.078 681.78L348.208 681.807L348.339 681.837L348.469 681.872L348.6 681.911L348.73 681.954L348.861 682.001L348.992 682.052L349.122 682.107L349.253 682.166L349.383 682.229L349.514 682.296L349.644 682.368L349.775 682.443L349.906 682.523L350.036 682.607L350.167 682.694L350.297 682.786L350.428 682.882L350.558 682.982L350.689 683.086L350.819 683.194L350.95 683.306L351.081 683.423L351.211 683.543L351.342 683.667L351.472 683.796L351.472 683.796L351.603 683.927L351.733 684.057L351.864 684.188L351.995 684.318L352.125 684.449L352.256 684.579L352.386 684.71L352.517 684.84L352.647 684.971L352.778 685.102L352.909 685.232L353.039 685.363L353.17 685.493L353.3 685.624L353.431 685.754L353.561 685.885L353.692 686.016L353.823 686.146L353.953 686.277L354.084 686.407L354.214 686.538L354.345 686.668L354.475 686.799L354.606 686.93L354.736 687.06L354.867 687.191L354.998 687.321L355.128 687.452L355.259 687.582L355.389 687.713L355.52 687.844L355.65 687.974L355.65 687.974L355.783 688.107L355.92 688.243L356.06 688.384L356.205 688.529L356.354 688.678L356.507 688.831L356.664 688.988L356.826 689.149L356.991 689.314L357.16 689.484L357.334 689.657L357.511 689.835L357.693 690.016L357.878 690.202L358.068 690.392L358.262 690.585L358.46 690.783L358.662 690.985L358.868 691.191L359.078 691.401L359.292 691.616L359.51 691.834L359.733 692.056L359.959 692.283L360.19 692.513L360.424 692.748L360.663 692.987L360.906 693.229L361.153 693.476L361.404 693.727L361.659 693.982L361.918 694.241L361.918 694.241L362.179 694.494L362.44 694.731L362.701 694.951L362.962 695.155L363.223 695.343L363.484 695.514L363.746 695.669L364.007 695.808L364.268 695.93L364.529 696.037L364.79 696.126L365.051 696.2L365.312 696.257L365.574 696.298L365.835 696.322L366.096 696.33L366.357 696.322L366.618 696.298L366.879 696.257L367.14 696.2L367.401 696.126L367.663 696.037L367.924 695.93L368.185 695.808L368.446 695.669L368.707 695.514L368.968 695.343L369.229 695.155L369.491 694.951L369.752 694.731L370.013 694.494L370.274 694.241L370.274 694.241L370.533 693.982L370.788 693.727L371.039 693.476L371.286 693.229L371.529 692.987L371.767 692.748L372.002 692.513L372.232 692.283L372.459 692.056L372.681 691.834L372.9 691.616L373.114 691.401L373.324 691.191L373.53 690.985L373.732 690.783L373.93 690.585L374.124 690.392L374.313 690.202L374.499 690.016L374.681 689.835L374.858 689.657L375.031 689.484L375.201 689.314L375.366 689.149L375.527 688.988L375.684 688.831L375.837 688.678L375.986 688.529L376.131 688.384L376.272 688.243L376.408 688.107L376.541 687.974L376.541 687.974L376.672 687.844L376.802 687.713L376.933 687.582L377.063 687.452L377.194 687.321L377.325 687.191L377.455 687.06L377.586 686.93L377.716 686.799L377.847 686.668L377.977 686.538L378.108 686.407L378.238 686.277L378.369 686.146L378.5 686.016L378.63 685.885L378.761 685.754L378.891 685.624L379.022 685.493L379.152 685.363L379.283 685.232L379.414 685.102L379.544 684.971L379.675 684.84L379.805 684.71L379.936 684.579L380.066 684.449L380.197 684.318L380.328 684.188L380.458 684.057L380.589 683.927L380.719 683.796L380.719 683.796L380.85 683.667L380.98 683.543L381.111 683.423L381.242 683.306L381.372 683.194L381.503 683.086L381.633 682.982L381.764 682.882L381.894 682.786L382.025 682.694L382.155 682.607L382.286 682.523L382.417 682.443L382.547 682.368L382.678 682.296L382.808 682.229L382.939 682.166L383.069 682.107L383.2 682.052L383.331 682.001L383.461 681.954L383.592 681.911L383.722 681.872L383.853 681.837L383.983 681.807L384.114 681.78L384.245 681.758L384.375 681.74L384.506 681.725L384.636 681.715L384.767 681.709L384.897 681.707L384.897 681.707L385.029 681.707L385.163 681.707L385.298 681.707L385.436 681.707L385.576 681.707L385.717 681.707L385.861 681.707L386.007 681.707L386.155 681.707L386.305 681.707L386.457 681.707L386.611 681.707L386.767 681.707L386.925 681.707L387.085 681.707L387.248 681.707L387.412 681.707L387.578 681.707L387.746 681.707L387.917 681.707L388.089 681.707L388.264 681.707L388.44 681.707L388.619 681.707L388.799 681.707L388.982 681.707L389.166 681.707L389.353 681.707L389.542 681.707L389.732 681.707L389.925 681.707L390.12 681.707L390.12 681.707L390.316 681.707L390.512 681.707L390.708 681.707L390.903 681.707L391.099 681.707L391.295 681.707L391.491 681.707L391.687 681.707L391.883 681.707L392.079 681.707L392.274 681.707L392.47 681.707L392.666 681.707L392.862 681.707L393.058 681.707L393.254 681.707L393.449 681.707L393.645 681.707L393.841 681.707L394.037 681.707L394.233 681.707L394.429 681.707L394.625 681.707L394.82 681.707L395.016 681.707L395.212 681.707L395.408 681.707L395.604 681.707L395.8 681.707L395.996 681.707L396.191 681.707L396.387 681.707L396.387 681.707L396.577 681.71L396.754 681.719L396.92 681.734L397.073 681.756L397.213 681.783L397.342 681.817L397.458 681.857L397.562 681.903L397.654 681.955L397.734 682.013L397.801 682.077L397.856 682.148L397.899 682.224L397.93 682.307L397.948 682.395L397.954 682.49L397.948 682.591L397.93 682.698L397.899 682.812L397.856 682.931L397.801 683.056L397.734 683.188L397.654 683.326L397.562 683.47L397.458 683.619L397.342 683.776L397.213 683.938L397.073 684.106L396.92 684.28L396.754 684.461L396.577 684.648L396.387 684.84L396.387 684.84L396.188 685.039L395.983 685.244L395.772 685.456L395.555 685.673L395.331 685.896L395.102 686.126L394.866 686.361L394.625 686.603L394.377 686.851L394.123 687.105L393.863 687.365L393.596 687.631L393.324 687.904L393.046 688.182L392.761 688.467L392.47 688.757L392.173 689.054L391.87 689.357L391.561 689.666L391.246 689.982L390.925 690.303L390.597 690.63L390.264 690.964L389.924 691.304L389.578 691.649L389.226 692.001L388.868 692.359L388.504 692.723L388.134 693.094L387.758 693.47L387.375 693.853L386.986 694.241"/>
<path class="l5" d="M1045.04 270.161L1049.22 270.161L1049.22 274.339L1045.04 274.339L1045.04 270.161z"/>
<path class="l5" d="M961.48 278.517L965.658 278.517L965.658 282.695L961.48 282.695L961.48 278.517z"/>
<path class="l5" d="M961.48 328.655L965.658 328.655L965.658 332.833L961.48 332.833L961.48 328.655z"/>
<path class="l5" d="M1103.54 303.586L1107.71 303.586L1107.71 307.764L1103.54 307.764L1103.54 303.586z"/>
<path class="l5" d="M961.48 303.586L965.658 303.586L965.658 307.764L961.48 307.764L961.48 303.586z"/>
<path class="l5" d="M1045.04 337.011L1049.22 337.011L1049.22 341.189L1045.04 341.189L1045.04 337.011z"/>
<path class="l6" d="M583.359 706.776L1247.68 706.776"/>
<path class="l6" d="M261.642 706.776L315.958 706.776"/>
<path class="l15" d="M841.358 273.294L846.581 267.027"/>
<path class="l15" d="M838.225 280.606L841.358 273.294"/>
<path class="l15" d="M846.581 257.626L846.581 269.116"/>
<path class="l15" d="M844.492 267.027L862.249 267.027"/>
<path class="l15" d="M848.67 263.894L852.848 263.894"/>
<path class="l15" d="M852.848 260.76L852.848 263.894"/>
<path class="l15" d="M852.848 260.76L855.982 260.76"/>
<path class="l15" d="M855.982 260.76L855.982 263.894"/>
<path class="l15" d="M855.982 263.894L859.115 263.894"/>
<path class="l15" d="M859.115 260.76L859.115 263.894"/>
<path class="l15" d="M859.115 260.76L861.466 260.76"/>
<path class="l15" d="M1259.17 298.363L1264.39 292.096"/>
<path class="l15" d="M1256.04 305.675L1259.17 298.363"/>
<path class="l15" d="M1264.39 282.695L1264.39 294.185"/>
<path class="l15" d="M1262.31 292.096L1280.06 292.096"/>
<path class="l15" d="M1266.48 288.962L1270.66 288.962"/>
<path class="l15" d="M1270.66 285.829L1270.66 288.962"/>
<path class="l15" d="M1270.66 285.829L1273.8 285.829"/>
<path class="l15" d="M1273.8 285.829L1273.8 288.962"/>
<path class="l15" d="M1273.8 288.962L1276.93 288.962"/>
<path class="l15" d="M1276.93 285.829L1276.93 288.962"/>
<path class="l15" d="M1276.93 285.829L1279.28 285.829"/>
<path class="l1" d="M587.537 581.432L587.537 598.144"/>
<path class="l1" d="M654.387 581.432L654.387 598.144"/>
<path class="l1" d="M654.387 514.582L654.387 531.294"/>
<path class="l1" d="M1381.38 389.238L1381.38 514.582"/>
<path class="l1" d="M1214.26 305.675L1214.26 405.95"/>
<path class="l1" d="M905.075 405.95L1214.26 405.95"/>
<path class="l1" d="M905.075 330.744L905.075 405.95"/>
<path class="l1" d="M905.075 330.744L963.569 330.744"/>
<path class="l1" d="M737.95 405.95L737.95 514.582"/>
<path class="l1" d="M654.387 514.582L737.95 514.582"/>
<path class="l1" d="M737.95 280.606L737.95 355.812"/>
<path class="l1" d="M737.95 280.606L963.569 280.606"/>
<path class="l1" d="M905.075 305.675L963.569 305.675"/>
<path class="l1" d="M905.075 238.825L905.075 305.675"/>
<path class="l1" d="M1214.26 305.675L1381.38 305.675"/>
<path class="l1" d="M1381.38 305.675L1381.38 339.1"/>
<path class="l1" d="M587.537 188.687L587.537 531.294"/>
<path class="l1" d="M1038.78 188.687L1038.78 272.25"/>
<path class="l1" d="M1038.78 514.582L1381.38 514.582"/>
<path class="l1" d="M737.95 514.582L1038.78 514.582"/>
<path class="l1" d="M587.537 188.687L1038.78 188.687"/>
<path class="l1" d="M1038.78 272.25L1047.13 272.25"/>
<path class="l1" d="M1038.78 339.1L1047.13 339.1"/>
<path class="l1" d="M1038.78 339.1L1038.78 514.582"/>
<path class="l1" d="M1105.63 305.675L1214.26 305.675"/>
<circle class="l1" cx="737.95" cy="514.582" r="3.09182"/>
<circle class="l1" cx="1038.78" cy="514.582" r="3.09182"/>
<circle class="l1" cx="737.95" cy="514.582" r="3.09182"/>
<circle class="l1" cx="737.95" cy="514.582" r="3.09182"/>
<circle class="l1" cx="1214.26" cy="305.675" r="3.09182"/>
<circle class="l1" cx="1038.78" cy="514.582" r="3.09182"/>
<circle class="l1" cx="1038.78" cy="514.582" r="3.09182"/>
<circle class="l1" cx="1214.26" cy="305.675" r="3.09182"/>
<circle class="l1" cx="1214.26" cy="305.675" r="3.09182"/>
</svg>
