<svg xmlns="http://www.w3.org/2000/svg" xmlns:xlink="http://www.w3.org/1999/xlink" width="1908" height="889" version="1.1">
<style type="text/css">
.l0{
  fill: #ffffff;
  stroke: #ffffff;
  stroke-linecap:round;
  stroke-linejoin:round;
  stroke-width: 0.847267;
}
.l1{
  fill: #0044ee;
  stroke: #0044ee;
  stroke-linecap:round;
  stroke-linejoin:round;
  stroke-width: 0.847267;
}
.l2{
  fill: #aaaaaa; fill-opacity: 0.2;
  stroke: #aaaaaa;
  stroke-linecap:round;
  stroke-linejoin:round;
  stroke-width: 0.847267;
}
.l3{
  fill: #222222; fill-opacity: 0.5;
  stroke: #222222;
  stroke-linecap:round;
  stroke-linejoin:round;
  stroke-width: 0.847267;
}
.l4{
  fill: #229900;
  stroke: #229900;
  stroke-linecap:round;
  stroke-linejoin:round;
  stroke-width: 0.847267;
}
.l5{
  fill: #bb2200;
  stroke: #bb2200;
  stroke-linecap:round;
  stroke-linejoin:round;
  stroke-width: 0.847267;
}
.l6{
  fill: #00ccee; fill-opacity: 0.5;
  stroke: #00ccee;
  stroke-linecap:round;
  stroke-linejoin:round;
  stroke-width: 0.847267;
}
.l7{
  fill: #ff0000; fill-opacity: 0.5;
  stroke: #ff0000;
  stroke-linecap:round;
  stroke-linejoin:round;
  stroke-width: 0.847267;
}
.l8{
  fill: #888800; fill-opacity: 0.5;
  stroke: #888800;
  stroke-linecap:round;
  stroke-linejoin:round;
  stroke-width: 0.847267;
}
.l9{
  fill: #00aaaa; fill-opacity: 0.5;
  stroke: #00aaaa;
  stroke-linecap:round;
  stroke-linejoin:round;
  stroke-width: 0.847267;
}
.l10{
  fill: #880088;
  stroke: #880088;
  stroke-linecap:round;
  stroke-linejoin:round;
  stroke-width: 0.847267;
}
.l11{
  fill: #00ff00; fill-opacity: 0.5;
  stroke: #00ff00;
  stroke-linecap:round;
  stroke-linejoin:round;
  stroke-width: 0.847267;
}
.l12{
  fill: #0000cc; fill-opacity: 0.5;
  stroke: #0000cc;
  stroke-linecap:round;
  stroke-linejoin:round;
  stroke-width: 0.847267;
}
.l13{
  fill: #666600; fill-opacity: 0.5;
  stroke: #666600;
  stroke-linecap:round;
  stroke-linejoin:round;
  stroke-width: 0.847267;
}
.l14{
  fill: #557755; fill-opacity: 0.2;
  stroke: #557755;
  stroke-linecap:round;
  stroke-linejoin:round;
  stroke-width: 0.847267;
}
.l15{
  fill: #aa2222; fill-opacity: 0.5;
  stroke: #aa2222;
  stroke-linecap:round;
  stroke-linejoin:round;
  stroke-width: 0.847267;
}
.l16{
  fill: #7ccc40; fill-opacity: 0.5;
  stroke: #7ccc40;
  stroke-linecap:round;
  stroke-linejoin:round;
  stroke-width: 0.847267;
}
.l17{
  fill: #00ffcc; fill-opacity: 0.2;
  stroke: #00ffcc;
  stroke-linecap:round;
  stroke-linejoin:round;
  stroke-width: 0.847267;
}
.l18{
  fill: #ce0097; fill-opacity: 0.5;
  stroke: #ce0097;
  stroke-linecap:round;
  stroke-linejoin:round;
  stroke-width: 0.847267;
}
.l19{
  fill: #d2d46b; fill-opacity: 0.2;
  stroke: #d2d46b;
  stroke-linecap:round;
  stroke-linejoin:round;
  stroke-width: 0.847267;
}
.l20{
  fill: #ef6158; fill-opacity: 0.2;
  stroke: #ef6158;
  stroke-linecap:round;
  stroke-linejoin:round;
  stroke-width: 0.847267;
}
.l21{
  fill: #fdb200; fill-opacity: 0.2;
  stroke: #fdb200;
  stroke-linecap:round;
  stroke-linejoin:round;
  stroke-width: 0.847267;
}
text {font-family: Sans-Serif;}
</style>
<rect class="l0" x="0" y="0" width="1908" height="889"/>
<text fill="#0044ee"  xml:space="preserve" font-size="8.15887" transform="translate(822.879, 699.639)" >GND</text>
<text fill="#0044ee"  xml:space="preserve" font-size="13.4621" transform="translate(782.112, 615.707)" >v_ss</text>
<text fill="#0044ee"  xml:space="preserve" font-size="8.15887" transform="translate(705.203, 683.949)" >GND</text>
<text fill="#0044ee"  xml:space="preserve" font-size="13.4621" transform="translate(660.436, 607.862)" >v_dd</text>
<text fill="#0044ee"  xml:space="preserve" font-size="11.0145" transform="translate(917.555, 425.808)" >v_in</text>
<text fill="#0044ee"  xml:space="preserve" font-size="11.0145" transform="translate(1465.56, 449.343)" >v_out</text>
<text fill="#0044ee"  xml:space="preserve" font-size="11.0145" transform="translate(1219.06, 519.949)" >v_ena</text>
<text fill="#222222"  xml:space="preserve" font-size="8.15887" transform="translate(832.686, 641.782)" >Vss</text>
<text fill="#222222"  xml:space="preserve" font-size="8.15887" transform="translate(832.686, 661.394)" >0</text>
<text fill="#222222"  xml:space="preserve" font-size="8.15887" transform="translate(715.01, 626.092)" >Vdd</text>
<text fill="#222222"  xml:space="preserve" font-size="8.15887" transform="translate(715.01, 645.704)" >1.55</text>
<text fill="#222222"  xml:space="preserve" font-size="8.15887" transform="translate(911.136, 516.261)" >Vin</text>
<text fill="#222222"  xml:space="preserve" font-size="8.15887" transform="translate(911.136, 535.873)" >dc 0.7 ac 1</text>
<text fill="#222222"  xml:space="preserve" font-size="8.15887" transform="translate(1122.95, 350.533)" >I0</text>
<text fill="#222222"  xml:space="preserve" font-size="8.15887" transform="translate(1122.95, 359.892)" >12.5u</text>
<text fill="#666600"  xml:space="preserve" font-size="8.15887" transform="translate(1490.59, 494.687)" >1</text>
<text fill="#666600"  xml:space="preserve" font-size="8.15887" transform="translate(1490.59, 528.028)" >2</text>
<text fill="#222222"  xml:space="preserve" font-size="8.15887" transform="translate(1511.28, 500.57)" >C1</text>
<text fill="#222222"  xml:space="preserve" font-size="8.15887" transform="translate(1511.28, 510.377)" >2p</text>
<text fill="#222222"  xml:space="preserve" font-size="8.15887" transform="translate(1511.28, 520.183)" >m=1</text>
<text fill="#222222"  xml:space="preserve" font-size="12.2383" transform="translate(185.467, 738.646)" >MODEL1</text>
<text fill="#222222"  xml:space="preserve" font-size="12.2383" style="font-family:Monospace;" transform="translate(193.313, 758.259)" >.lib cornerMOSlv.lib mos_ss</text>
<text fill="#222222"  xml:space="preserve" font-size="12.2383" transform="translate(185.467, 134.576)" >NGSPICE1</text>
<text fill="#222222"  xml:space="preserve" font-size="12.2383" style="font-family:Monospace;" transform="translate(193.313, 168.226)" >.temp -40</text>
<text fill="#222222"  xml:space="preserve" font-size="12.2383" style="font-family:Monospace;" transform="translate(193.313, 182.263)" >.control</text>
<text fill="#222222"  xml:space="preserve" font-size="12.2383" style="font-family:Monospace;" transform="translate(193.313, 196.3)" >option sparse</text>
<text fill="#222222"  xml:space="preserve" font-size="12.2383" style="font-family:Monospace;" transform="translate(193.313, 210.338)" >save all</text>
<text fill="#222222"  xml:space="preserve" font-size="12.2383" style="font-family:Monospace;" transform="translate(193.313, 224.375)" >op</text>
<text fill="#222222"  xml:space="preserve" font-size="12.2383" style="font-family:Monospace;" transform="translate(193.313, 238.412)" >write tb_foldedcascode_nmos_ac.raw</text>
<text fill="#222222"  xml:space="preserve" font-size="12.2383" style="font-family:Monospace;" transform="translate(193.313, 252.45)" >set appendwrite</text>
<text fill="#222222"  xml:space="preserve" font-size="12.2383" style="font-family:Monospace;" transform="translate(193.313, 280.524)" >ac dec 101 1k 1G</text>
<text fill="#222222"  xml:space="preserve" font-size="12.2383" style="font-family:Monospace;" transform="translate(193.313, 294.562)" >write tb_foldedcascode_nmos_ac.raw</text>
<text fill="#222222"  xml:space="preserve" font-size="12.2383" style="font-family:Monospace;" transform="translate(193.313, 308.599)" >plot 20*log10(v_out)</text>
<text fill="#222222"  xml:space="preserve" font-size="12.2383" style="font-family:Monospace;" transform="translate(193.313, 364.748)" >meas ac dcgain MAX vmag(v_out) FROM=10 TO=10k</text>
<text fill="#222222"  xml:space="preserve" font-size="12.2383" style="font-family:Monospace;" transform="translate(193.313, 378.786)" >let f3db = dcgain/sqrt(2)</text>
<text fill="#222222"  xml:space="preserve" font-size="12.2383" style="font-family:Monospace;" transform="translate(193.313, 392.823)" >meas ac fbw WHEN vmag(v_out)=f3db FALL=1</text>
<text fill="#222222"  xml:space="preserve" font-size="12.2383" style="font-family:Monospace;" transform="translate(193.313, 406.86)" >let gainerror=(dcgain-1)/1</text>
<text fill="#222222"  xml:space="preserve" font-size="12.2383" style="font-family:Monospace;" transform="translate(193.313, 420.898)" >print dcgain</text>
<text fill="#222222"  xml:space="preserve" font-size="12.2383" style="font-family:Monospace;" transform="translate(193.313, 434.935)" >print fbw</text>
<text fill="#222222"  xml:space="preserve" font-size="12.2383" style="font-family:Monospace;" transform="translate(193.313, 448.972)" >print gainerror</text>
<text fill="#222222"  xml:space="preserve" font-size="12.2383" style="font-family:Monospace;" transform="translate(193.313, 505.122)" >plot 180/pi*ph(v_out) vs frequency</text>
<text fill="#222222"  xml:space="preserve" font-size="12.2383" style="font-family:Monospace;" transform="translate(193.313, 533.196)" >noise v(v_out) Vin dec 101 1k 100MEG</text>
<text fill="#222222"  xml:space="preserve" font-size="12.2383" style="font-family:Monospace;" transform="translate(193.313, 547.234)" >print onoise_total</text>
<text fill="#222222"  xml:space="preserve" font-size="12.2383" style="font-family:Monospace;" transform="translate(193.313, 575.309)" >.endc</text>
<text fill="#222222"  xml:space="preserve" font-size="16.3177" transform="translate(695.397, 832.568)" >         tb_foldedcascode_nmos_ac.sch</text>
<text fill="#222222"  xml:space="preserve" font-size="16.3177" transform="translate(695.397, 809.033)" >(c) 2025 Thesis_HP, Apache-2.0 license</text>
<text fill="#222222"  xml:space="preserve" font-size="16.3177" transform="translate(1137.23, 809.033)" >2025-06-09  18:28:01</text>
<text fill="#222222"  xml:space="preserve" font-size="40.7944" transform="translate(514.96, 831.258)" >SCHEM</text>
<text fill="#222222"  xml:space="preserve" font-size="8.15887" transform="translate(1232.78, 547.641)" >Venable</text>
<text fill="#222222"  xml:space="preserve" font-size="8.15887" transform="translate(1232.78, 567.254)" >1.5</text>
<text fill="#222222"  xml:space="preserve" font-size="8.15887" transform="translate(1252.4, 411.725)" >x1</text>
<text fill="#222222"  xml:space="preserve" font-size="8.15887" transform="translate(1173.48, 391.384)" >AVDD</text>
<text fill="#222222"  xml:space="preserve" font-size="8.15887" transform="translate(1166.1, 433.691)" >PLUS</text>
<text fill="#222222"  xml:space="preserve" font-size="8.15887" transform="translate(1166.1, 480.762)" >MINUS</text>
<text fill="#222222"  xml:space="preserve" font-size="8.15887" transform="translate(1280.47, 441.536)" >Vout</text>
<text fill="#222222"  xml:space="preserve" font-size="8.15887" transform="translate(1166.1, 457.226)" >Ibias</text>
<text fill="#222222"  xml:space="preserve" font-size="8.15887" transform="translate(1221.02, 496.452)" >d_ena</text>
<text fill="#222222"  xml:space="preserve" font-size="8.15887" transform="translate(1173.95, 519.987)" >AVSS</text>
<path class="l4" d="M818.957 631.432L822.879 631.432"/>
<path class="l4" d="M820.918 629.47L820.918 633.393"/>
<path class="l4" d="M816.996 625.548L816.996 672.618"/>
<circle class="l4" cx="816.996" cy="649.083" r="11.7676" style="fill:none;" />
<path class="l4" d="M816.996 688.308L816.996 698.115"/>
<path class="l4" d="M813.073 698.115L820.918 698.115"/>
<path class="l4" d="M816.996 702.037L820.918 698.115"/>
<path class="l4" d="M813.073 698.115L816.996 702.037"/>
<path class="l4" d="M701.281 615.741L705.203 615.741"/>
<path class="l4" d="M703.242 613.78L703.242 617.703"/>
<path class="l4" d="M699.319 609.858L699.319 656.928"/>
<circle class="l4" cx="699.319" cy="633.393" r="11.7676" style="fill:none;" />
<path class="l4" d="M699.319 672.618L699.319 682.424"/>
<path class="l4" d="M695.397 682.424L703.242 682.424"/>
<path class="l4" d="M699.319 686.347L703.242 682.424"/>
<path class="l4" d="M695.397 682.424L699.319 686.347"/>
<path class="l4" d="M897.407 505.91L901.33 505.91"/>
<path class="l4" d="M899.369 503.949L899.369 507.872"/>
<path class="l4" d="M895.446 500.027L895.446 547.097"/>
<circle class="l4" cx="895.446" cy="523.562" r="11.7676" style="fill:none;" />
<path class="l4" d="M1107.26 327.435L1107.26 339.203"/>
<path class="l4" d="M1107.26 362.738L1107.26 374.505"/>
<path class="l4" d="M1109.22 333.319L1113.15 333.319"/>
<path class="l4" d="M1111.19 331.358L1111.19 335.28"/>
<path class="l4" d="M1107.26 345.086L1107.26 352.932L1109.22 352.932L1107.26 358.815L1105.3 352.932L1107.26 352.932L1107.26 345.086"/>
<circle class="l4" cx="1107.26" cy="350.97" r="11.7676" style="fill:none;" />
<path class="l4" d="M1499.52 511.794L1499.52 531.407"/>
<path class="l4" d="M1499.52 484.336L1499.52 503.949"/>
<path class="l4" d="M1491.67 503.949L1507.36 503.949"/>
<path class="l4" d="M1491.67 511.794L1507.36 511.794"/>
<path class="l4" d="M1501.48 490.22L1505.4 490.22"/>
<path class="l4" d="M1503.44 488.259L1503.44 492.182"/>
<path class="l4" d="M181.545 743.224L236.46 743.224"/>
<path class="l4" d="M181.545 743.224L181.545 758.914"/>
<path class="l4" d="M181.545 139.153L236.46 139.153"/>
<path class="l4" d="M181.545 139.153L181.545 154.844"/>
<path class="l4" d="M1219.06 537.291L1222.98 537.291"/>
<path class="l4" d="M1221.02 535.329L1221.02 539.252"/>
<path class="l4" d="M1217.09 531.407L1217.09 578.477"/>
<circle class="l4" cx="1217.09" cy="554.942" r="11.7676" style="fill:none;" />
<path class="l4" d="M1185.71 398.041L1185.71 413.731"/>
<path class="l4" d="M1146.49 429.421L1162.18 429.421"/>
<path class="l4" d="M1146.49 476.491L1162.18 476.491"/>
<path class="l4" d="M1264.16 452.956L1279.85 452.956"/>
<path class="l4" d="M1146.49 452.956L1162.18 452.956"/>
<path class="l4" d="M1217.09 484.336L1217.09 500.027"/>
<path class="l4" d="M1185.71 492.182L1185.71 507.872"/>
<path class="l4" style="fill:none;" d="M1264.16 437.266L1162.18 405.886L1162.18 500.027L1264.16 468.646L1264.16 437.266"/>
<path class="l5" d="M815.034 623.586L818.957 623.586L818.957 627.509L815.034 627.509L815.034 623.586z"/>
<path class="l5" d="M815.034 670.657L818.957 670.657L818.957 674.579L815.034 674.579L815.034 670.657z"/>
<path class="l5" d="M815.034 686.347L818.957 686.347L818.957 690.27L815.034 690.27L815.034 686.347z"/>
<path class="l5" d="M816.015 608.877L817.976 608.877L817.976 610.838L816.015 610.838L816.015 608.877z"/>
<path class="l5" d="M697.358 607.896L701.281 607.896L701.281 611.819L697.358 611.819L697.358 607.896z"/>
<path class="l5" d="M697.358 654.967L701.281 654.967L701.281 658.889L697.358 658.889L697.358 654.967z"/>
<path class="l5" d="M697.358 670.657L701.281 670.657L701.281 674.579L697.358 674.579L697.358 670.657z"/>
<path class="l5" d="M698.339 601.032L700.3 601.032L700.3 602.993L698.339 602.993L698.339 601.032z"/>
<path class="l5" d="M893.485 498.065L897.407 498.065L897.407 501.988L893.485 501.988L893.485 498.065z"/>
<path class="l5" d="M893.485 545.136L897.407 545.136L897.407 549.058L893.485 549.058L893.485 545.136z"/>
<path class="l5" d="M941.536 428.44L943.497 428.44L943.497 430.402L941.536 430.402L941.536 428.44z"/>
<path class="l5" d="M989.219 429.053L989.955 429.053L989.955 429.789L989.219 429.789L989.219 429.053z"/>
<path class="l5" d="M1105.3 325.474L1109.22 325.474L1109.22 329.396L1105.3 329.396L1105.3 325.474z"/>
<path class="l5" d="M1105.3 372.544L1109.22 372.544L1109.22 376.467L1105.3 376.467L1105.3 372.544z"/>
<path class="l5" d="M1497.56 482.375L1501.48 482.375L1501.48 486.298L1497.56 486.298L1497.56 482.375z"/>
<path class="l5" d="M1497.56 529.446L1501.48 529.446L1501.48 533.368L1497.56 533.368L1497.56 529.446z"/>
<path class="l5" d="M1498.54 451.976L1500.5 451.976L1500.5 453.937L1498.54 453.937L1498.54 451.976z"/>
<path class="l5" d="M1405.01 452.588L1405.74 452.588L1405.74 453.324L1405.01 453.324L1405.01 452.588z"/>
<path class="l5" d="M503.193 802.062L502.948 802.307L502.702 802.552L502.457 802.797L502.212 803.042L501.967 803.288L501.722 803.533L501.477 803.778L501.231 804.023L500.986 804.268L500.741 804.513L500.496 804.758L500.251 805.004L500.006 805.249L499.761 805.494L499.515 805.739L499.27 805.984L499.025 806.229L498.78 806.475L498.535 806.72L498.29 806.965L498.044 807.21L497.799 807.455L497.554 807.7L497.309 807.946L497.064 808.191L496.819 808.436L496.573 808.681L496.328 808.926L496.083 809.171L495.838 809.417L495.593 809.662L495.348 809.907L495.348 809.907L495.11 810.152L494.888 810.397L494.681 810.642L494.49 810.887L494.313 811.133L494.153 811.378L494.007 811.623L493.877 811.868L493.762 812.113L493.662 812.358L493.578 812.604L493.509 812.849L493.455 813.094L493.417 813.339L493.394 813.584L493.386 813.829L493.394 814.075L493.417 814.32L493.455 814.565L493.509 814.81L493.578 815.055L493.662 815.3L493.762 815.545L493.877 815.791L494.007 816.036L494.153 816.281L494.313 816.526L494.49 816.771L494.681 817.016L494.888 817.262L495.11 817.507L495.348 817.752L495.348 817.752L495.594 817.998L495.842 818.246L496.092 818.496L496.344 818.748L496.597 819.002L496.853 819.257L497.111 819.515L497.37 819.774L497.632 820.036L497.895 820.299L498.16 820.565L498.427 820.832L498.697 821.101L498.968 821.372L499.241 821.645L499.515 821.92L499.792 822.196L500.071 822.475L500.351 822.756L500.634 823.038L500.918 823.323L501.205 823.609L501.493 823.897L501.783 824.187L502.075 824.479L502.369 824.773L502.665 825.069L502.963 825.367L503.263 825.667L503.564 825.969L503.868 826.272L504.173 826.578L504.173 826.578L504.478 826.882L504.779 827.183L505.075 827.48L505.369 827.773L505.658 828.062L505.943 828.347L506.225 828.629L506.502 828.907L506.776 829.18L507.046 829.451L507.313 829.717L507.575 829.979L507.834 830.238L508.088 830.492L508.339 830.743L508.586 830.99L508.829 831.234L509.069 831.473L509.304 831.709L509.536 831.94L509.764 832.168L509.988 832.392L510.209 832.613L510.425 832.829L510.638 833.042L510.846 833.251L511.051 833.455L511.252 833.657L511.45 833.854L511.643 834.047L511.833 834.237L512.018 834.423L512.018 834.423L512.197 834.604L512.363 834.779L512.518 834.948L512.662 835.112L512.794 835.27L512.915 835.422L513.024 835.569L513.122 835.71L513.208 835.845L513.283 835.974L513.346 836.098L513.397 836.215L513.438 836.327L513.466 836.434L513.484 836.534L513.489 836.629L513.484 836.718L513.466 836.801L513.438 836.879L513.397 836.951L513.346 837.017L513.283 837.077L513.208 837.132L513.122 837.181L513.024 837.224L512.915 837.261L512.794 837.293L512.662 837.319L512.518 837.339L512.363 837.353L512.197 837.362L512.018 837.365L512.018 837.365L511.835 837.365L511.651 837.365L511.467 837.365L511.283 837.365L511.099 837.365L510.915 837.365L510.731 837.365L510.548 837.365L510.364 837.365L510.18 837.365L509.996 837.365L509.812 837.365L509.628 837.365L509.444 837.365L509.26 837.365L509.077 837.365L508.893 837.365L508.709 837.365L508.525 837.365L508.341 837.365L508.157 837.365L507.973 837.365L507.789 837.365L507.606 837.365L507.422 837.365L507.238 837.365L507.054 837.365L506.87 837.365L506.686 837.365L506.502 837.365L506.319 837.365L506.135 837.365L506.135 837.365L505.952 837.365L505.771 837.365L505.592 837.365L505.415 837.365L505.239 837.365L505.066 837.365L504.895 837.365L504.725 837.365L504.557 837.365L504.392 837.365L504.228 837.365L504.066 837.365L503.906 837.365L503.748 837.365L503.592 837.365L503.438 837.365L503.286 837.365L503.135 837.365L502.987 837.365L502.84 837.365L502.696 837.365L502.553 837.365L502.412 837.365L502.273 837.365L502.136 837.365L502.001 837.365L501.868 837.365L501.737 837.365L501.608 837.365L501.48 837.365L501.355 837.365L501.231 837.365L501.231 837.365L501.109 837.363L500.986 837.357L500.864 837.347L500.741 837.334L500.619 837.317L500.496 837.296L500.373 837.271L500.251 837.242L500.128 837.209L500.006 837.173L499.883 837.133L499.761 837.089L499.638 837.041L499.515 836.989L499.393 836.934L499.27 836.874L499.148 836.811L499.025 836.744L498.902 836.673L498.78 836.598L498.657 836.52L498.535 836.438L498.412 836.351L498.29 836.261L498.167 836.168L498.044 836.07L497.922 835.968L497.799 835.863L497.677 835.754L497.554 835.641L497.432 835.524L497.309 835.403L497.309 835.403L497.186 835.281L497.064 835.158L496.941 835.036L496.819 834.913L496.696 834.79L496.573 834.668L496.451 834.545L496.328 834.423L496.206 834.3L496.083 834.178L495.961 834.055L495.838 833.932L495.715 833.81L495.593 833.687L495.47 833.565L495.348 833.442L495.225 833.319L495.103 833.197L494.98 833.074L494.857 832.952L494.735 832.829L494.612 832.707L494.49 832.584L494.367 832.461L494.244 832.339L494.122 832.216L493.999 832.094L493.877 831.971L493.754 831.849L493.632 831.726L493.509 831.603L493.386 831.481L493.386 831.481L493.262 831.356L493.134 831.228L493.001 831.096L492.865 830.96L492.726 830.82L492.582 830.676L492.435 830.529L492.283 830.378L492.128 830.222L491.969 830.063L491.806 829.901L491.64 829.734L491.469 829.564L491.295 829.389L491.117 829.211L490.935 829.029L490.749 828.843L490.559 828.654L490.366 828.46L490.169 828.263L489.968 828.062L489.763 827.857L489.554 827.648L489.341 827.436L489.125 827.219L488.905 826.999L488.681 826.775L488.453 826.547L488.221 826.315L487.985 826.08L487.746 825.84L487.503 825.597L487.503 825.597L487.257 825.359L487.012 825.137L486.767 824.93L486.522 824.739L486.277 824.563L486.032 824.402L485.787 824.256L485.541 824.126L485.296 824.011L485.051 823.912L484.806 823.827L484.561 823.758L484.316 823.705L484.07 823.666L483.825 823.643L483.58 823.636L483.335 823.643L483.09 823.666L482.845 823.705L482.599 823.758L482.354 823.827L482.109 823.912L481.864 824.011L481.619 824.126L481.374 824.256L481.129 824.402L480.883 824.563L480.638 824.739L480.393 824.93L480.148 825.137L479.903 825.359L479.658 825.597L479.658 825.597L479.414 825.84L479.175 826.08L478.939 826.315L478.708 826.547L478.48 826.775L478.256 826.999L478.035 827.219L477.819 827.436L477.606 827.648L477.397 827.857L477.193 828.062L476.991 828.263L476.794 828.46L476.601 828.654L476.411 828.843L476.225 829.029L476.043 829.211L475.865 829.389L475.691 829.564L475.521 829.734L475.354 829.901L475.191 830.063L475.032 830.222L474.877 830.378L474.726 830.529L474.578 830.676L474.435 830.82L474.295 830.96L474.159 831.096L474.027 831.228L473.898 831.356L473.774 831.481L473.774 831.481L473.651 831.603L473.529 831.726L473.406 831.849L473.283 831.971L473.161 832.094L473.038 832.216L472.916 832.339L472.793 832.461L472.671 832.584L472.548 832.707L472.425 832.829L472.303 832.952L472.18 833.074L472.058 833.197L471.935 833.319L471.812 833.442L471.69 833.565L471.567 833.687L471.445 833.81L471.322 833.932L471.2 834.055L471.077 834.178L470.954 834.3L470.832 834.423L470.709 834.545L470.587 834.668L470.464 834.79L470.342 834.913L470.219 835.036L470.096 835.158L469.974 835.281L469.851 835.403L469.851 835.403L469.729 835.524L469.606 835.641L469.483 835.754L469.361 835.863L469.238 835.968L469.116 836.07L468.993 836.168L468.871 836.261L468.748 836.351L468.625 836.438L468.503 836.52L468.38 836.598L468.258 836.673L468.135 836.744L468.013 836.811L467.89 836.874L467.767 836.934L467.645 836.989L467.522 837.041L467.4 837.089L467.277 837.133L467.154 837.173L467.032 837.209L466.909 837.242L466.787 837.271L466.664 837.296L466.542 837.317L466.419 837.334L466.296 837.347L466.174 837.357L466.051 837.363L465.929 837.365L465.929 837.365L465.805 837.365L465.68 837.365L465.552 837.365L465.423 837.365L465.292 837.365L465.159 837.365L465.024 837.365L464.887 837.365L464.748 837.365L464.607 837.365L464.464 837.365L464.32 837.365L464.173 837.365L464.025 837.365L463.875 837.365L463.722 837.365L463.568 837.365L463.412 837.365L463.254 837.365L463.094 837.365L462.932 837.365L462.768 837.365L462.603 837.365L462.435 837.365L462.266 837.365L462.094 837.365L461.921 837.365L461.746 837.365L461.568 837.365L461.389 837.365L461.208 837.365L461.026 837.365L461.026 837.365L460.842 837.365L460.658 837.365L460.474 837.365L460.29 837.365L460.106 837.365L459.922 837.365L459.738 837.365L459.555 837.365L459.371 837.365L459.187 837.365L459.003 837.365L458.819 837.365L458.635 837.365L458.451 837.365L458.267 837.365L458.084 837.365L457.9 837.365L457.716 837.365L457.532 837.365L457.348 837.365L457.164 837.365L456.98 837.365L456.797 837.365L456.613 837.365L456.429 837.365L456.245 837.365L456.061 837.365L455.877 837.365L455.693 837.365L455.509 837.365L455.326 837.365L455.142 837.365L455.142 837.365L454.964 837.362L454.797 837.353L454.642 837.339L454.498 837.319L454.366 837.293L454.245 837.261L454.136 837.224L454.038 837.181L453.952 837.132L453.878 837.077L453.814 837.017L453.763 836.951L453.722 836.879L453.694 836.801L453.677 836.718L453.671 836.629L453.677 836.534L453.694 836.434L453.722 836.327L453.763 836.215L453.814 836.098L453.878 835.974L453.952 835.845L454.038 835.71L454.136 835.569L454.245 835.422L454.366 835.27L454.498 835.112L454.642 834.948L454.797 834.779L454.964 834.604L455.142 834.423L455.142 834.423L455.327 834.237L455.517 834.047L455.711 833.854L455.908 833.657L456.109 833.455L456.314 833.251L456.523 833.042L456.735 832.829L456.952 832.613L457.172 832.392L457.396 832.168L457.624 831.94L457.856 831.709L458.091 831.473L458.331 831.234L458.574 830.99L458.821 830.743L459.072 830.492L459.327 830.238L459.585 829.979L459.848 829.717L460.114 829.451L460.384 829.18L460.658 828.907L460.935 828.629L461.217 828.347L461.502 828.062L461.792 827.773L462.085 827.48L462.382 827.183L462.682 826.882L462.987 826.578L462.987 826.578L463.292 826.272L463.596 825.969L463.898 825.667L464.197 825.367L464.495 825.069L464.791 824.773L465.085 824.479L465.377 824.187L465.667 823.897L465.955 823.609L466.242 823.323L466.526 823.038L466.809 822.756L467.089 822.475L467.368 822.196L467.645 821.92L467.92 821.645L468.193 821.372L468.464 821.101L468.733 820.832L469 820.565L469.265 820.299L469.528 820.036L469.79 819.774L470.049 819.515L470.307 819.257L470.563 819.002L470.817 818.748L471.068 818.496L471.318 818.246L471.566 817.998L471.812 817.752L471.812 817.752L472.05 817.507L472.272 817.262L472.479 817.016L472.671 816.771L472.847 816.526L473.008 816.281L473.153 816.036L473.283 815.791L473.398 815.545L473.498 815.3L473.582 815.055L473.651 814.81L473.705 814.565L473.743 814.32L473.766 814.075L473.774 813.829L473.766 813.584L473.743 813.339L473.705 813.094L473.651 812.849L473.582 812.604L473.498 812.358L473.398 812.113L473.283 811.868L473.153 811.623L473.008 811.378L472.847 811.133L472.671 810.887L472.479 810.642L472.272 810.397L472.05 810.152L471.812 809.907L471.812 809.907L471.566 809.661L471.318 809.413L471.068 809.163L470.817 808.911L470.563 808.657L470.307 808.401L470.049 808.144L469.79 807.884L469.528 807.623L469.265 807.359L469 807.094L468.733 806.827L468.464 806.558L468.193 806.287L467.92 806.014L467.645 805.739L467.368 805.462L467.089 805.184L466.809 804.903L466.526 804.621L466.242 804.336L465.955 804.05L465.667 803.762L465.377 803.471L465.085 803.179L464.791 802.885L464.495 802.589L464.197 802.292L463.898 801.992L463.596 801.69L463.292 801.387L462.987 801.081L462.987 801.081L462.682 800.777L462.382 800.476L462.085 800.179L461.792 799.886L461.502 799.597L461.217 799.311L460.935 799.03L460.658 798.752L460.384 798.478L460.114 798.208L459.848 797.942L459.585 797.68L459.327 797.421L459.072 797.166L458.821 796.915L458.574 796.668L458.331 796.425L458.091 796.186L457.856 795.95L457.624 795.718L457.396 795.49L457.172 795.266L456.952 795.046L456.735 794.83L456.523 794.617L456.314 794.408L456.109 794.203L455.908 794.002L455.711 793.805L455.517 793.611L455.327 793.422L455.142 793.236L455.142 793.236L454.964 793.055L454.797 792.88L454.642 792.71L454.498 792.547L454.366 792.389L454.245 792.236L454.136 792.09L454.038 791.949L453.952 791.814L453.878 791.685L453.814 791.561L453.763 791.443L453.722 791.331L453.694 791.225L453.677 791.124L453.671 791.03L453.677 790.941L453.694 790.857L453.722 790.78L453.763 790.708L453.814 790.642L453.878 790.581L453.952 790.527L454.038 790.478L454.136 790.435L454.245 790.398L454.366 790.366L454.498 790.34L454.642 790.32L454.797 790.306L454.964 790.297L455.142 790.294L455.142 790.294L455.326 790.294L455.509 790.294L455.693 790.294L455.877 790.294L456.061 790.294L456.245 790.294L456.429 790.294L456.613 790.294L456.797 790.294L456.98 790.294L457.164 790.294L457.348 790.294L457.532 790.294L457.716 790.294L457.9 790.294L458.084 790.294L458.267 790.294L458.451 790.294L458.635 790.294L458.819 790.294L459.003 790.294L459.187 790.294L459.371 790.294L459.555 790.294L459.738 790.294L459.922 790.294L460.106 790.294L460.29 790.294L460.474 790.294L460.658 790.294L460.842 790.294L461.026 790.294L461.026 790.294L461.208 790.294L461.389 790.294L461.568 790.294L461.746 790.294L461.921 790.294L462.094 790.294L462.266 790.294L462.435 790.294L462.603 790.294L462.768 790.294L462.932 790.294L463.094 790.294L463.254 790.294L463.412 790.294L463.568 790.294L463.722 790.294L463.875 790.294L464.025 790.294L464.173 790.294L464.32 790.294L464.464 790.294L464.607 790.294L464.748 790.294L464.887 790.294L465.024 790.294L465.159 790.294L465.292 790.294L465.423 790.294L465.552 790.294L465.68 790.294L465.805 790.294L465.929 790.294L465.929 790.294L466.051 790.296L466.174 790.302L466.296 790.311L466.419 790.325L466.542 790.342L466.664 790.363L466.787 790.388L466.909 790.417L467.032 790.449L467.154 790.486L467.277 790.526L467.4 790.57L467.522 790.618L467.645 790.67L467.767 790.725L467.89 790.784L468.013 790.848L468.135 790.915L468.258 790.986L468.38 791.06L468.503 791.139L468.625 791.221L468.748 791.307L468.871 791.397L468.993 791.491L469.116 791.589L469.238 791.69L469.361 791.796L469.483 791.905L469.606 792.018L469.729 792.135L469.851 792.255L469.851 792.255L469.974 792.378L470.096 792.501L470.219 792.623L470.342 792.746L470.464 792.868L470.587 792.991L470.709 793.113L470.832 793.236L470.954 793.359L471.077 793.481L471.2 793.604L471.322 793.726L471.445 793.849L471.567 793.972L471.69 794.094L471.812 794.217L471.935 794.339L472.058 794.462L472.18 794.584L472.303 794.707L472.425 794.83L472.548 794.952L472.671 795.075L472.793 795.197L472.916 795.32L473.038 795.442L473.161 795.565L473.283 795.688L473.406 795.81L473.529 795.933L473.651 796.055L473.774 796.178L473.774 796.178L473.898 796.302L474.027 796.431L474.159 796.563L474.295 796.699L474.435 796.839L474.578 796.982L474.726 797.13L474.877 797.281L475.032 797.436L475.191 797.595L475.354 797.758L475.521 797.925L475.691 798.095L475.865 798.269L476.043 798.448L476.225 798.63L476.411 798.815L476.601 799.005L476.794 799.198L476.991 799.396L477.193 799.597L477.397 799.802L477.606 800.01L477.819 800.223L478.035 800.439L478.256 800.66L478.48 800.884L478.708 801.112L478.939 801.344L479.175 801.579L479.414 801.819L479.658 802.062L479.658 802.062L479.903 802.299L480.148 802.521L480.393 802.728L480.638 802.92L480.883 803.096L481.129 803.257L481.374 803.402L481.619 803.533L481.864 803.648L482.109 803.747L482.354 803.831L482.599 803.9L482.845 803.954L483.09 803.992L483.335 804.015L483.58 804.023L483.825 804.015L484.07 803.992L484.316 803.954L484.561 803.9L484.806 803.831L485.051 803.747L485.296 803.648L485.541 803.533L485.787 803.402L486.032 803.257L486.277 803.096L486.522 802.92L486.767 802.728L487.012 802.521L487.257 802.299L487.503 802.062L487.503 802.062L487.746 801.819L487.985 801.579L488.221 801.344L488.453 801.112L488.681 800.884L488.905 800.66L489.125 800.439L489.341 800.223L489.554 800.01L489.763 799.802L489.968 799.597L490.169 799.396L490.366 799.198L490.559 799.005L490.749 798.815L490.935 798.63L491.117 798.448L491.295 798.269L491.469 798.095L491.64 797.925L491.806 797.758L491.969 797.595L492.128 797.436L492.283 797.281L492.435 797.13L492.582 796.982L492.726 796.839L492.865 796.699L493.001 796.563L493.134 796.431L493.262 796.302L493.386 796.178L493.386 796.178L493.509 796.055L493.632 795.933L493.754 795.81L493.877 795.688L493.999 795.565L494.122 795.442L494.244 795.32L494.367 795.197L494.49 795.075L494.612 794.952L494.735 794.83L494.857 794.707L494.98 794.584L495.103 794.462L495.225 794.339L495.348 794.217L495.47 794.094L495.593 793.972L495.715 793.849L495.838 793.726L495.961 793.604L496.083 793.481L496.206 793.359L496.328 793.236L496.451 793.113L496.573 792.991L496.696 792.868L496.819 792.746L496.941 792.623L497.064 792.501L497.186 792.378L497.309 792.255L497.309 792.255L497.432 792.135L497.554 792.018L497.677 791.905L497.799 791.796L497.922 791.69L498.044 791.589L498.167 791.491L498.29 791.397L498.412 791.307L498.535 791.221L498.657 791.139L498.78 791.06L498.902 790.986L499.025 790.915L499.148 790.848L499.27 790.784L499.393 790.725L499.515 790.67L499.638 790.618L499.761 790.57L499.883 790.526L500.006 790.486L500.128 790.449L500.251 790.417L500.373 790.388L500.496 790.363L500.619 790.342L500.741 790.325L500.864 790.311L500.986 790.302L501.109 790.296L501.231 790.294L501.231 790.294L501.355 790.294L501.48 790.294L501.608 790.294L501.737 790.294L501.868 790.294L502.001 790.294L502.136 790.294L502.273 790.294L502.412 790.294L502.553 790.294L502.696 790.294L502.84 790.294L502.987 790.294L503.135 790.294L503.286 790.294L503.438 790.294L503.592 790.294L503.748 790.294L503.906 790.294L504.066 790.294L504.228 790.294L504.392 790.294L504.557 790.294L504.725 790.294L504.895 790.294L505.066 790.294L505.239 790.294L505.415 790.294L505.592 790.294L505.771 790.294L505.952 790.294L506.135 790.294L506.135 790.294L506.319 790.294L506.502 790.294L506.686 790.294L506.87 790.294L507.054 790.294L507.238 790.294L507.422 790.294L507.606 790.294L507.789 790.294L507.973 790.294L508.157 790.294L508.341 790.294L508.525 790.294L508.709 790.294L508.893 790.294L509.077 790.294L509.26 790.294L509.444 790.294L509.628 790.294L509.812 790.294L509.996 790.294L510.18 790.294L510.364 790.294L510.548 790.294L510.731 790.294L510.915 790.294L511.099 790.294L511.283 790.294L511.467 790.294L511.651 790.294L511.835 790.294L512.018 790.294L512.018 790.294L512.197 790.297L512.363 790.306L512.518 790.32L512.662 790.34L512.794 790.366L512.915 790.398L513.024 790.435L513.122 790.478L513.208 790.527L513.283 790.581L513.346 790.642L513.397 790.708L513.438 790.78L513.466 790.857L513.484 790.941L513.489 791.03L513.484 791.124L513.466 791.225L513.438 791.331L513.397 791.443L513.346 791.561L513.283 791.685L513.208 791.814L513.122 791.949L513.024 792.09L512.915 792.236L512.794 792.389L512.662 792.547L512.518 792.71L512.363 792.88L512.197 793.055L512.018 793.236L512.018 793.236L511.832 793.423L511.639 793.615L511.441 793.814L511.237 794.017L511.027 794.227L510.812 794.443L510.591 794.664L510.364 794.891L510.131 795.124L509.892 795.362L509.648 795.606L509.398 795.856L509.143 796.112L508.881 796.373L508.614 796.641L508.341 796.913L508.062 797.192L507.778 797.477L507.488 797.767L507.192 798.063L506.89 798.364L506.583 798.672L506.27 798.985L505.951 799.304L505.626 799.628L505.296 799.959L504.96 800.295L504.618 800.637L504.27 800.984L503.917 801.338L503.558 801.697L503.193 802.062"/>
<path class="l5" d="M1215.13 529.446L1219.06 529.446L1219.06 533.368L1215.13 533.368L1215.13 529.446z"/>
<path class="l5" d="M1215.13 576.516L1219.06 576.516L1219.06 580.439L1215.13 580.439L1215.13 576.516z"/>
<path class="l5" d="M1216.11 522.581L1218.07 522.581L1218.07 524.542L1216.11 524.542L1216.11 522.581z"/>
<path class="l5" d="M1183.75 396.079L1187.68 396.079L1187.68 400.002L1183.75 400.002L1183.75 396.079z"/>
<path class="l5" d="M1144.53 427.46L1148.45 427.46L1148.45 431.382L1144.53 431.382L1144.53 427.46z"/>
<path class="l5" d="M1144.53 474.53L1148.45 474.53L1148.45 478.453L1144.53 478.453L1144.53 474.53z"/>
<path class="l5" d="M1277.89 450.995L1281.82 450.995L1281.82 454.917L1277.89 454.917L1277.89 450.995z"/>
<path class="l5" d="M1144.53 450.995L1148.45 450.995L1148.45 454.917L1144.53 454.917L1144.53 450.995z"/>
<path class="l5" d="M1215.13 498.065L1219.06 498.065L1219.06 501.988L1215.13 501.988L1215.13 498.065z"/>
<path class="l5" d="M1183.75 505.91L1187.68 505.91L1187.68 509.833L1183.75 509.833L1183.75 505.91z"/>
<path class="l6" d="M687.552 813.829L1311.23 813.829"/>
<path class="l6" d="M385.517 813.829L436.51 813.829"/>
<path class="l15" d="M992.529 422.557L997.432 416.673"/>
<path class="l15" d="M989.587 429.421L992.529 422.557"/>
<path class="l15" d="M997.432 407.847L997.432 418.634"/>
<path class="l15" d="M995.471 416.673L1012.14 416.673"/>
<path class="l15" d="M999.393 413.731L1003.32 413.731"/>
<path class="l15" d="M1003.32 410.789L1003.32 413.731"/>
<path class="l15" d="M1003.32 410.789L1006.26 410.789"/>
<path class="l15" d="M1006.26 410.789L1006.26 413.731"/>
<path class="l15" d="M1006.26 413.731L1009.2 413.731"/>
<path class="l15" d="M1009.2 410.789L1009.2 413.731"/>
<path class="l15" d="M1009.2 410.789L1011.41 410.789"/>
<path class="l15" d="M1408.32 446.092L1413.22 440.208"/>
<path class="l15" d="M1405.38 452.956L1408.32 446.092"/>
<path class="l15" d="M1413.22 431.382L1413.22 442.169"/>
<path class="l15" d="M1411.26 440.208L1427.93 440.208"/>
<path class="l15" d="M1415.18 437.266L1419.1 437.266"/>
<path class="l15" d="M1419.1 434.324L1419.1 437.266"/>
<path class="l15" d="M1419.1 434.324L1422.05 434.324"/>
<path class="l15" d="M1422.05 434.324L1422.05 437.266"/>
<path class="l15" d="M1422.05 437.266L1424.99 437.266"/>
<path class="l15" d="M1424.99 434.324L1424.99 437.266"/>
<path class="l15" d="M1424.99 434.324L1427.19 434.324"/>
<path class="l1" d="M816.996 672.618L816.996 688.308"/>
<path class="l1" d="M816.996 609.858L816.996 625.548"/>
<path class="l1" d="M816.996 609.858L895.446 609.858"/>
<path class="l1" d="M699.319 656.928L699.319 672.618"/>
<path class="l1" d="M699.319 311.745L699.319 609.858"/>
<path class="l1" d="M895.446 429.421L895.446 500.027"/>
<path class="l1" d="M895.446 429.421L1146.49 429.421"/>
<path class="l1" d="M895.446 547.097L895.446 609.858"/>
<path class="l1" d="M1107.26 311.745L1107.26 327.435"/>
<path class="l1" d="M1107.26 374.505L1107.26 452.956"/>
<path class="l1" d="M1107.26 452.956L1146.49 452.956"/>
<path class="l1" d="M699.319 311.745L1107.26 311.745"/>
<path class="l1" d="M1499.52 531.407L1499.52 609.858"/>
<path class="l1" d="M1436.76 452.956L1499.52 452.956"/>
<path class="l1" d="M1499.52 452.956L1499.52 484.336"/>
<path class="l1" d="M1436.76 452.956L1436.76 539.252"/>
<path class="l1" d="M1083.73 476.491L1146.49 476.491"/>
<path class="l1" d="M1083.73 476.491L1083.73 539.252"/>
<path class="l1" d="M1083.73 539.252L1436.76 539.252"/>
<path class="l1" d="M1217.09 609.858L1499.52 609.858"/>
<path class="l1" d="M1279.85 452.956L1436.76 452.956"/>
<path class="l1" d="M1185.71 311.745L1185.71 398.041"/>
<path class="l1" d="M1107.26 311.745L1185.71 311.745"/>
<path class="l1" d="M1185.71 609.858L1217.09 609.858"/>
<path class="l1" d="M1217.09 500.027L1217.09 531.407"/>
<path class="l1" d="M1217.09 578.477L1217.09 609.858"/>
<path class="l1" d="M1185.71 507.872L1185.71 609.858"/>
<path class="l1" d="M895.446 609.858L1185.71 609.858"/>
<circle class="l1" cx="1107.26" cy="311.745" r="2.90268"/>
<circle class="l1" cx="895.446" cy="609.858" r="2.90268"/>
<circle class="l1" cx="1185.71" cy="609.858" r="2.90268"/>
<circle class="l1" cx="895.446" cy="609.858" r="2.90268"/>
<circle class="l1" cx="895.446" cy="609.858" r="2.90268"/>
<circle class="l1" cx="1107.26" cy="311.745" r="2.90268"/>
<circle class="l1" cx="1107.26" cy="311.745" r="2.90268"/>
<circle class="l1" cx="1185.71" cy="609.858" r="2.90268"/>
<circle class="l1" cx="1217.09" cy="609.858" r="2.90268"/>
<circle class="l1" cx="1185.71" cy="609.858" r="2.90268"/>
<circle class="l1" cx="1217.09" cy="609.858" r="2.90268"/>
<circle class="l1" cx="1436.76" cy="452.956" r="2.90268"/>
<circle class="l1" cx="1217.09" cy="609.858" r="2.90268"/>
<circle class="l1" cx="1436.76" cy="452.956" r="2.90268"/>
<circle class="l1" cx="1436.76" cy="452.956" r="2.90268"/>
</svg>
