<?xml version="1.0" standalone="yes"?>
<!DOCTYPE svg PUBLIC "-//W3C//DTD SVG 1.1//EN"
 "http://www.w3.org/Graphics/SVG/1.1/DTD/svg11.dtd">
<svg xmlns="http://www.w3.org/2000/svg" version="1.1"
  width="100%" height="100%" viewBox="0 0 1024 768"
  style="fill: none; font-family: Helvetica;
 font: Helvetica;
">

<!-- Creator: NGspice -->

<rect x="0" y="0" width="1024" height="768" fill="black" stroke="none"/>
<text stroke="none" fill="white" font-size="16" x="358" y="752">
frequency
</text>
<text transform="rotate(-90, 20, 409)"  stroke="none" fill="white" font-size="16" x="20" y="409">
Phase
</text>
<text stroke="none" fill="white" font-size="16" x="10" y="16">
ac1: ** sch_path: /foss/designs/thesis/workspace/thesis_hp/designs/otas/tb_foldedcascode_nmos_loopgain.sch
</text>
<path stroke="white" d="M95 720l0 -672"/>
<text stroke="none" fill="white" font-size="16" x="90" y="728">
1
</text>
<path stroke="white" stroke-dasharray="1,2" d="M137 720l0 -672M150 720l0 -672M159 720l0 -672"/>
<path stroke="white" d="M166 720l0 -672"/>
<text stroke="none" fill="white" font-size="16" x="156" y="728">
10
</text>
<path stroke="white" stroke-dasharray="1,2" d="M208 720l0 -672M221 720l0 -672M230 720l0 -672"/>
<path stroke="white" d="M237 720l0 -672"/>
<text stroke="none" fill="white" font-size="16" x="222" y="728">
100
</text>
<path stroke="white" stroke-dasharray="1,2" d="M279 720l0 -672M292 720l0 -672M301 720l0 -672"/>
<path stroke="white" d="M308 720l0 -672"/>
<text stroke="none" fill="white" font-size="16" x="288" y="728">
10^3
</text>
<path stroke="white" stroke-dasharray="1,2" d="M350 720l0 -672M363 720l0 -672M372 720l0 -672"/>
<path stroke="white" d="M379 720l0 -672"/>
<text stroke="none" fill="white" font-size="16" x="359" y="728">
10^4
</text>
<path stroke="white" stroke-dasharray="1,2" d="M421 720l0 -672M434 720l0 -672M443 720l0 -672"/>
<path stroke="white" d="M450 720l0 -672"/>
<text stroke="none" fill="white" font-size="16" x="430" y="728">
10^5
</text>
<path stroke="white" stroke-dasharray="1,2" d="M492 720l0 -672M505 720l0 -672M514 720l0 -672"/>
<path stroke="white" d="M521 720l0 -672"/>
<text stroke="none" fill="white" font-size="16" x="501" y="728">
10^6
</text>
<path stroke="white" stroke-dasharray="1,2" d="M563 720l0 -672M576 720l0 -672M585 720l0 -672"/>
<path stroke="white" d="M592 720l0 -672"/>
<text stroke="none" fill="white" font-size="16" x="572" y="728">
10^7
</text>
<path stroke="white" stroke-dasharray="1,2" d="M634 720l0 -672M647 720l0 -672M656 720l0 -672"/>
<path stroke="white" d="M663 720l0 -672"/>
<text stroke="none" fill="white" font-size="16" x="643" y="728">
10^8
</text>
<path stroke="white" stroke-dasharray="1,2" d="M705 720l0 -672M718 720l0 -672M727 720l0 -672"/>
<path stroke="white" d="M734 720l0 -672"/>
<text stroke="none" fill="white" font-size="16" x="714" y="728">
10^9
</text>
<path stroke="white" stroke-dasharray="1,2" d="M776 720l0 -672M789 720l0 -672M798 720l0 -672"/>
<path stroke="white" d="M805 720l0 -672"/>
<text stroke="none" fill="white" font-size="16" x="780" y="728">
10^10
</text>
<path stroke="white" stroke-dasharray="1,2" d="M847 720l0 -672M860 720l0 -672M869 720l0 -672"/>
<path stroke="white" d="M876 720l0 -672"/>
<text stroke="none" fill="white" font-size="16" x="851" y="728">
10^11
</text>
<path stroke="white" stroke-dasharray="1,2" d="M918 720l0 -672M931 720l0 -672M940 720l0 -672"/>
<path stroke="white" d="M947 720l0 -672"/>
<text stroke="none" fill="white" font-size="16" x="922" y="728">
10^12
</text>
<text stroke="none" fill="white" font-size="16" x="614" y="752">
Hz
</text>
<path stroke="white" stroke-dasharray="1,2" d="M95 720l852 0"/>
<text stroke="none" fill="white" font-size="16" x="33" y="728">
-400.0
</text>
<path stroke="white" stroke-dasharray="1,2" d="M95 636l852 0"/>
<text stroke="none" fill="white" font-size="16" x="33" y="644">
-350.0
</text>
<path stroke="white" stroke-dasharray="1,2" d="M95 552l852 0"/>
<text stroke="none" fill="white" font-size="16" x="33" y="560">
-300.0
</text>
<path stroke="white" stroke-dasharray="1,2" d="M95 468l852 0"/>
<text stroke="none" fill="white" font-size="16" x="33" y="476">
-250.0
</text>
<path stroke="white" stroke-dasharray="1,2" d="M95 384l852 0"/>
<text stroke="none" fill="white" font-size="16" x="33" y="392">
-200.0
</text>
<path stroke="white" stroke-dasharray="1,2" d="M95 300l852 0"/>
<text stroke="none" fill="white" font-size="16" x="33" y="308">
-150.0
</text>
<path stroke="white" stroke-dasharray="1,2" d="M95 216l852 0"/>
<text stroke="none" fill="white" font-size="16" x="33" y="224">
-100.0
</text>
<path stroke="white" stroke-dasharray="1,2" d="M95 132l852 0"/>
<text stroke="none" fill="white" font-size="16" x="43" y="140">
-50.0
</text>
<path stroke="white" d="M95 48l852 0"/>
<text stroke="none" fill="white" font-size="16" x="63" y="56">
0.0
</text>
<text stroke="none" fill="white" font-size="16" x="10" y="32">
     
</text>
<path stroke="red" d="M426 23l42 0"/>
<text stroke="none" fill="white" font-size="16" x="478" y="32">
180/pi*cphase(tmb)
</text>
<path stroke="red" d="M95 48l165 0 1 1 33 0 1 1 14 0 1 1 10 0 1 1 7 0M328 53l0 -1M328 53l6 0 1 1 4 0 1 1 4 0 1 1 2 0 1 1 3 0 1 1 2 0 1 1 2 0 1 1 1 0 1 1 2 0 1 1 1 0 1 1 1 0 1 1 1 0 1 1 1 0 1 1 1 0 2 2 1 0M375 69l0 -1M375 69l2 0 2 2 1 0M380 72l0 -1"/>
<path stroke="red" d="M380 72l1 1 1 0 2 2 1 0M385 76l0 -1M385 76l1 1 1 0M387 78l0 -1M387 78l1 0 4 4M392 83l0 -1M392 83l1 0 1 1M394 85l0 -1M394 85l1 1 1 0 1 1M397 88l0 -1M397 88l4 4M401 93l0 -1M401 93l3 3M404 97l0 -1M404 97l1 1 1 0M406 99l0 -1"/>
<path stroke="red" d="M406 99l3 3M409 103l0 -1M409 103l2 2M411 106l0 -1M411 106l2 2M413 110l0 -2M413 110l3 3M416 114l0 -1M416 114l2 2M418 117l0 -1M418 117l2 2M420 120l0 -1M420 120l2 2 1 2M423 125l0 -1M423 125l2 2M425 128l0 -1M425 128l3 3M428 132l0 -1"/>
<path stroke="red" d="M428 132l2 2M430 136l0 -2M430 136l2 2M432 139l0 -1M432 139l3 3M435 143l0 -1M435 143l2 2M437 146l0 -1M437 146l2 2M439 149l0 -1M439 149l5 5M444 155l0 -1M444 155l2 2M446 158l0 -1M446 158l1 1 1 0 1 1M449 161l0 -1M449 161l1 1"/>
<path stroke="red" d="M450 162l1 0M451 163l0 -1M451 163l2 2 1 0M454 166l0 -1M454 166l1 1 1 0M456 168l0 -1M456 168l1 1 1 0M458 170l0 -1M458 170l1 1 1 0 4 4 1 0M465 176l0 -1M465 176l1 0 1 1 1 0M468 178l0 -1M468 178l1 0 2 2 1 0 1 1 1 0 1 1 1 0 2 2"/>
<path stroke="red" d="M478 184l2 0M480 185l0 -1M480 185l2 0M482 186l0 -1M482 186l2 0 1 1 2 0M487 188l0 -1M487 188l2 0 1 1 2 0 1 1 3 0M496 191l0 -1M496 191l3 0 1 1 3 0 1 1 4 0M508 194l0 -1M508 194l5 0M513 195l0 -1M513 195l6 0 1 1 7 0M527 197l0 -1"/>
<path stroke="red" d="M527 197l8 0 1 1 9 0 1 1 10 0 1 1 10 0M567 201l0 -1M567 201l9 0 1 1 7 0M584 203l0 -1M584 203l7 0M591 204l0 -1M591 204l5 0M596 205l0 -1M596 205l4 0 1 1 4 0M605 207l0 -1M605 207l4 0 1 1 2 0M612 209l0 -1M612 209l3 0 1 1 2 0"/>
<path stroke="red" d="M618 210l1 1 1 0 1 1 2 0 1 1 1 0 1 1 1 0 1 1 1 0 1 1 1 0M631 217l0 -1M631 217l2 0M633 218l0 -1M633 218l1 0 1 1 1 0M636 220l0 -1M636 220l1 0 2 2 1 0 2 2 1 0M643 225l0 -1M643 225l1 0 1 1M645 227l0 -1M645 227l1 0 1 1 1 0M648 229l0 -1"/>
<path stroke="red" d="M648 229l1 1 1 0M650 231l0 -1M650 231l5 5M655 237l0 -1M655 237l1 0 1 1M657 239l0 -1M657 239l2 2M659 242l0 -1M659 242l3 3M662 246l0 -1M662 246l2 2M664 249l0 -1M664 249l3 3M667 253l0 -1M667 253l1 2 1 1M669 257l0 -1M669 257l1 1"/>
<path stroke="red" d="M670 258l1 2M671 261l0 -1M671 261l1 1 1 2 1 1M674 266l0 -1M674 266l1 2 1 1M676 271l0 -2M676 271l1 1 1 2M678 275l0 -1M678 275l2 4 1 1M681 282l0 -2M681 282l1 2 1 1M683 287l0 -2M683 287l2 4M685 292l0 -1M685 292l3 6M688 300l0 -2"/>
<path stroke="red" d="M688 300l2 4M690 306l0 -2M690 306l3 6M693 314l0 -2M693 314l2 4M695 320l0 -2M695 320l2 4M697 326l0 -2M697 326l3 6M700 335l0 -3M700 335l2 4M702 341l0 -2M702 341l2 4M704 347l0 -2M704 347l3 6M707 356l0 -3M707 356l2 4M709 362l0 -2"/>
<path stroke="red" d="M709 362l3 6M712 370l0 -2M712 370l2 4M714 376l0 -2M714 376l2 4M716 382l0 -2M716 382l1 1 2 4M719 389l0 -2M719 389l2 4M721 395l0 -2M721 395l1 2 1 1M723 400l0 -2M723 400l3 6M726 408l0 -2M726 408l2 4M728 413l0 -1M728 413l2 4"/>
<path stroke="red" d="M730 419l0 -2M730 419l3 6M733 427l0 -2M733 427l2 4M735 433l0 -2M735 433l3 6M738 441l0 -2M738 441l1 3 1 2M740 448l0 -2M740 448l2 4M742 455l0 -3M742 455l3 6M745 464l0 -3M745 464l2 4M747 471l0 -3M747 471l2 4M749 478l0 -3M749 478l1 2"/>
<path stroke="red" d="M750 480l1 3 1 2M752 487l0 -2M752 487l1 3 1 2M754 495l0 -3M754 495l2 4M756 502l0 -3M756 502l2 4 1 3M759 511l0 -2M759 511l1 3 1 2M761 518l0 -2M761 518l1 2 1 3 1 2M764 527l0 -2M764 527l1 2 1 3M766 534l0 -2M766 534l2 4M768 540l0 -2"/>
<path stroke="red" d="M768 540l3 6M771 548l0 -2M771 548l2 4M773 554l0 -2M773 554l2 4M775 560l0 -2M775 560l2 4 1 1M778 567l0 -2M778 567l2 4M780 572l0 -1M780 572l2 4 1 1M783 579l0 -2M783 579l1 1 1 2M785 583l0 -1M785 583l1 2 1 1M787 588l0 -2M787 588l2 2"/>
<path stroke="red" d="M789 590l1 2M790 593l0 -1M790 593l1 1 1 2M792 597l0 -1M792 597l2 2M794 600l0 -1M794 600l1 2 2 2M797 605l0 -1M797 605l2 2M799 608l0 -1M799 608l2 2M801 611l0 -1M801 611l3 3M804 615l0 -1M804 615l1 0 1 1M806 617l0 -1M806 617l2 2"/>
<path stroke="red" d="M808 619l1 0M809 620l0 -1M809 620l6 6 1 0M816 627l0 -1M816 627l1 1 1 0M818 629l0 -1M818 629l1 0 2 2 1 0 2 2 1 0M825 634l0 -1M825 634l1 0 2 2 1 0 1 1 1 0 2 2 2 0M835 640l0 -1M835 640l2 0M837 641l0 -1M837 641l2 0M839 642l0 -1"/>
<path stroke="red" d="M839 642l2 0 1 1 2 0M844 644l0 -1M844 644l2 0 1 1 2 0M849 646l0 -1M849 646l3 0 1 1 2 0 1 1 2 0 1 1 3 0 1 1 2 0 1 1 3 0 1 1 2 0 1 1 3 0"/>
<path stroke="blue" d="M95 23l42 0"/>
<text stroke="none" fill="white" font-size="16" x="147" y="32">
180/pi*cphase(ttian)
</text>
<path stroke="blue" d="M95 48l165 0 1 1 33 0 1 1 14 0 1 1 10 0 1 1 7 0M328 53l0 -1M328 53l6 0 1 1 4 0 1 1 4 0 1 1 2 0 1 1 3 0 1 1 2 0M354 59l0 -1M354 59l3 0 1 1 1 0 1 1 2 0 1 1 1 0 1 1 1 0 1 1 1 0 1 1 1 0 1 1 1 0 2 2 1 0M375 69l0 -1M375 69l1 0"/>
<path stroke="blue" d="M376 69l1 1 1 0 1 1 1 0M380 72l0 -1M380 72l1 1 1 0 2 2 1 0M385 76l0 -1M385 76l1 1 1 0M387 78l0 -1M387 78l1 0 4 4M392 83l0 -1M392 83l1 0 1 1M394 85l0 -1M394 85l1 1 1 0 1 1M397 88l0 -1M397 88l4 4M401 93l0 -1M401 93l3 3M404 97l0 -1"/>
<path stroke="blue" d="M404 97l1 1 1 0M406 99l0 -1M406 99l3 3M409 103l0 -1M409 103l2 2M411 106l0 -1M411 106l2 2M413 110l0 -2M413 110l3 3M416 114l0 -1M416 114l2 2M418 117l0 -1M418 117l2 2M420 120l0 -1M420 120l1 1 1 2 1 1M423 125l0 -1M423 125l2 2"/>
<path stroke="blue" d="M425 128l0 -1M425 128l3 3M428 132l0 -1M428 132l2 2M430 136l0 -2M430 136l2 2M432 139l0 -1M432 139l3 3M435 143l0 -1M435 143l2 2M437 146l0 -1M437 146l2 2M439 149l0 -1M439 149l5 5M444 155l0 -1M444 155l2 2M446 158l0 -1M446 158l1 1"/>
<path stroke="blue" d="M447 159l1 0 1 1M449 161l0 -1M449 161l1 1 1 0M451 163l0 -1M451 163l2 2 1 0M454 166l0 -1M454 166l1 1 1 0M456 168l0 -1M456 168l1 1 1 0M458 170l0 -1M458 170l1 1 1 0 1 1M461 173l0 -1M461 173l1 0 2 2 1 0M465 176l0 -1M465 176l1 0"/>
<path stroke="blue" d="M466 176l1 1 1 0M468 178l0 -1M468 178l1 0 2 2 1 0 1 1 1 0 1 1 1 0 2 2 2 0M480 185l0 -1M480 185l2 0M482 186l0 -1M482 186l2 0 1 1 2 0M487 188l0 -1M487 188l2 0 1 1 2 0 1 1 3 0M496 191l0 -1M496 191l3 0 1 1 3 0 1 1 4 0M508 194l0 -1"/>
<path stroke="blue" d="M508 194l5 0M513 195l0 -1M513 195l6 0 1 1 7 0M527 197l0 -1M527 197l8 0 1 1 9 0 1 1 10 0 1 1 10 0M567 201l0 -1M567 201l9 0 1 1 7 0M584 203l0 -1M584 203l7 0M591 204l0 -1M591 204l5 0M596 205l0 -1M596 205l4 0 1 1 4 0M605 207l0 -1"/>
<path stroke="blue" d="M605 207l4 0 1 1 2 0M612 209l0 -1M612 209l3 0 1 1 2 0 1 1 1 0 1 1 2 0 1 1 1 0 1 1 1 0 1 1 1 0 1 1 1 0M631 217l0 -1M631 217l2 0M633 218l0 -1M633 218l1 0 1 1 1 0M636 220l0 -1M636 220l1 0 2 2 1 0 2 2 1 0M643 225l0 -1M643 225l1 0"/>
<path stroke="blue" d="M644 225l1 1M645 227l0 -1M645 227l1 0 1 1 1 0M648 229l0 -1M648 229l1 1 1 0M650 231l0 -1M650 231l5 5M655 237l0 -1M655 237l1 0 1 1M657 239l0 -1M657 239l2 2M659 242l0 -1M659 242l3 3M662 246l0 -1M662 246l2 2M664 249l0 -1M664 249l3 3"/>
<path stroke="blue" d="M667 253l0 -1M667 253l1 2 1 1M669 257l0 -1M669 257l1 1 1 2M671 261l0 -1M671 261l1 1 1 2 1 1M674 266l0 -1M674 266l1 2 1 1M676 271l0 -2M676 271l1 1 1 2M678 275l0 -1M678 275l2 4 1 1M681 282l0 -2M681 282l1 2 1 1M683 287l0 -2"/>
<path stroke="blue" d="M683 287l2 4M685 292l0 -1M685 292l3 6M688 300l0 -2M688 300l2 4M690 306l0 -2M690 306l3 6M693 314l0 -2M693 314l2 4M695 320l0 -2M695 320l2 4M697 326l0 -2M697 326l3 6M700 335l0 -3M700 335l2 4M702 341l0 -2M702 341l2 4M704 347l0 -2"/>
<path stroke="blue" d="M704 347l3 6M707 356l0 -3M707 356l2 4M709 362l0 -2M709 362l3 6M712 370l0 -2M712 370l2 4M714 376l0 -2M714 376l2 4M716 382l0 -2M716 382l1 1 2 4M719 389l0 -2M719 389l2 4M721 395l0 -2M721 395l1 1 1 2M723 400l0 -2M723 400l3 6"/>
<path stroke="blue" d="M726 408l0 -2M726 408l1 1 1 2M728 413l0 -2M728 413l2 4M730 419l0 -2M730 419l2 4 1 1M733 426l0 -2M733 426l2 4M735 432l0 -2M735 432l2 4 1 3M738 441l0 -2M738 441l2 4M740 447l0 -2M740 447l2 4M742 454l0 -3M742 454l3 6M745 463l0 -3"/>
<path stroke="blue" d="M745 463l2 4M747 469l0 -2M747 469l1 3 1 2M749 476l0 -2M749 476l1 3 2 4M752 486l0 -3M752 486l2 4M754 493l0 -3M754 493l1 2 1 3M756 500l0 -2M756 500l1 2 1 3 1 2M759 509l0 -2M759 509l1 3 1 2M761 516l0 -2M761 516l1 2 1 3 1 2"/>
<path stroke="blue" d="M764 525l0 -2M764 525l1 2 1 3M766 532l0 -2M766 532l2 4M768 538l0 -2M768 538l3 6M771 546l0 -2M771 546l2 4M773 552l0 -2M773 552l2 4M775 558l0 -2M775 558l2 4 1 1M778 565l0 -2M778 565l2 4M780 570l0 -1M780 570l2 4 1 1M783 577l0 -2"/>
<path stroke="blue" d="M783 577l1 2 1 1M785 582l0 -2M785 582l1 1 1 2M787 586l0 -1M787 586l1 1 1 2 1 1M790 591l0 -1M790 591l1 2 1 1M792 595l0 -1M792 595l1 2 1 1M794 599l0 -1M794 599l3 3M797 604l0 -2M797 604l2 2M799 607l0 -1M799 607l2 2M801 610l0 -1"/>
<path stroke="blue" d="M801 610l5 5M806 616l0 -1M806 616l2 2 1 0M809 619l0 -1M809 619l2 2M811 622l0 -1M811 622l1 0 1 1M813 624l0 -1M813 624l1 0 3 3 1 0M818 628l0 -1M818 628l1 1 1 0M820 630l0 -1M820 630l1 0 1 1 1 0M823 632l0 -1M823 632l1 0 2 2"/>
<path stroke="blue" d="M826 634l1 0M827 635l0 -1M827 635l1 0 1 1 1 0 1 1 1 0M832 638l0 -1M832 638l2 0 2 2 1 0 1 1 1 0 1 1 2 0 1 1 1 0 1 1 2 0 1 1 1 0 1 1 3 0 1 1 2 0M856 648l0 -1M856 648l2 0 1 1 3 0 1 1 2 0 1 1 3 0 1 1 3 0 1 1 2 0"/>
</svg>
