<?xml version="1.0" standalone="yes"?>
<!DOCTYPE svg PUBLIC "-//W3C//DTD SVG 1.1//EN"
 "http://www.w3.org/Graphics/SVG/1.1/DTD/svg11.dtd">
<svg xmlns="http://www.w3.org/2000/svg" version="1.1"
  width="100%" height="100%" viewBox="0 0 1024 768"
  style="fill: none; font-family: Helvetica;
 font: Helvetica;
">

<!-- Creator: NGspice -->

<rect x="0" y="0" width="1024" height="768" fill="black" stroke="none"/>
<text stroke="none" fill="white" font-size="16" x="358" y="752">
frequency
</text>
<text transform="rotate(-90, 20, 429)"  stroke="none" fill="white" font-size="16" x="20" y="429">
Magnitude
</text>
<text stroke="none" fill="white" font-size="16" x="10" y="16">
ac1: ** sch_path: /foss/designs/thesis/workspace/thesis_hp/designs/otas/tb_foldedcascode_nmos_loopgain.sch
</text>
<path stroke="white" d="M85 720l0 -671"/>
<text stroke="none" fill="white" font-size="16" x="80" y="728">
1
</text>
<path stroke="white" stroke-dasharray="1,2" d="M128 720l0 -671M141 720l0 -671M150 720l0 -671"/>
<path stroke="white" d="M158 720l0 -671"/>
<text stroke="none" fill="white" font-size="16" x="148" y="728">
10
</text>
<path stroke="white" stroke-dasharray="1,2" d="M201 720l0 -671M214 720l0 -671M223 720l0 -671"/>
<path stroke="white" d="M231 720l0 -671"/>
<text stroke="none" fill="white" font-size="16" x="216" y="728">
100
</text>
<path stroke="white" stroke-dasharray="1,2" d="M274 720l0 -671M287 720l0 -671M296 720l0 -671"/>
<path stroke="white" d="M304 720l0 -671"/>
<text stroke="none" fill="white" font-size="16" x="284" y="728">
10^3
</text>
<path stroke="white" stroke-dasharray="1,2" d="M347 720l0 -671M360 720l0 -671M369 720l0 -671"/>
<path stroke="white" d="M377 720l0 -671"/>
<text stroke="none" fill="white" font-size="16" x="357" y="728">
10^4
</text>
<path stroke="white" stroke-dasharray="1,2" d="M420 720l0 -671M433 720l0 -671M442 720l0 -671"/>
<path stroke="white" d="M450 720l0 -671"/>
<text stroke="none" fill="white" font-size="16" x="430" y="728">
10^5
</text>
<path stroke="white" stroke-dasharray="1,2" d="M493 720l0 -671M506 720l0 -671M515 720l0 -671"/>
<path stroke="white" d="M523 720l0 -671"/>
<text stroke="none" fill="white" font-size="16" x="503" y="728">
10^6
</text>
<path stroke="white" stroke-dasharray="1,2" d="M566 720l0 -671M579 720l0 -671M588 720l0 -671"/>
<path stroke="white" d="M596 720l0 -671"/>
<text stroke="none" fill="white" font-size="16" x="576" y="728">
10^7
</text>
<path stroke="white" stroke-dasharray="1,2" d="M639 720l0 -671M652 720l0 -671M661 720l0 -671"/>
<path stroke="white" d="M669 720l0 -671"/>
<text stroke="none" fill="white" font-size="16" x="649" y="728">
10^8
</text>
<path stroke="white" stroke-dasharray="1,2" d="M712 720l0 -671M725 720l0 -671M734 720l0 -671"/>
<path stroke="white" d="M742 720l0 -671"/>
<text stroke="none" fill="white" font-size="16" x="722" y="728">
10^9
</text>
<path stroke="white" stroke-dasharray="1,2" d="M785 720l0 -671M798 720l0 -671M807 720l0 -671"/>
<path stroke="white" d="M815 720l0 -671"/>
<text stroke="none" fill="white" font-size="16" x="790" y="728">
10^10
</text>
<path stroke="white" stroke-dasharray="1,2" d="M858 720l0 -671M871 720l0 -671M880 720l0 -671"/>
<path stroke="white" d="M888 720l0 -671"/>
<text stroke="none" fill="white" font-size="16" x="863" y="728">
10^11
</text>
<path stroke="white" stroke-dasharray="1,2" d="M931 720l0 -671M944 720l0 -671M953 720l0 -671"/>
<path stroke="white" d="M961 720l0 -671"/>
<text stroke="none" fill="white" font-size="16" x="936" y="728">
10^12
</text>
<text stroke="none" fill="white" font-size="16" x="614" y="752">
Hz
</text>
<path stroke="white" stroke-dasharray="1,2" d="M85 720l876 0"/>
<text stroke="none" fill="white" font-size="16" x="33" y="728">
-70.0
</text>
<path stroke="white" stroke-dasharray="1,2" d="M85 659l876 0"/>
<text stroke="none" fill="white" font-size="16" x="33" y="667">
-60.0
</text>
<path stroke="white" stroke-dasharray="1,2" d="M85 598l876 0"/>
<text stroke="none" fill="white" font-size="16" x="33" y="606">
-50.0
</text>
<path stroke="white" stroke-dasharray="1,2" d="M85 537l876 0"/>
<text stroke="none" fill="white" font-size="16" x="33" y="545">
-40.0
</text>
<path stroke="white" stroke-dasharray="1,2" d="M85 476l876 0"/>
<text stroke="none" fill="white" font-size="16" x="33" y="484">
-30.0
</text>
<path stroke="white" stroke-dasharray="1,2" d="M85 415l876 0"/>
<text stroke="none" fill="white" font-size="16" x="33" y="423">
-20.0
</text>
<path stroke="white" stroke-dasharray="1,2" d="M85 354l876 0"/>
<text stroke="none" fill="white" font-size="16" x="33" y="362">
-10.0
</text>
<path stroke="white" d="M85 293l876 0"/>
<text stroke="none" fill="white" font-size="16" x="53" y="301">
0.0
</text>
<path stroke="white" stroke-dasharray="1,2" d="M85 232l876 0"/>
<text stroke="none" fill="white" font-size="16" x="43" y="240">
10.0
</text>
<path stroke="white" stroke-dasharray="1,2" d="M85 171l876 0"/>
<text stroke="none" fill="white" font-size="16" x="43" y="179">
20.0
</text>
<path stroke="white" stroke-dasharray="1,2" d="M85 110l876 0"/>
<text stroke="none" fill="white" font-size="16" x="43" y="118">
30.0
</text>
<path stroke="white" stroke-dasharray="1,2" d="M85 49l876 0"/>
<text stroke="none" fill="white" font-size="16" x="43" y="57">
40.0
</text>
<text stroke="none" fill="white" font-size="16" x="10" y="32">
dB
</text>
<path stroke="red" d="M438 23l43 0"/>
<text stroke="none" fill="white" font-size="16" x="491" y="32">
db(tmb)
</text>
<path stroke="red" d="M85 67l312 0M397 68l0 -1M397 68l15 0M412 69l0 -1M412 69l8 0M420 70l0 -1M420 70l5 0M425 71l0 -1M425 71l4 0 1 1 3 0M433 73l0 -1M433 73l3 0M436 74l0 -1M436 74l2 0M438 75l0 -1M438 75l3 0M441 76l0 -1M441 76l1 0 1 1 1 0 1 1 1 0"/>
<path stroke="red" d="M446 79l0 -1M446 79l2 0 2 2 1 0M451 82l0 -1M451 82l1 0 1 1 1 0M454 84l0 -1M454 84l1 1 1 0 5 5 1 0M462 91l0 -1M462 91l5 5M467 97l0 -1M467 97l1 0 2 2M470 100l0 -1M470 100l2 2M472 103l0 -1M472 103l1 0 2 2M475 106l0 -1M475 106l2 2"/>
<path stroke="red" d="M477 109l0 -1M477 109l3 3M480 113l0 -1M480 113l3 3M483 117l0 -1M483 117l2 2M485 120l0 -1M485 120l3 3M488 124l0 -1M488 124l1 1 1 2M490 128l0 -1M490 128l3 3M493 132l0 -1M493 132l3 3M496 136l0 -1M496 136l1 2 1 1M498 140l0 -1"/>
<path stroke="red" d="M498 140l3 3M501 144l0 -1M501 144l1 2 1 1M503 148l0 -1M503 148l3 3M506 152l0 -1M506 152l1 2 2 2M509 157l0 -1M509 157l2 2M511 161l0 -2M511 161l3 3M514 165l0 -1M514 165l1 1 1 2M516 169l0 -1M516 169l3 3M519 174l0 -2M519 174l3 3"/>
<path stroke="red" d="M522 178l0 -1M522 178l1 2 1 1M524 182l0 -1M524 182l3 3M527 187l0 -2M527 187l3 3M530 191l0 -1M530 191l1 2 1 1M532 195l0 -1M532 195l2 2 1 2M535 200l0 -1M535 200l2 2M537 203l0 -1M537 203l1 2 2 2M540 208l0 -1M540 208l1 1 1 2"/>
<path stroke="red" d="M542 211l1 1M543 213l0 -1M543 213l2 2M545 217l0 -2M545 217l3 3M548 221l0 -1M548 221l1 2 1 1M550 225l0 -1M550 225l1 1 1 2 1 1M553 230l0 -1M553 230l2 2 1 2M556 235l0 -1M556 235l2 2M558 238l0 -1M558 238l1 2 2 2M561 243l0 -1"/>
<path stroke="red" d="M561 243l1 1 1 2M563 247l0 -1M563 247l3 3M566 252l0 -2M566 252l3 3M569 256l0 -1M569 256l1 2 1 1M571 260l0 -1M571 260l1 1 1 2 1 1M574 265l0 -1M574 265l2 2M576 269l0 -2M576 269l3 3M579 273l0 -1M579 273l1 2 2 2M582 278l0 -1"/>
<path stroke="red" d="M582 278l1 1 1 2M584 282l0 -1M584 282l3 3M587 287l0 -2M587 287l2 2M589 290l0 -1M589 290l1 2 2 2M592 295l0 -1M592 295l1 1 1 2 1 1M595 300l0 -1M595 300l2 2M597 304l0 -2M597 304l3 3M600 308l0 -1M600 308l1 2 2 2M603 313l0 -1"/>
<path stroke="red" d="M603 313l1 1 1 2M605 317l0 -1M605 317l2 2 1 2M608 322l0 -1M608 322l2 2M610 325l0 -1M610 325l1 2 2 2M613 330l0 -1M613 330l1 1 1 2 1 1M616 335l0 -1M616 335l1 1 1 2M618 339l0 -1M618 339l3 3M621 344l0 -2M621 344l2 2M623 347l0 -1"/>
<path stroke="red" d="M623 347l1 2 2 2M626 352l0 -1M626 352l1 1 1 2 1 1M629 357l0 -1M629 357l1 1 1 2M631 361l0 -1M631 361l3 3M634 366l0 -2M634 366l2 2M636 369l0 -1M636 369l1 2 2 2M639 374l0 -1M639 374l1 2 2 2M642 379l0 -1M642 379l1 1 1 2M644 383l0 -1"/>
<path stroke="red" d="M644 383l2 2 1 2M647 388l0 -1M647 388l1 1 1 2M649 392l0 -1M649 392l2 2 1 2M652 397l0 -1M652 397l2 2 1 2M655 402l0 -1M655 402l2 2M657 406l0 -2M657 406l2 2 1 2M660 411l0 -1M660 411l1 1 1 2M662 415l0 -1M662 415l2 2 1 2M665 420l0 -1"/>
<path stroke="red" d="M665 420l1 1 1 2 1 1M668 425l0 -1M668 425l1 2 1 1M670 430l0 -2M670 430l2 2 1 2M673 435l0 -1M673 435l1 1 1 2 1 1M676 441l0 -2M676 441l2 2M678 445l0 -2M678 445l1 1 1 2 1 1M681 451l0 -2M681 451l1 1 1 2M683 455l0 -1M683 455l1 2"/>
<path stroke="red" d="M684 457l1 1 1 2M686 461l0 -1M686 461l1 2 1 1 1 2M689 467l0 -1M689 467l2 4M691 472l0 -1M691 472l2 4 1 1M694 479l0 -2M694 479l1 2 1 1M696 484l0 -2M696 484l1 2 1 1 1 2M699 491l0 -2M699 491l1 2 1 1 1 2M702 498l0 -2M702 498l2 4"/>
<path stroke="red" d="M704 503l0 -1M704 503l3 6M707 511l0 -2M707 511l2 4M709 517l0 -2M709 517l1 1 2 4M712 524l0 -2M712 524l3 6M715 532l0 -2M715 532l2 4M717 538l0 -2M717 538l1 1 2 4M720 545l0 -2M720 545l2 4M722 551l0 -2M722 551l1 1 2 4M725 558l0 -2"/>
<path stroke="red" d="M725 558l1 2 1 1 1 2M728 565l0 -2M728 565l1 2 1 1M730 570l0 -2M730 570l1 2 1 1 1 2M733 577l0 -2M733 577l1 1 1 2M735 581l0 -1M735 581l1 2 1 1 1 2M738 587l0 -1M738 587l1 2 1 1 1 2M741 593l0 -1M741 593l1 2 1 1M743 598l0 -2"/>
<path stroke="red" d="M743 598l1 1 1 2 1 1M746 603l0 -1M746 603l1 2 2 2M749 609l0 -2M749 609l2 2M751 613l0 -2M751 613l3 3M754 618l0 -2M754 618l2 2M756 621l0 -1M756 621l2 2 1 2M759 626l0 -1M759 626l3 3M762 630l0 -1M762 630l2 2M764 633l0 -1M764 633l1 1"/>
<path stroke="red" d="M765 634l1 0 1 1M767 636l0 -1M767 636l2 2M769 639l0 -1M769 639l1 0 2 2M772 642l0 -1M772 642l1 0 5 5 1 0 2 2 1 0M782 650l0 -1M782 650l2 0 2 2 2 0M788 653l0 -1M788 653l2 0M790 654l0 -1M790 654l3 0M793 655l0 -1M793 655l3 0"/>
<path stroke="red" d="M796 655l1 1 4 0M801 657l0 -1M801 657l5 0 1 1 9 0 1 1 71 0"/>
<path stroke="blue" d="M85 23l43 0"/>
<text stroke="none" fill="white" font-size="16" x="138" y="32">
db(ttian)
</text>
<path stroke="blue" d="M85 67l312 0M397 68l0 -1M397 68l15 0M412 69l0 -1M412 69l8 0M420 70l0 -1M420 70l5 0M425 71l0 -1M425 71l4 0 1 1 3 0M433 73l0 -1M433 73l3 0M436 74l0 -1M436 74l2 0M438 75l0 -1M438 75l3 0M441 76l0 -1M441 76l1 0 1 1 1 0 1 1 1 0"/>
<path stroke="blue" d="M446 79l0 -1M446 79l2 0 2 2 1 0M451 82l0 -1M451 82l1 0 1 1 1 0M454 84l0 -1M454 84l1 1 1 0 5 5 1 0M462 91l0 -1M462 91l5 5M467 97l0 -1M467 97l1 0 2 2M470 100l0 -1M470 100l2 2M472 103l0 -1M472 103l1 0 2 2M475 106l0 -1M475 106l2 2"/>
<path stroke="blue" d="M477 109l0 -1M477 109l3 3M480 113l0 -1M480 113l3 3M483 117l0 -1M483 117l2 2M485 120l0 -1M485 120l3 3M488 124l0 -1M488 124l1 1 1 2M490 128l0 -1M490 128l3 3M493 132l0 -1M493 132l3 3M496 136l0 -1M496 136l1 2 1 1M498 140l0 -1"/>
<path stroke="blue" d="M498 140l3 3M501 144l0 -1M501 144l1 2 1 1M503 148l0 -1M503 148l3 3M506 152l0 -1M506 152l1 2 2 2M509 157l0 -1M509 157l2 2M511 161l0 -2M511 161l3 3M514 165l0 -1M514 165l1 1 1 2M516 169l0 -1M516 169l3 3M519 174l0 -2M519 174l3 3"/>
<path stroke="blue" d="M522 178l0 -1M522 178l1 2 1 1M524 182l0 -1M524 182l3 3M527 187l0 -2M527 187l3 3M530 191l0 -1M530 191l1 2 1 1M532 195l0 -1M532 195l2 2 1 2M535 200l0 -1M535 200l2 2M537 203l0 -1M537 203l1 2 2 2M540 208l0 -1M540 208l1 1 1 2"/>
<path stroke="blue" d="M542 211l1 1M543 213l0 -1M543 213l2 2M545 217l0 -2M545 217l3 3M548 221l0 -1M548 221l1 2 1 1M550 225l0 -1M550 225l1 1 1 2 1 1M553 230l0 -1M553 230l2 2 1 2M556 235l0 -1M556 235l2 2M558 238l0 -1M558 238l1 2 2 2M561 243l0 -1"/>
<path stroke="blue" d="M561 243l1 1 1 2M563 247l0 -1M563 247l3 3M566 252l0 -2M566 252l3 3M569 256l0 -1M569 256l1 2 1 1M571 260l0 -1M571 260l1 1 1 2 1 1M574 265l0 -1M574 265l2 2M576 269l0 -2M576 269l3 3M579 273l0 -1M579 273l1 2 2 2M582 278l0 -1"/>
<path stroke="blue" d="M582 278l1 1 1 2M584 282l0 -1M584 282l3 3M587 287l0 -2M587 287l2 2M589 290l0 -1M589 290l1 2 2 2M592 295l0 -1M592 295l1 1 1 2 1 1M595 300l0 -1M595 300l2 2M597 304l0 -2M597 304l3 3M600 308l0 -1M600 308l1 2 2 2M603 313l0 -1"/>
<path stroke="blue" d="M603 313l1 2 1 1M605 317l0 -1M605 317l2 2 1 2M608 322l0 -1M608 322l2 2M610 325l0 -1M610 325l1 2 2 2M613 330l0 -1M613 330l1 1 1 2 1 1M616 335l0 -1M616 335l1 1 1 2M618 339l0 -1M618 339l3 3M621 344l0 -2M621 344l2 2M623 347l0 -1"/>
<path stroke="blue" d="M623 347l1 2 2 2M626 352l0 -1M626 352l1 1 1 2 1 1M629 357l0 -1M629 357l1 1 1 2M631 361l0 -1M631 361l3 3M634 366l0 -2M634 366l2 2M636 369l0 -1M636 369l1 2 2 2M639 374l0 -1M639 374l1 2 2 2M642 379l0 -1M642 379l1 1 1 2M644 383l0 -1"/>
<path stroke="blue" d="M644 383l2 2 1 2M647 388l0 -1M647 388l1 1 1 2M649 392l0 -1M649 392l2 2 1 2M652 397l0 -1M652 397l2 2 1 2M655 402l0 -1M655 402l2 2M657 406l0 -2M657 406l2 2 1 2M660 411l0 -1M660 411l1 1 1 2M662 415l0 -1M662 415l2 2 1 2M665 420l0 -1"/>
<path stroke="blue" d="M665 420l1 1 1 2 1 1M668 425l0 -1M668 425l1 2 1 1M670 430l0 -2M670 430l2 2 1 2M673 435l0 -1M673 435l1 1 1 2 1 1M676 441l0 -2M676 441l2 2M678 445l0 -2M678 445l1 1 1 2 1 1M681 451l0 -2M681 451l1 1 1 2M683 455l0 -1M683 455l1 2"/>
<path stroke="blue" d="M684 457l1 1 1 2M686 461l0 -1M686 461l1 2 1 1 1 2M689 467l0 -1M689 467l2 4M691 472l0 -1M691 472l1 2 1 1 1 2M694 479l0 -2M694 479l1 1 1 2M696 484l0 -2M696 484l1 2 1 1 1 2M699 491l0 -2M699 491l1 1 2 4M702 498l0 -2M702 498l1 2"/>
<path stroke="blue" d="M703 500l1 1M704 503l0 -2M704 503l3 6M707 511l0 -2M707 511l1 2 1 1M709 516l0 -2M709 516l3 6M712 524l0 -2M712 524l3 6M715 531l0 -1M715 531l2 4M717 537l0 -2M717 537l3 6M720 545l0 -2M720 545l1 1 1 2M722 550l0 -2M722 550l2 4"/>
<path stroke="blue" d="M724 554l1 1M725 557l0 -2M725 557l2 4 1 1M728 564l0 -2M728 564l2 4M730 569l0 -1M730 569l1 2 1 1 1 2M733 576l0 -2M733 576l1 1 1 2M735 580l0 -1M735 580l1 2 1 1 1 2M738 586l0 -1M738 586l1 2 1 1 1 2M741 592l0 -1M741 592l1 2"/>
<path stroke="blue" d="M742 594l1 1M743 597l0 -2M743 597l2 2 1 2M746 602l0 -1M746 602l1 1 1 2 1 1M749 607l0 -1M749 607l1 2 1 1M751 611l0 -1M751 611l1 2 2 2M754 616l0 -1M754 616l1 2 1 1M756 620l0 -1M756 620l3 3M759 624l0 -1M759 624l1 2 2 2M762 629l0 -1"/>
<path stroke="blue" d="M762 629l2 2M764 632l0 -1M764 632l3 3M767 636l0 -1M767 636l1 0 1 1M769 638l0 -1M769 638l10 10 1 0M780 649l0 -1M780 649l1 0 2 2 1 0 2 2 1 0 1 1 1 0 1 1 1 0 1 1 1 0 1 1 2 0 1 1 2 0 1 1 3 0M803 660l0 -1M803 660l5 0M808 661l0 -1"/>
<path stroke="blue" d="M808 661l8 0M816 662l0 -1M816 662l17 0 1 1 54 0"/>
</svg>
