<svg xmlns="http://www.w3.org/2000/svg" xmlns:xlink="http://www.w3.org/1999/xlink" width="1908" height="889" version="1.1">
<style type="text/css">
.l0{
  fill: #ffffff;
  stroke: #ffffff;
  stroke-linecap:round;
  stroke-linejoin:round;
  stroke-width: 0.942781;
}
.l1{
  fill: #0044ee;
  stroke: #0044ee;
  stroke-linecap:round;
  stroke-linejoin:round;
  stroke-width: 0.942781;
}
.l2{
  fill: #aaaaaa; fill-opacity: 0.2;
  stroke: #aaaaaa;
  stroke-linecap:round;
  stroke-linejoin:round;
  stroke-width: 0.942781;
}
.l3{
  fill: #222222; fill-opacity: 0.5;
  stroke: #222222;
  stroke-linecap:round;
  stroke-linejoin:round;
  stroke-width: 0.942781;
}
.l4{
  fill: #229900;
  stroke: #229900;
  stroke-linecap:round;
  stroke-linejoin:round;
  stroke-width: 0.942781;
}
.l5{
  fill: #bb2200;
  stroke: #bb2200;
  stroke-linecap:round;
  stroke-linejoin:round;
  stroke-width: 0.942781;
}
.l6{
  fill: #00ccee; fill-opacity: 0.5;
  stroke: #00ccee;
  stroke-linecap:round;
  stroke-linejoin:round;
  stroke-width: 0.942781;
}
.l7{
  fill: #ff0000; fill-opacity: 0.5;
  stroke: #ff0000;
  stroke-linecap:round;
  stroke-linejoin:round;
  stroke-width: 0.942781;
}
.l8{
  fill: #888800; fill-opacity: 0.5;
  stroke: #888800;
  stroke-linecap:round;
  stroke-linejoin:round;
  stroke-width: 0.942781;
}
.l9{
  fill: #00aaaa; fill-opacity: 0.5;
  stroke: #00aaaa;
  stroke-linecap:round;
  stroke-linejoin:round;
  stroke-width: 0.942781;
}
.l10{
  fill: #880088;
  stroke: #880088;
  stroke-linecap:round;
  stroke-linejoin:round;
  stroke-width: 0.942781;
}
.l11{
  fill: #00ff00; fill-opacity: 0.5;
  stroke: #00ff00;
  stroke-linecap:round;
  stroke-linejoin:round;
  stroke-width: 0.942781;
}
.l12{
  fill: #0000cc; fill-opacity: 0.5;
  stroke: #0000cc;
  stroke-linecap:round;
  stroke-linejoin:round;
  stroke-width: 0.942781;
}
.l13{
  fill: #666600; fill-opacity: 0.5;
  stroke: #666600;
  stroke-linecap:round;
  stroke-linejoin:round;
  stroke-width: 0.942781;
}
.l14{
  fill: #557755; fill-opacity: 0.2;
  stroke: #557755;
  stroke-linecap:round;
  stroke-linejoin:round;
  stroke-width: 0.942781;
}
.l15{
  fill: #aa2222; fill-opacity: 0.5;
  stroke: #aa2222;
  stroke-linecap:round;
  stroke-linejoin:round;
  stroke-width: 0.942781;
}
.l16{
  fill: #7ccc40; fill-opacity: 0.5;
  stroke: #7ccc40;
  stroke-linecap:round;
  stroke-linejoin:round;
  stroke-width: 0.942781;
}
.l17{
  fill: #00ffcc; fill-opacity: 0.2;
  stroke: #00ffcc;
  stroke-linecap:round;
  stroke-linejoin:round;
  stroke-width: 0.942781;
}
.l18{
  fill: #ce0097; fill-opacity: 0.5;
  stroke: #ce0097;
  stroke-linecap:round;
  stroke-linejoin:round;
  stroke-width: 0.942781;
}
.l19{
  fill: #d2d46b; fill-opacity: 0.2;
  stroke: #d2d46b;
  stroke-linecap:round;
  stroke-linejoin:round;
  stroke-width: 0.942781;
}
.l20{
  fill: #ef6158; fill-opacity: 0.2;
  stroke: #ef6158;
  stroke-linecap:round;
  stroke-linejoin:round;
  stroke-width: 0.942781;
}
.l21{
  fill: #fdb200; fill-opacity: 0.2;
  stroke: #fdb200;
  stroke-linecap:round;
  stroke-linejoin:round;
  stroke-width: 0.942781;
}
text {font-family: Sans-Serif;}
</style>
<rect class="l0" x="0" y="0" width="1908" height="889"/>
<text fill="#0044ee"  xml:space="preserve" font-size="9.07863" transform="translate(582.756, 647.23)" >GND</text>
<text fill="#0044ee"  xml:space="preserve" font-size="14.9797" transform="translate(532.662, 553.837)" >v_dd</text>
<text fill="#0044ee"  xml:space="preserve" font-size="9.07863" transform="translate(652.592, 647.23)" >GND</text>
<text fill="#0044ee"  xml:space="preserve" font-size="14.9797" transform="translate(606.497, 553.837)" >v_ss</text>
<text fill="#0044ee"  xml:space="preserve" font-size="12.2561" transform="translate(1369.32, 325.071)" >v_out</text>
<text fill="#0044ee"  xml:space="preserve" font-size="12.2561" transform="translate(759.533, 298.883)" >v_in</text>
<text fill="#0044ee"  xml:space="preserve" font-size="12.2561" transform="translate(1049.78, 421.095)" >v_ena</text>
<text fill="#222222"  xml:space="preserve" font-size="13.6179" transform="translate(170.29, 612.07)" >MODEL1</text>
<text fill="#222222"  xml:space="preserve" font-size="13.6179" style="font-family:Monospace;" transform="translate(179.019, 633.893)" >.lib cornerMOSlv.lib mos_ss</text>
<text fill="#222222"  xml:space="preserve" font-size="9.07863" transform="translate(593.668, 582.851)" >Vdd</text>
<text fill="#222222"  xml:space="preserve" font-size="9.07863" transform="translate(593.668, 604.674)" >1.45</text>
<text fill="#222222"  xml:space="preserve" font-size="9.07863" transform="translate(663.503, 582.851)" >Vss</text>
<text fill="#222222"  xml:space="preserve" font-size="9.07863" transform="translate(663.503, 604.674)" >0</text>
<text fill="#666600"  xml:space="preserve" font-size="9.07863" transform="translate(1395.14, 375.526)" >1</text>
<text fill="#666600"  xml:space="preserve" font-size="9.07863" transform="translate(1395.14, 412.627)" >2</text>
<text fill="#222222"  xml:space="preserve" font-size="9.07863" transform="translate(1418.6, 382.073)" >C1</text>
<text fill="#222222"  xml:space="preserve" font-size="9.07863" transform="translate(1418.6, 392.985)" >2p</text>
<text fill="#222222"  xml:space="preserve" font-size="9.07863" transform="translate(1418.6, 403.897)" >m=1</text>
<text fill="#222222"  xml:space="preserve" font-size="9.07863" transform="translate(750.798, 399.532)" >Vin</text>
<text fill="#222222"  xml:space="preserve" font-size="9.07863" transform="translate(750.798, 421.356)" >dc 0.8 ac 1</text>
<text fill="#222222"  xml:space="preserve" font-size="13.6179" transform="translate(170.29, 193.056)" >NGSPICE1</text>
<text fill="#222222"  xml:space="preserve" font-size="13.6179" style="font-family:Monospace;" transform="translate(179.019, 230.499)" >.temp -40</text>
<text fill="#222222"  xml:space="preserve" font-size="13.6179" style="font-family:Monospace;" transform="translate(179.019, 261.739)" >.ic v(v_out)=0</text>
<text fill="#222222"  xml:space="preserve" font-size="13.6179" style="font-family:Monospace;" transform="translate(179.019, 277.359)" >.option method=gear</text>
<text fill="#222222"  xml:space="preserve" font-size="13.6179" style="font-family:Monospace;" transform="translate(179.019, 308.598)" >.control</text>
<text fill="#222222"  xml:space="preserve" font-size="13.6179" style="font-family:Monospace;" transform="translate(179.019, 339.838)" >tran 0.005u 15u uic</text>
<text fill="#222222"  xml:space="preserve" font-size="13.6179" style="font-family:Monospace;" transform="translate(179.019, 355.458)" >plot v_ena v_out</text>
<text fill="#222222"  xml:space="preserve" font-size="13.6179" style="font-family:Monospace;" transform="translate(179.019, 386.697)" >let vout_limit=0.8*0.99</text>
<text fill="#222222"  xml:space="preserve" font-size="13.6179" style="font-family:Monospace;" transform="translate(179.019, 402.317)" >meas tran tcross WHEN v(v_out)=vout_limit</text>
<text fill="#222222"  xml:space="preserve" font-size="13.6179" style="font-family:Monospace;" transform="translate(179.019, 417.937)" >let vena_limit=0.5*1.5</text>
<text fill="#222222"  xml:space="preserve" font-size="13.6179" style="font-family:Monospace;" transform="translate(179.019, 433.557)" >meas tran tstart WHEN v(v_ena)=vena_limit</text>
<text fill="#222222"  xml:space="preserve" font-size="13.6179" style="font-family:Monospace;" transform="translate(179.019, 449.176)" >let tsettle=tcross-tstart</text>
<text fill="#222222"  xml:space="preserve" font-size="13.6179" style="font-family:Monospace;" transform="translate(179.019, 464.796)" >print tsettle</text>
<text fill="#222222"  xml:space="preserve" font-size="13.6179" style="font-family:Monospace;" transform="translate(179.019, 527.275)" >.endc</text>
<text fill="#222222"  xml:space="preserve" font-size="18.1573" transform="translate(580.574, 768.957)" >         tb_foldedcascode_nmos_tran.sch</text>
<text fill="#222222"  xml:space="preserve" font-size="18.1573" transform="translate(580.574, 742.768)" >(c) 2025 Thesis_HP, Apache-2.0 license</text>
<text fill="#222222"  xml:space="preserve" font-size="18.1573" transform="translate(1059.84, 742.768)" >2025-06-09  15:55:14</text>
<text fill="#222222"  xml:space="preserve" font-size="45.3931" transform="translate(379.796, 767.499)" >SCHEM</text>
<text fill="#222222"  xml:space="preserve" font-size="9.07863" transform="translate(1086.88, 283.212)" >x1</text>
<text fill="#222222"  xml:space="preserve" font-size="9.07863" transform="translate(999.776, 260.578)" >AVDD</text>
<text fill="#222222"  xml:space="preserve" font-size="9.07863" transform="translate(990.858, 307.655)" >PLUS</text>
<text fill="#222222"  xml:space="preserve" font-size="9.07863" transform="translate(990.858, 360.032)" >MINUS</text>
<text fill="#222222"  xml:space="preserve" font-size="9.07863" transform="translate(1117.26, 316.384)" >Vout</text>
<text fill="#222222"  xml:space="preserve" font-size="9.07863" transform="translate(990.858, 333.843)" >Ibias</text>
<text fill="#222222"  xml:space="preserve" font-size="9.07863" transform="translate(1051.96, 377.49)" >d_ena</text>
<text fill="#222222"  xml:space="preserve" font-size="9.07863" transform="translate(999.587, 403.679)" >AVSS</text>
<text fill="#222222"  xml:space="preserve" font-size="9.07863" transform="translate(1065.06, 460.639)" >Venable</text>
<text fill="#222222"  xml:space="preserve" font-size="9.07863" transform="translate(1065.06, 482.462)" >dc 0 pwl(0 0 1u 0 1.1u 1.5)</text>
<text fill="#222222"  xml:space="preserve" font-size="9.07863" transform="translate(925.387, 232.582)" >I0</text>
<text fill="#222222"  xml:space="preserve" font-size="9.07863" transform="translate(925.387, 242.995)" >dc 0 pwl(0 0 1.1u 0 1.2u 10u)</text>
<path class="l4" d="M165.925 617.163L227.031 617.163"/>
<path class="l4" d="M165.925 617.163L165.925 634.622"/>
<path class="l4" d="M578.391 571.334L582.756 571.334"/>
<path class="l4" d="M580.574 569.152L580.574 573.516"/>
<path class="l4" d="M576.209 564.787L576.209 617.163"/>
<circle class="l4" cx="576.209" cy="590.975" r="13.0942" style="fill:none;" />
<path class="l4" d="M576.209 634.622L576.209 645.534"/>
<path class="l4" d="M571.844 645.534L580.574 645.534"/>
<path class="l4" d="M576.209 649.899L580.574 645.534"/>
<path class="l4" d="M571.844 645.534L576.209 649.899"/>
<path class="l4" d="M648.227 571.334L652.592 571.334"/>
<path class="l4" d="M650.409 569.152L650.409 573.516"/>
<path class="l4" d="M646.045 564.787L646.045 617.163"/>
<circle class="l4" cx="646.045" cy="590.975" r="13.0942" style="fill:none;" />
<path class="l4" d="M646.045 634.622L646.045 645.534"/>
<path class="l4" d="M641.68 645.534L650.409 645.534"/>
<path class="l4" d="M646.045 649.899L650.409 645.534"/>
<path class="l4" d="M641.68 645.534L646.045 649.899"/>
<path class="l4" d="M1405.51 394.562L1405.51 416.386"/>
<path class="l4" d="M1405.51 364.009L1405.51 385.833"/>
<path class="l4" d="M1396.78 385.833L1414.24 385.833"/>
<path class="l4" d="M1396.78 394.562L1414.24 394.562"/>
<path class="l4" d="M1407.69 370.557L1412.05 370.557"/>
<path class="l4" d="M1409.87 368.374L1409.87 372.739"/>
<path class="l4" d="M735.521 388.015L739.886 388.015"/>
<path class="l4" d="M737.704 385.833L737.704 390.198"/>
<path class="l4" d="M733.339 381.468L733.339 433.845"/>
<circle class="l4" cx="733.339" cy="407.657" r="13.0942" style="fill:none;" />
<path class="l4" d="M165.925 198.15L227.031 198.15"/>
<path class="l4" d="M165.925 198.15L165.925 215.609"/>
<path class="l4" d="M1012.68 267.985L1012.68 285.444"/>
<path class="l4" d="M969.034 302.903L986.493 302.903"/>
<path class="l4" d="M969.034 355.28L986.493 355.28"/>
<path class="l4" d="M1099.98 329.092L1117.43 329.092"/>
<path class="l4" d="M969.034 329.092L986.493 329.092"/>
<path class="l4" d="M1047.6 364.009L1047.6 381.468"/>
<path class="l4" d="M1012.68 372.739L1012.68 390.198"/>
<path class="l4" style="fill:none;" d="M1099.98 311.633L986.493 276.715L986.493 381.468L1099.98 346.551L1099.98 311.633"/>
<path class="l4" d="M1049.78 449.122L1054.15 449.122"/>
<path class="l4" d="M1051.96 446.939L1051.96 451.304"/>
<path class="l4" d="M1047.6 442.574L1047.6 494.951"/>
<circle class="l4" cx="1047.6" cy="468.763" r="13.0942" style="fill:none;" />
<path class="l4" d="M907.928 206.879L907.928 219.973"/>
<path class="l4" d="M907.928 246.162L907.928 259.256"/>
<path class="l4" d="M910.11 213.426L914.475 213.426"/>
<path class="l4" d="M912.293 211.244L912.293 215.609"/>
<path class="l4" d="M907.928 226.521L907.928 235.25L910.11 235.25L907.928 241.797L905.746 235.25L907.928 235.25L907.928 226.521"/>
<circle class="l4" cx="907.928" cy="233.068" r="13.0942" style="fill:none;" />
<path class="l5" d="M574.027 562.604L578.391 562.604L578.391 566.969L574.027 566.969L574.027 562.604z"/>
<path class="l5" d="M574.027 614.981L578.391 614.981L578.391 619.346L574.027 619.346L574.027 614.981z"/>
<path class="l5" d="M574.027 632.44L578.391 632.44L578.391 636.805L574.027 636.805L574.027 632.44z"/>
<path class="l5" d="M575.118 546.237L577.3 546.237L577.3 548.419L575.118 548.419L575.118 546.237z"/>
<path class="l5" d="M643.862 562.604L648.227 562.604L648.227 566.969L643.862 566.969L643.862 562.604z"/>
<path class="l5" d="M643.862 614.981L648.227 614.981L648.227 619.346L643.862 619.346L643.862 614.981z"/>
<path class="l5" d="M643.862 632.44L648.227 632.44L648.227 636.805L643.862 636.805L643.862 632.44z"/>
<path class="l5" d="M644.953 546.237L647.136 546.237L647.136 548.419L644.953 548.419L644.953 546.237z"/>
<path class="l5" d="M1403.32 361.827L1407.69 361.827L1407.69 366.192L1403.32 366.192L1403.32 361.827z"/>
<path class="l5" d="M1403.32 414.204L1407.69 414.204L1407.69 418.568L1403.32 418.568L1403.32 414.204z"/>
<path class="l5" d="M1404.42 328L1406.6 328L1406.6 330.183L1404.42 330.183L1404.42 328z"/>
<path class="l5" d="M731.157 379.286L735.521 379.286L735.521 383.651L731.157 383.651L731.157 379.286z"/>
<path class="l5" d="M731.157 431.663L735.521 431.663L735.521 436.027L731.157 436.027L731.157 431.663z"/>
<path class="l5" d="M784.625 301.812L786.807 301.812L786.807 303.994L784.625 303.994L784.625 301.812z"/>
<path class="l5" d="M837.683 302.494L838.502 302.494L838.502 303.312L837.683 303.312L837.683 302.494z"/>
<path class="l5" d="M1274.16 328.682L1274.97 328.682L1274.97 329.501L1274.16 329.501L1274.16 328.682z"/>
<path class="l5" d="M366.702 735.011L366.429 735.284L366.157 735.557L365.884 735.829L365.611 736.102L365.338 736.375L365.065 736.648L364.793 736.921L364.52 737.193L364.247 737.466L363.974 737.739L363.701 738.012L363.429 738.285L363.156 738.557L362.883 738.83L362.61 739.103L362.337 739.376L362.065 739.649L361.792 739.921L361.519 740.194L361.246 740.467L360.973 740.74L360.701 741.013L360.428 741.285L360.155 741.558L359.882 741.831L359.609 742.104L359.337 742.377L359.064 742.649L358.791 742.922L358.518 743.195L358.245 743.468L357.973 743.741L357.973 743.741L357.708 744.013L357.461 744.286L357.231 744.559L357.018 744.832L356.822 745.104L356.643 745.377L356.481 745.65L356.336 745.923L356.208 746.196L356.097 746.468L356.003 746.741L355.927 747.014L355.867 747.287L355.824 747.56L355.799 747.832L355.79 748.105L355.799 748.378L355.824 748.651L355.867 748.924L355.927 749.196L356.003 749.469L356.097 749.742L356.208 750.015L356.336 750.288L356.481 750.56L356.643 750.833L356.822 751.106L357.018 751.379L357.231 751.652L357.461 751.924L357.708 752.197L357.973 752.47L357.973 752.47L358.247 752.744L358.523 753.02L358.801 753.298L359.081 753.578L359.363 753.861L359.648 754.145L359.934 754.432L360.223 754.721L360.514 755.011L360.807 755.304L361.102 755.6L361.4 755.897L361.699 756.196L362.001 756.498L362.304 756.802L362.61 757.107L362.918 757.415L363.228 757.726L363.54 758.038L363.855 758.352L364.171 758.669L364.49 758.987L364.811 759.308L365.134 759.631L365.459 759.956L365.786 760.283L366.115 760.612L366.446 760.944L366.78 761.277L367.116 761.613L367.453 761.951L367.793 762.291L367.793 762.291L368.132 762.629L368.467 762.964L368.797 763.294L369.123 763.62L369.445 763.942L369.763 764.26L370.076 764.573L370.385 764.882L370.69 765.187L370.99 765.487L371.286 765.784L371.578 766.076L371.866 766.363L372.15 766.647L372.429 766.926L372.704 767.201L372.974 767.472L373.241 767.738L373.503 768L373.761 768.258L374.014 768.512L374.264 768.761L374.509 769.006L374.75 769.247L374.986 769.483L375.218 769.716L375.447 769.944L375.67 770.168L375.89 770.387L376.105 770.602L376.316 770.813L376.523 771.02L376.523 771.02L376.721 771.221L376.906 771.416L377.079 771.605L377.239 771.787L377.386 771.963L377.52 772.133L377.642 772.296L377.75 772.452L377.846 772.602L377.929 772.746L378 772.884L378.057 773.015L378.102 773.14L378.134 773.258L378.153 773.37L378.16 773.475L378.153 773.574L378.134 773.667L378.102 773.753L378.057 773.833L378 773.907L377.929 773.974L377.846 774.035L377.75 774.089L377.642 774.137L377.52 774.178L377.386 774.214L377.239 774.242L377.079 774.265L376.906 774.281L376.721 774.29L376.523 774.294L376.523 774.294L376.318 774.294L376.114 774.294L375.909 774.294L375.704 774.294L375.5 774.294L375.295 774.294L375.091 774.294L374.886 774.294L374.681 774.294L374.477 774.294L374.272 774.294L374.068 774.294L373.863 774.294L373.658 774.294L373.454 774.294L373.249 774.294L373.045 774.294L372.84 774.294L372.635 774.294L372.431 774.294L372.226 774.294L372.022 774.294L371.817 774.294L371.612 774.294L371.408 774.294L371.203 774.294L370.999 774.294L370.794 774.294L370.589 774.294L370.385 774.294L370.18 774.294L369.976 774.294L369.976 774.294L369.772 774.294L369.571 774.294L369.371 774.294L369.174 774.294L368.979 774.294L368.786 774.294L368.596 774.294L368.407 774.294L368.221 774.294L368.036 774.294L367.854 774.294L367.674 774.294L367.496 774.294L367.32 774.294L367.146 774.294L366.975 774.294L366.805 774.294L366.638 774.294L366.473 774.294L366.31 774.294L366.149 774.294L365.99 774.294L365.834 774.294L365.679 774.294L365.527 774.294L365.377 774.294L365.228 774.294L365.082 774.294L364.939 774.294L364.797 774.294L364.657 774.294L364.52 774.294L364.52 774.294L364.383 774.291L364.247 774.285L364.111 774.274L363.974 774.259L363.838 774.24L363.701 774.217L363.565 774.189L363.429 774.157L363.292 774.121L363.156 774.08L363.019 774.036L362.883 773.987L362.747 773.933L362.61 773.876L362.474 773.814L362.337 773.748L362.201 773.678L362.065 773.603L361.928 773.524L361.792 773.441L361.655 773.354L361.519 773.262L361.383 773.166L361.246 773.066L361.11 772.962L360.973 772.853L360.837 772.74L360.701 772.623L360.564 772.501L360.428 772.375L360.291 772.245L360.155 772.111L360.155 772.111L360.019 771.975L359.882 771.838L359.746 771.702L359.609 771.566L359.473 771.429L359.337 771.293L359.2 771.156L359.064 771.02L358.927 770.884L358.791 770.747L358.655 770.611L358.518 770.474L358.382 770.338L358.245 770.202L358.109 770.065L357.973 769.929L357.836 769.792L357.7 769.656L357.563 769.52L357.427 769.383L357.291 769.247L357.154 769.11L357.018 768.974L356.882 768.838L356.745 768.701L356.609 768.565L356.472 768.428L356.336 768.292L356.2 768.156L356.063 768.019L355.927 767.883L355.79 767.746L355.79 767.746L355.652 767.608L355.509 767.465L355.362 767.318L355.211 767.167L355.055 767.011L354.895 766.851L354.731 766.687L354.563 766.519L354.39 766.346L354.213 766.169L354.032 765.988L353.847 765.803L353.657 765.613L353.463 765.419L353.265 765.221L353.062 765.019L352.856 764.812L352.645 764.601L352.429 764.386L352.21 764.166L351.986 763.942L351.758 763.714L351.526 763.482L351.289 763.245L351.048 763.005L350.803 762.759L350.554 762.51L350.3 762.256L350.042 761.999L349.78 761.736L349.514 761.47L349.243 761.199L349.243 761.199L348.97 760.935L348.698 760.688L348.425 760.458L348.152 760.245L347.879 760.049L347.606 759.87L347.334 759.708L347.061 759.563L346.788 759.435L346.515 759.324L346.242 759.23L345.97 759.153L345.697 759.094L345.424 759.051L345.151 759.026L344.879 759.017L344.606 759.026L344.333 759.051L344.06 759.094L343.787 759.153L343.515 759.23L343.242 759.324L342.969 759.435L342.696 759.563L342.423 759.708L342.151 759.87L341.878 760.049L341.605 760.245L341.332 760.458L341.059 760.688L340.787 760.935L340.514 761.199L340.514 761.199L340.243 761.47L339.977 761.736L339.715 761.999L339.457 762.256L339.203 762.51L338.954 762.759L338.709 763.005L338.468 763.245L338.231 763.482L337.999 763.714L337.771 763.942L337.547 764.166L337.328 764.386L337.112 764.601L336.901 764.812L336.695 765.019L336.492 765.221L336.294 765.419L336.1 765.613L335.91 765.803L335.725 765.988L335.544 766.169L335.367 766.346L335.194 766.519L335.026 766.687L334.862 766.851L334.702 767.011L334.546 767.167L334.395 767.318L334.248 767.465L334.105 767.608L333.967 767.746L333.967 767.746L333.83 767.883L333.694 768.019L333.558 768.156L333.421 768.292L333.285 768.428L333.148 768.565L333.012 768.701L332.876 768.838L332.739 768.974L332.603 769.11L332.466 769.247L332.33 769.383L332.194 769.52L332.057 769.656L331.921 769.792L331.784 769.929L331.648 770.065L331.512 770.202L331.375 770.338L331.239 770.474L331.102 770.611L330.966 770.747L330.83 770.884L330.693 771.02L330.557 771.156L330.42 771.293L330.284 771.429L330.148 771.566L330.011 771.702L329.875 771.838L329.738 771.975L329.602 772.111L329.602 772.111L329.466 772.245L329.329 772.375L329.193 772.501L329.056 772.623L328.92 772.74L328.784 772.853L328.647 772.962L328.511 773.066L328.374 773.166L328.238 773.262L328.102 773.354L327.965 773.441L327.829 773.524L327.692 773.603L327.556 773.678L327.42 773.748L327.283 773.814L327.147 773.876L327.01 773.933L326.874 773.987L326.738 774.036L326.601 774.08L326.465 774.121L326.328 774.157L326.192 774.189L326.056 774.217L325.919 774.24L325.783 774.259L325.646 774.274L325.51 774.285L325.374 774.291L325.237 774.294L325.237 774.294L325.1 774.294L324.96 774.294L324.818 774.294L324.675 774.294L324.529 774.294L324.38 774.294L324.23 774.294L324.078 774.294L323.923 774.294L323.767 774.294L323.608 774.294L323.447 774.294L323.284 774.294L323.119 774.294L322.952 774.294L322.782 774.294L322.611 774.294L322.437 774.294L322.261 774.294L322.083 774.294L321.903 774.294L321.721 774.294L321.536 774.294L321.35 774.294L321.161 774.294L320.971 774.294L320.778 774.294L320.583 774.294L320.386 774.294L320.186 774.294L319.985 774.294L319.781 774.294L319.781 774.294L319.577 774.294L319.372 774.294L319.168 774.294L318.963 774.294L318.758 774.294L318.554 774.294L318.349 774.294L318.145 774.294L317.94 774.294L317.735 774.294L317.531 774.294L317.326 774.294L317.122 774.294L316.917 774.294L316.712 774.294L316.508 774.294L316.303 774.294L316.099 774.294L315.894 774.294L315.689 774.294L315.485 774.294L315.28 774.294L315.076 774.294L314.871 774.294L314.666 774.294L314.462 774.294L314.257 774.294L314.053 774.294L313.848 774.294L313.643 774.294L313.439 774.294L313.234 774.294L313.234 774.294L313.036 774.29L312.851 774.281L312.678 774.265L312.518 774.242L312.371 774.214L312.237 774.178L312.115 774.137L312.007 774.089L311.911 774.035L311.828 773.974L311.757 773.907L311.7 773.833L311.655 773.753L311.623 773.667L311.604 773.574L311.597 773.475L311.604 773.37L311.623 773.258L311.655 773.14L311.7 773.015L311.757 772.884L311.828 772.746L311.911 772.602L312.007 772.452L312.115 772.296L312.237 772.133L312.371 771.963L312.518 771.787L312.678 771.605L312.851 771.416L313.036 771.221L313.234 771.02L313.234 771.02L313.441 770.813L313.652 770.602L313.867 770.387L314.087 770.168L314.311 769.944L314.539 769.716L314.771 769.483L315.007 769.247L315.248 769.006L315.493 768.761L315.743 768.512L315.996 768.258L316.254 768L316.516 767.738L316.783 767.472L317.053 767.201L317.328 766.926L317.608 766.647L317.891 766.363L318.179 766.076L318.471 765.784L318.767 765.487L319.067 765.187L319.372 764.882L319.681 764.573L319.994 764.26L320.312 763.942L320.634 763.62L320.96 763.294L321.29 762.964L321.625 762.629L321.964 762.291L321.964 762.291L322.304 761.951L322.641 761.613L322.977 761.277L323.311 760.944L323.642 760.612L323.971 760.283L324.298 759.956L324.623 759.631L324.946 759.308L325.267 758.987L325.586 758.669L325.902 758.352L326.217 758.038L326.529 757.726L326.839 757.415L327.147 757.107L327.453 756.802L327.756 756.498L328.058 756.196L328.357 755.897L328.655 755.6L328.95 755.304L329.243 755.011L329.534 754.721L329.823 754.432L330.109 754.145L330.394 753.861L330.676 753.578L330.956 753.298L331.234 753.02L331.51 752.744L331.784 752.47L331.784 752.47L332.049 752.197L332.296 751.924L332.526 751.652L332.739 751.379L332.935 751.106L333.114 750.833L333.276 750.56L333.421 750.288L333.549 750.015L333.66 749.742L333.754 749.469L333.83 749.196L333.89 748.924L333.933 748.651L333.958 748.378L333.967 748.105L333.958 747.832L333.933 747.56L333.89 747.287L333.83 747.014L333.754 746.741L333.66 746.468L333.549 746.196L333.421 745.923L333.276 745.65L333.114 745.377L332.935 745.104L332.739 744.832L332.526 744.559L332.296 744.286L332.049 744.013L331.784 743.741L331.784 743.741L331.51 743.467L331.234 743.191L330.956 742.913L330.676 742.632L330.394 742.35L330.109 742.065L329.823 741.779L329.534 741.49L329.243 741.199L328.95 740.906L328.655 740.611L328.357 740.314L328.058 740.014L327.756 739.713L327.453 739.409L327.147 739.103L326.839 738.795L326.529 738.485L326.217 738.173L325.902 737.858L325.586 737.542L325.267 737.223L324.946 736.903L324.623 736.58L324.298 736.255L323.971 735.927L323.642 735.598L323.311 735.267L322.977 734.933L322.641 734.598L322.304 734.26L321.964 733.92L321.964 733.92L321.625 733.581L321.29 733.246L320.96 732.916L320.634 732.59L320.312 732.268L319.994 731.951L319.681 731.637L319.372 731.328L319.067 731.024L318.767 730.723L318.471 730.427L318.179 730.135L317.891 729.847L317.608 729.564L317.328 729.284L317.053 729.01L316.783 728.739L316.516 728.472L316.254 728.21L315.996 727.952L315.743 727.699L315.493 727.45L315.248 727.204L315.007 726.964L314.771 726.727L314.539 726.495L314.311 726.267L314.087 726.043L313.867 725.823L313.652 725.608L313.441 725.397L313.234 725.19L313.234 725.19L313.036 724.989L312.851 724.794L312.678 724.605L312.518 724.423L312.371 724.247L312.237 724.078L312.115 723.915L312.007 723.758L311.911 723.608L311.828 723.464L311.757 723.327L311.7 723.196L311.655 723.071L311.623 722.953L311.604 722.841L311.597 722.735L311.604 722.636L311.623 722.543L311.655 722.457L311.7 722.377L311.757 722.304L311.828 722.237L311.911 722.176L312.007 722.121L312.115 722.074L312.237 722.032L312.371 721.997L312.518 721.968L312.678 721.946L312.851 721.93L313.036 721.92L313.234 721.917L313.234 721.917L313.439 721.917L313.643 721.917L313.848 721.917L314.053 721.917L314.257 721.917L314.462 721.917L314.666 721.917L314.871 721.917L315.076 721.917L315.28 721.917L315.485 721.917L315.689 721.917L315.894 721.917L316.099 721.917L316.303 721.917L316.508 721.917L316.712 721.917L316.917 721.917L317.122 721.917L317.326 721.917L317.531 721.917L317.735 721.917L317.94 721.917L318.145 721.917L318.349 721.917L318.554 721.917L318.758 721.917L318.963 721.917L319.168 721.917L319.372 721.917L319.577 721.917L319.781 721.917L319.781 721.917L319.985 721.917L320.186 721.917L320.386 721.917L320.583 721.917L320.778 721.917L320.971 721.917L321.161 721.917L321.35 721.917L321.536 721.917L321.721 721.917L321.903 721.917L322.083 721.917L322.261 721.917L322.437 721.917L322.611 721.917L322.782 721.917L322.952 721.917L323.119 721.917L323.284 721.917L323.447 721.917L323.608 721.917L323.767 721.917L323.923 721.917L324.078 721.917L324.23 721.917L324.38 721.917L324.529 721.917L324.675 721.917L324.818 721.917L324.96 721.917L325.1 721.917L325.237 721.917L325.237 721.917L325.374 721.919L325.51 721.925L325.646 721.936L325.783 721.951L325.919 721.97L326.056 721.994L326.192 722.021L326.328 722.053L326.465 722.09L326.601 722.13L326.738 722.175L326.874 722.224L327.01 722.277L327.147 722.335L327.283 722.396L327.42 722.462L327.556 722.533L327.692 722.607L327.829 722.686L327.965 722.769L328.102 722.857L328.238 722.948L328.374 723.044L328.511 723.144L328.647 723.249L328.784 723.358L328.92 723.471L329.056 723.588L329.193 723.709L329.329 723.835L329.466 723.965L329.602 724.099L329.602 724.099L329.738 724.236L329.875 724.372L330.011 724.508L330.148 724.645L330.284 724.781L330.42 724.918L330.557 725.054L330.693 725.19L330.83 725.327L330.966 725.463L331.102 725.6L331.239 725.736L331.375 725.872L331.512 726.009L331.648 726.145L331.784 726.282L331.921 726.418L332.057 726.554L332.194 726.691L332.33 726.827L332.466 726.964L332.603 727.1L332.739 727.236L332.876 727.373L333.012 727.509L333.148 727.646L333.285 727.782L333.421 727.918L333.558 728.055L333.694 728.191L333.83 728.328L333.967 728.464L333.967 728.464L334.105 728.602L334.248 728.745L334.395 728.892L334.546 729.044L334.702 729.199L334.862 729.359L335.026 729.523L335.194 729.692L335.367 729.864L335.544 730.041L335.725 730.222L335.91 730.408L336.1 730.597L336.294 730.791L336.492 730.989L336.695 731.192L336.901 731.399L337.112 731.61L337.328 731.825L337.547 732.044L337.771 732.268L337.999 732.496L338.231 732.729L338.468 732.965L338.709 733.206L338.954 733.451L339.203 733.7L339.457 733.954L339.715 734.212L339.977 734.474L340.243 734.74L340.514 735.011L340.514 735.011L340.787 735.275L341.059 735.523L341.332 735.753L341.605 735.966L341.878 736.162L342.151 736.341L342.423 736.503L342.696 736.648L342.969 736.776L343.242 736.887L343.515 736.98L343.787 737.057L344.06 737.117L344.333 737.159L344.606 737.185L344.879 737.193L345.151 737.185L345.424 737.159L345.697 737.117L345.97 737.057L346.242 736.98L346.515 736.887L346.788 736.776L347.061 736.648L347.334 736.503L347.606 736.341L347.879 736.162L348.152 735.966L348.425 735.753L348.698 735.523L348.97 735.275L349.243 735.011L349.243 735.011L349.514 734.74L349.78 734.474L350.042 734.212L350.3 733.954L350.554 733.7L350.803 733.451L351.048 733.206L351.289 732.965L351.526 732.729L351.758 732.496L351.986 732.268L352.21 732.044L352.429 731.825L352.645 731.61L352.856 731.399L353.062 731.192L353.265 730.989L353.463 730.791L353.657 730.597L353.847 730.408L354.032 730.222L354.213 730.041L354.39 729.864L354.563 729.692L354.731 729.523L354.895 729.359L355.055 729.199L355.211 729.044L355.362 728.892L355.509 728.745L355.652 728.602L355.79 728.464L355.79 728.464L355.927 728.328L356.063 728.191L356.2 728.055L356.336 727.918L356.472 727.782L356.609 727.646L356.745 727.509L356.882 727.373L357.018 727.236L357.154 727.1L357.291 726.964L357.427 726.827L357.563 726.691L357.7 726.554L357.836 726.418L357.973 726.282L358.109 726.145L358.245 726.009L358.382 725.872L358.518 725.736L358.655 725.6L358.791 725.463L358.927 725.327L359.064 725.19L359.2 725.054L359.337 724.918L359.473 724.781L359.609 724.645L359.746 724.508L359.882 724.372L360.019 724.236L360.155 724.099L360.155 724.099L360.291 723.965L360.428 723.835L360.564 723.709L360.701 723.588L360.837 723.471L360.973 723.358L361.11 723.249L361.246 723.144L361.383 723.044L361.519 722.948L361.655 722.857L361.792 722.769L361.928 722.686L362.065 722.607L362.201 722.533L362.337 722.462L362.474 722.396L362.61 722.335L362.747 722.277L362.883 722.224L363.019 722.175L363.156 722.13L363.292 722.09L363.429 722.053L363.565 722.021L363.701 721.994L363.838 721.97L363.974 721.951L364.111 721.936L364.247 721.925L364.383 721.919L364.52 721.917L364.52 721.917L364.657 721.917L364.797 721.917L364.939 721.917L365.082 721.917L365.228 721.917L365.377 721.917L365.527 721.917L365.679 721.917L365.834 721.917L365.99 721.917L366.149 721.917L366.31 721.917L366.473 721.917L366.638 721.917L366.805 721.917L366.975 721.917L367.146 721.917L367.32 721.917L367.496 721.917L367.674 721.917L367.854 721.917L368.036 721.917L368.221 721.917L368.407 721.917L368.596 721.917L368.786 721.917L368.979 721.917L369.174 721.917L369.371 721.917L369.571 721.917L369.772 721.917L369.976 721.917L369.976 721.917L370.18 721.917L370.385 721.917L370.589 721.917L370.794 721.917L370.999 721.917L371.203 721.917L371.408 721.917L371.612 721.917L371.817 721.917L372.022 721.917L372.226 721.917L372.431 721.917L372.635 721.917L372.84 721.917L373.045 721.917L373.249 721.917L373.454 721.917L373.658 721.917L373.863 721.917L374.068 721.917L374.272 721.917L374.477 721.917L374.681 721.917L374.886 721.917L375.091 721.917L375.295 721.917L375.5 721.917L375.704 721.917L375.909 721.917L376.114 721.917L376.318 721.917L376.523 721.917L376.523 721.917L376.721 721.92L376.906 721.93L377.079 721.946L377.239 721.968L377.386 721.997L377.52 722.032L377.642 722.074L377.75 722.121L377.846 722.176L377.929 722.237L378 722.304L378.057 722.377L378.102 722.457L378.134 722.543L378.153 722.636L378.16 722.735L378.153 722.841L378.134 722.953L378.102 723.071L378.057 723.196L378 723.327L377.929 723.464L377.846 723.608L377.75 723.758L377.642 723.915L377.52 724.078L377.386 724.247L377.239 724.423L377.079 724.605L376.906 724.794L376.721 724.989L376.523 725.19L376.523 725.19L376.315 725.398L376.101 725.612L375.88 725.833L375.653 726.06L375.42 726.293L375.18 726.533L374.934 726.779L374.681 727.032L374.422 727.291L374.157 727.556L373.885 727.828L373.607 728.106L373.323 728.39L373.032 728.681L372.735 728.979L372.431 729.282L372.121 729.592L371.804 729.909L371.481 730.232L371.152 730.561L370.816 730.897L370.474 731.239L370.126 731.587L369.771 731.942L369.41 732.303L369.042 732.671L368.668 733.045L368.288 733.425L367.901 733.812L367.508 734.205L367.108 734.605L366.702 735.011"/>
<path class="l5" d="M1010.5 265.803L1014.86 265.803L1014.86 270.168L1010.5 270.168L1010.5 265.803z"/>
<path class="l5" d="M966.852 300.721L971.217 300.721L971.217 305.086L966.852 305.086L966.852 300.721z"/>
<path class="l5" d="M966.852 353.098L971.217 353.098L971.217 357.462L966.852 357.462L966.852 353.098z"/>
<path class="l5" d="M1115.25 326.909L1119.62 326.909L1119.62 331.274L1115.25 331.274L1115.25 326.909z"/>
<path class="l5" d="M966.852 326.909L971.217 326.909L971.217 331.274L966.852 331.274L966.852 326.909z"/>
<path class="l5" d="M1045.42 379.286L1049.78 379.286L1049.78 383.651L1045.42 383.651L1045.42 379.286z"/>
<path class="l5" d="M1010.5 388.015L1014.86 388.015L1014.86 392.38L1010.5 392.38L1010.5 388.015z"/>
<path class="l5" d="M1046.51 424.024L1048.69 424.024L1048.69 426.207L1046.51 426.207L1046.51 424.024z"/>
<path class="l5" d="M1045.42 440.392L1049.78 440.392L1049.78 444.757L1045.42 444.757L1045.42 440.392z"/>
<path class="l5" d="M1045.42 492.769L1049.78 492.769L1049.78 497.134L1045.42 497.134L1045.42 492.769z"/>
<path class="l5" d="M1047.19 407.247L1048.01 407.247L1048.01 408.066L1047.19 408.066L1047.19 407.247z"/>
<path class="l5" d="M905.746 204.697L910.11 204.697L910.11 209.062L905.746 209.062L905.746 204.697z"/>
<path class="l5" d="M905.746 257.074L910.11 257.074L910.11 261.438L905.746 261.438L905.746 257.074z"/>
<path class="l6" d="M571.844 748.105L1265.84 748.105"/>
<path class="l6" d="M235.76 748.105L292.502 748.105"/>
<path class="l15" d="M841.366 295.265L846.822 288.718"/>
<path class="l15" d="M838.092 302.903L841.366 295.265"/>
<path class="l15" d="M846.822 278.897L846.822 290.9"/>
<path class="l15" d="M844.64 288.718L863.19 288.718"/>
<path class="l15" d="M849.004 285.444L853.369 285.444"/>
<path class="l15" d="M853.369 282.171L853.369 285.444"/>
<path class="l15" d="M853.369 282.171L856.643 282.171"/>
<path class="l15" d="M856.643 282.171L856.643 285.444"/>
<path class="l15" d="M856.643 285.444L859.916 285.444"/>
<path class="l15" d="M859.916 282.171L859.916 285.444"/>
<path class="l15" d="M859.916 282.171L862.371 282.171"/>
<path class="l15" d="M1277.84 321.453L1283.29 314.906"/>
<path class="l15" d="M1274.56 329.092L1277.84 321.453"/>
<path class="l15" d="M1283.29 305.086L1283.29 317.089"/>
<path class="l15" d="M1281.11 314.906L1299.66 314.906"/>
<path class="l15" d="M1285.48 311.633L1289.84 311.633"/>
<path class="l15" d="M1289.84 308.359L1289.84 311.633"/>
<path class="l15" d="M1289.84 308.359L1293.12 308.359"/>
<path class="l15" d="M1293.12 308.359L1293.12 311.633"/>
<path class="l15" d="M1293.12 311.633L1296.39 311.633"/>
<path class="l15" d="M1296.39 308.359L1296.39 311.633"/>
<path class="l15" d="M1296.39 308.359L1298.84 308.359"/>
<path class="l15" d="M1050.87 400.018L1056.33 393.471"/>
<path class="l15" d="M1047.6 407.657L1050.87 400.018"/>
<path class="l15" d="M1056.33 383.651L1056.33 395.654"/>
<path class="l15" d="M1054.15 393.471L1072.7 393.471"/>
<path class="l15" d="M1058.51 390.198L1062.88 390.198"/>
<path class="l15" d="M1062.88 386.924L1062.88 390.198"/>
<path class="l15" d="M1062.88 386.924L1066.15 386.924"/>
<path class="l15" d="M1066.15 386.924L1066.15 390.198"/>
<path class="l15" d="M1066.15 390.198L1069.42 390.198"/>
<path class="l15" d="M1069.42 386.924L1069.42 390.198"/>
<path class="l15" d="M1069.42 386.924L1071.88 386.924"/>
<path class="l1" d="M576.209 617.163L576.209 634.622"/>
<path class="l1" d="M646.045 617.163L646.045 634.622"/>
<path class="l1" d="M646.045 547.328L646.045 564.787"/>
<path class="l1" d="M1405.51 416.386L1405.51 547.328"/>
<path class="l1" d="M1230.92 329.092L1230.92 433.845"/>
<path class="l1" d="M907.928 433.845L1230.92 433.845"/>
<path class="l1" d="M907.928 355.28L907.928 433.845"/>
<path class="l1" d="M907.928 355.28L969.034 355.28"/>
<path class="l1" d="M733.339 433.845L733.339 547.328"/>
<path class="l1" d="M646.045 547.328L733.339 547.328"/>
<path class="l1" d="M733.339 302.903L733.339 381.468"/>
<path class="l1" d="M733.339 302.903L969.034 302.903"/>
<path class="l1" d="M907.928 329.092L969.034 329.092"/>
<path class="l1" d="M1230.92 329.092L1405.51 329.092"/>
<path class="l1" d="M1405.51 329.092L1405.51 364.009"/>
<path class="l1" d="M576.209 206.879L576.209 564.787"/>
<path class="l1" d="M1047.6 547.328L1405.51 547.328"/>
<path class="l1" d="M1117.43 329.092L1230.92 329.092"/>
<path class="l1" d="M1012.68 206.879L1012.68 267.985"/>
<path class="l1" d="M1012.68 390.198L1012.68 547.328"/>
<path class="l1" d="M733.339 547.328L1012.68 547.328"/>
<path class="l1" d="M1047.6 494.951L1047.6 547.328"/>
<path class="l1" d="M1012.68 547.328L1047.6 547.328"/>
<path class="l1" d="M1047.6 381.468L1047.6 442.574"/>
<path class="l1" d="M576.209 206.879L1012.68 206.879"/>
<path class="l1" d="M907.928 259.256L907.928 329.092"/>
<circle class="l1" cx="733.339" cy="547.328" r="3.2299"/>
<circle class="l1" cx="1012.68" cy="547.328" r="3.2299"/>
<circle class="l1" cx="733.339" cy="547.328" r="3.2299"/>
<circle class="l1" cx="733.339" cy="547.328" r="3.2299"/>
<circle class="l1" cx="1230.92" cy="329.092" r="3.2299"/>
<circle class="l1" cx="1012.68" cy="547.328" r="3.2299"/>
<circle class="l1" cx="1047.6" cy="547.328" r="3.2299"/>
<circle class="l1" cx="1047.6" cy="547.328" r="3.2299"/>
<circle class="l1" cx="1012.68" cy="547.328" r="3.2299"/>
<circle class="l1" cx="1047.6" cy="547.328" r="3.2299"/>
<circle class="l1" cx="1230.92" cy="329.092" r="3.2299"/>
<circle class="l1" cx="1230.92" cy="329.092" r="3.2299"/>
</svg>
