<svg xmlns="http://www.w3.org/2000/svg" xmlns:xlink="http://www.w3.org/1999/xlink" width="1908" height="889" version="1.1">
<style type="text/css">
.l0{
  fill: #ffffff;
  stroke: #ffffff;
  stroke-linecap:round;
  stroke-linejoin:round;
  stroke-width: 0.806549;
}
.l1{
  fill: #0044ee;
  stroke: #0044ee;
  stroke-linecap:round;
  stroke-linejoin:round;
  stroke-width: 0.806549;
}
.l2{
  fill: #aaaaaa; fill-opacity: 0.2;
  stroke: #aaaaaa;
  stroke-linecap:round;
  stroke-linejoin:round;
  stroke-width: 0.806549;
}
.l3{
  fill: #222222; fill-opacity: 0.5;
  stroke: #222222;
  stroke-linecap:round;
  stroke-linejoin:round;
  stroke-width: 0.806549;
}
.l4{
  fill: #229900;
  stroke: #229900;
  stroke-linecap:round;
  stroke-linejoin:round;
  stroke-width: 0.806549;
}
.l5{
  fill: #bb2200;
  stroke: #bb2200;
  stroke-linecap:round;
  stroke-linejoin:round;
  stroke-width: 0.806549;
}
.l6{
  fill: #00ccee; fill-opacity: 0.5;
  stroke: #00ccee;
  stroke-linecap:round;
  stroke-linejoin:round;
  stroke-width: 0.806549;
}
.l7{
  fill: #ff0000; fill-opacity: 0.5;
  stroke: #ff0000;
  stroke-linecap:round;
  stroke-linejoin:round;
  stroke-width: 0.806549;
}
.l8{
  fill: #888800; fill-opacity: 0.5;
  stroke: #888800;
  stroke-linecap:round;
  stroke-linejoin:round;
  stroke-width: 0.806549;
}
.l9{
  fill: #00aaaa; fill-opacity: 0.5;
  stroke: #00aaaa;
  stroke-linecap:round;
  stroke-linejoin:round;
  stroke-width: 0.806549;
}
.l10{
  fill: #880088;
  stroke: #880088;
  stroke-linecap:round;
  stroke-linejoin:round;
  stroke-width: 0.806549;
}
.l11{
  fill: #00ff00; fill-opacity: 0.5;
  stroke: #00ff00;
  stroke-linecap:round;
  stroke-linejoin:round;
  stroke-width: 0.806549;
}
.l12{
  fill: #0000cc; fill-opacity: 0.5;
  stroke: #0000cc;
  stroke-linecap:round;
  stroke-linejoin:round;
  stroke-width: 0.806549;
}
.l13{
  fill: #666600; fill-opacity: 0.5;
  stroke: #666600;
  stroke-linecap:round;
  stroke-linejoin:round;
  stroke-width: 0.806549;
}
.l14{
  fill: #557755; fill-opacity: 0.2;
  stroke: #557755;
  stroke-linecap:round;
  stroke-linejoin:round;
  stroke-width: 0.806549;
}
.l15{
  fill: #aa2222; fill-opacity: 0.5;
  stroke: #aa2222;
  stroke-linecap:round;
  stroke-linejoin:round;
  stroke-width: 0.806549;
}
.l16{
  fill: #7ccc40; fill-opacity: 0.5;
  stroke: #7ccc40;
  stroke-linecap:round;
  stroke-linejoin:round;
  stroke-width: 0.806549;
}
.l17{
  fill: #00ffcc; fill-opacity: 0.2;
  stroke: #00ffcc;
  stroke-linecap:round;
  stroke-linejoin:round;
  stroke-width: 0.806549;
}
.l18{
  fill: #ce0097; fill-opacity: 0.5;
  stroke: #ce0097;
  stroke-linecap:round;
  stroke-linejoin:round;
  stroke-width: 0.806549;
}
.l19{
  fill: #d2d46b; fill-opacity: 0.2;
  stroke: #d2d46b;
  stroke-linecap:round;
  stroke-linejoin:round;
  stroke-width: 0.806549;
}
.l20{
  fill: #ef6158; fill-opacity: 0.2;
  stroke: #ef6158;
  stroke-linecap:round;
  stroke-linejoin:round;
  stroke-width: 0.806549;
}
.l21{
  fill: #fdb200; fill-opacity: 0.2;
  stroke: #fdb200;
  stroke-linecap:round;
  stroke-linejoin:round;
  stroke-width: 0.806549;
}
text {font-family: Sans-Serif;}
</style>
<rect class="l0" x="0" y="0" width="1908" height="889"/>
<text fill="#0044ee"  xml:space="preserve" font-size="7.76676" transform="translate(790.889, 567.614)" >GND</text>
<text fill="#0044ee"  xml:space="preserve" font-size="12.8152" transform="translate(751.686, 487.715)" >v_ss</text>
<text fill="#0044ee"  xml:space="preserve" font-size="7.76676" transform="translate(678.868, 552.678)" >GND</text>
<text fill="#0044ee"  xml:space="preserve" font-size="12.8152" transform="translate(637.666, 480.247)" >v_dd</text>
<text fill="#0044ee"  xml:space="preserve" font-size="10.4851" transform="translate(881.909, 306.943)" >v_in</text>
<text fill="#0044ee"  xml:space="preserve" font-size="10.4851" transform="translate(1405.14, 329.347)" >v_out</text>
<text fill="#222222"  xml:space="preserve" font-size="7.76676" transform="translate(800.224, 512.537)" >Vss</text>
<text fill="#222222"  xml:space="preserve" font-size="7.76676" transform="translate(800.224, 531.207)" >0</text>
<text fill="#222222"  xml:space="preserve" font-size="7.76676" transform="translate(688.203, 497.601)" >Vdd</text>
<text fill="#222222"  xml:space="preserve" font-size="7.76676" transform="translate(688.203, 516.271)" >1.55</text>
<text fill="#222222"  xml:space="preserve" font-size="7.76676" transform="translate(874.904, 393.048)" >Vin</text>
<text fill="#222222"  xml:space="preserve" font-size="7.76676" transform="translate(874.904, 411.718)" >dc 0.7 ac 1</text>
<text fill="#222222"  xml:space="preserve" font-size="7.76676" transform="translate(1076.54, 235.286)" >I0</text>
<text fill="#222222"  xml:space="preserve" font-size="7.76676" transform="translate(1076.54, 244.194)" >10u</text>
<text fill="#666600"  xml:space="preserve" font-size="7.76676" transform="translate(1426.27, 372.511)" >1</text>
<text fill="#666600"  xml:space="preserve" font-size="7.76676" transform="translate(1426.27, 404.25)" >2</text>
<text fill="#222222"  xml:space="preserve" font-size="7.76676" transform="translate(1446.21, 378.112)" >C1</text>
<text fill="#222222"  xml:space="preserve" font-size="7.76676" transform="translate(1446.21, 387.447)" >2p</text>
<text fill="#222222"  xml:space="preserve" font-size="7.76676" transform="translate(1446.21, 396.782)" >m=1</text>
<text fill="#222222"  xml:space="preserve" font-size="11.6501" transform="translate(184.11, 604.746)" >MODEL1</text>
<text fill="#222222"  xml:space="preserve" font-size="11.6501" style="font-family:Monospace;" transform="translate(191.578, 623.416)" >.lib cornerMOSlv.lib mos_tt</text>
<text fill="#222222"  xml:space="preserve" font-size="11.6501" transform="translate(184.11, 164.132)" >NGSPICE1</text>
<text fill="#222222"  xml:space="preserve" font-size="11.6501" style="font-family:Monospace;" transform="translate(191.578, 196.164)" >.temp 27</text>
<text fill="#222222"  xml:space="preserve" font-size="11.6501" style="font-family:Monospace;" transform="translate(191.578, 209.527)" >.control</text>
<text fill="#222222"  xml:space="preserve" font-size="11.6501" style="font-family:Monospace;" transform="translate(191.578, 222.89)" >option sparse</text>
<text fill="#222222"  xml:space="preserve" font-size="11.6501" style="font-family:Monospace;" transform="translate(191.578, 236.253)" >save all</text>
<text fill="#222222"  xml:space="preserve" font-size="11.6501" style="font-family:Monospace;" transform="translate(191.578, 249.615)" >op</text>
<text fill="#222222"  xml:space="preserve" font-size="11.6501" style="font-family:Monospace;" transform="translate(191.578, 262.978)" >write tb_5t_ota_ac.raw</text>
<text fill="#222222"  xml:space="preserve" font-size="11.6501" style="font-family:Monospace;" transform="translate(191.578, 276.341)" >set appendwrite</text>
<text fill="#222222"  xml:space="preserve" font-size="11.6501" style="font-family:Monospace;" transform="translate(191.578, 303.066)" >ac dec 101 1k 1G</text>
<text fill="#222222"  xml:space="preserve" font-size="11.6501" style="font-family:Monospace;" transform="translate(191.578, 316.429)" >write tb_5t_ota_ac.raw</text>
<text fill="#222222"  xml:space="preserve" font-size="11.6501" style="font-family:Monospace;" transform="translate(191.578, 329.792)" >plot 20*log10(v_out)</text>
<text fill="#222222"  xml:space="preserve" font-size="11.6501" style="font-family:Monospace;" transform="translate(191.578, 356.517)" >meas ac dcgain MAX vmag(v_out) FROM=10 TO=10k</text>
<text fill="#222222"  xml:space="preserve" font-size="11.6501" style="font-family:Monospace;" transform="translate(191.578, 369.88)" >let f3db = dcgain/sqrt(2)</text>
<text fill="#222222"  xml:space="preserve" font-size="11.6501" style="font-family:Monospace;" transform="translate(191.578, 383.242)" >meas ac fbw WHEN vmag(v_out)=f3db FALL=1</text>
<text fill="#222222"  xml:space="preserve" font-size="11.6501" style="font-family:Monospace;" transform="translate(191.578, 396.605)" >let gainerror=(dcgain-1)/1</text>
<text fill="#222222"  xml:space="preserve" font-size="11.6501" style="font-family:Monospace;" transform="translate(191.578, 409.968)" >print dcgain</text>
<text fill="#222222"  xml:space="preserve" font-size="11.6501" style="font-family:Monospace;" transform="translate(191.578, 423.331)" >print fbw</text>
<text fill="#222222"  xml:space="preserve" font-size="11.6501" style="font-family:Monospace;" transform="translate(191.578, 436.693)" >print gainerror</text>
<text fill="#222222"  xml:space="preserve" font-size="11.6501" style="font-family:Monospace;" transform="translate(191.578, 490.144)" >plot 180/pi*ph(v_out) vs frequency</text>
<text fill="#222222"  xml:space="preserve" font-size="11.6501" style="font-family:Monospace;" transform="translate(191.578, 516.87)" >noise v(v_out) Vin dec 101 1k 100MEG</text>
<text fill="#222222"  xml:space="preserve" font-size="11.6501" style="font-family:Monospace;" transform="translate(191.578, 530.232)" >print onoise_total</text>
<text fill="#222222"  xml:space="preserve" font-size="11.6501" style="font-family:Monospace;" transform="translate(191.578, 556.958)" >.endc</text>
<text fill="#222222"  xml:space="preserve" font-size="11.6501" transform="translate(1191.18, 391.16)" >foldedcascode_nmos</text>
<text fill="#222222"  xml:space="preserve" font-size="7.76676" transform="translate(1214.7, 301.005)" >x1</text>
<text fill="#222222"  xml:space="preserve" font-size="7.76676" transform="translate(1177.36, 314.447)" >AVDD</text>
<text fill="#222222"  xml:space="preserve" font-size="7.76676" transform="translate(1117.62, 314.447)" >PLUS</text>
<text fill="#222222"  xml:space="preserve" font-size="7.76676" transform="translate(1117.62, 359.255)" >MINUS</text>
<text fill="#222222"  xml:space="preserve" font-size="7.76676" transform="translate(1219.1, 344.319)" >Vout</text>
<text fill="#222222"  xml:space="preserve" font-size="7.76676" transform="translate(1117.62, 336.851)" >Ibias</text>
<text fill="#222222"  xml:space="preserve" font-size="7.76676" transform="translate(1177.36, 359.255)" >AVSS</text>
<text fill="#222222"  xml:space="preserve" font-size="15.5335" transform="translate(669.533, 694.155)" >         tb_foldedcascode_n_ac.sch</text>
<text fill="#222222"  xml:space="preserve" font-size="15.5335" transform="translate(669.533, 671.75)" >(c) 2025 Thesis_HP, Apache-2.0 license</text>
<text fill="#222222"  xml:space="preserve" font-size="15.5335" transform="translate(1083.77, 671.75)" >2025-06-05  20:47:01</text>
<text fill="#222222"  xml:space="preserve" font-size="38.8338" transform="translate(497.768, 692.907)" >SCHEM</text>
<path class="l4" d="M787.155 502.684L790.889 502.684"/>
<path class="l4" d="M789.022 500.817L789.022 504.551"/>
<path class="l4" d="M785.288 497.083L785.288 541.891"/>
<circle class="l4" cx="785.288" cy="519.487" r="11.2021" style="fill:none;" />
<path class="l4" d="M785.288 556.827L785.288 566.163"/>
<path class="l4" d="M781.553 566.163L789.022 566.163"/>
<path class="l4" d="M785.288 569.897L789.022 566.163"/>
<path class="l4" d="M781.553 566.163L785.288 569.897"/>
<path class="l4" d="M675.134 487.748L678.868 487.748"/>
<path class="l4" d="M677.001 485.881L677.001 489.615"/>
<path class="l4" d="M673.267 482.147L673.267 526.955"/>
<circle class="l4" cx="673.267" cy="504.551" r="11.2021" style="fill:none;" />
<path class="l4" d="M673.267 541.891L673.267 551.226"/>
<path class="l4" d="M669.533 551.226L677.001 551.226"/>
<path class="l4" d="M673.267 554.96L677.001 551.226"/>
<path class="l4" d="M669.533 551.226L673.267 554.96"/>
<path class="l4" d="M861.835 383.196L865.569 383.196"/>
<path class="l4" d="M863.702 381.329L863.702 385.063"/>
<path class="l4" d="M859.968 377.594L859.968 422.403"/>
<circle class="l4" cx="859.968" cy="399.999" r="11.2021" style="fill:none;" />
<path class="l4" d="M1061.61 213.298L1061.61 224.5"/>
<path class="l4" d="M1061.61 246.904L1061.61 258.106"/>
<path class="l4" d="M1063.47 218.899L1067.21 218.899"/>
<path class="l4" d="M1065.34 217.032L1065.34 220.766"/>
<path class="l4" d="M1061.61 230.101L1061.61 237.569L1063.47 237.569L1061.61 243.17L1059.74 237.569L1061.61 237.569L1061.61 230.101"/>
<circle class="l4" cx="1061.61" cy="235.702" r="11.2021" style="fill:none;" />
<path class="l4" d="M1435.01 388.797L1435.01 407.467"/>
<path class="l4" d="M1435.01 362.658L1435.01 381.329"/>
<path class="l4" d="M1427.54 381.329L1442.48 381.329"/>
<path class="l4" d="M1427.54 388.797L1442.48 388.797"/>
<path class="l4" d="M1436.87 368.259L1440.61 368.259"/>
<path class="l4" d="M1438.74 366.392L1438.74 370.126"/>
<path class="l4" d="M180.376 609.104L232.652 609.104"/>
<path class="l4" d="M180.376 609.104L180.376 624.04"/>
<path class="l4" d="M180.376 168.489L232.652 168.489"/>
<path class="l4" d="M180.376 168.489L180.376 183.425"/>
<path class="l4" d="M1173.63 302.914L1173.63 317.85"/>
<path class="l4" d="M1098.95 310.382L1113.88 310.382"/>
<path class="l4" d="M1098.95 355.19L1113.88 355.19"/>
<path class="l4" d="M1210.97 332.786L1225.9 332.786"/>
<path class="l4" d="M1098.95 332.786L1113.88 332.786"/>
<path class="l4" d="M1173.63 347.722L1173.63 362.658"/>
<path class="l4" style="fill:none;" d="M1210.97 332.786L1113.88 295.446L1113.88 370.126L1210.97 332.786L1210.97 332.786"/>
<path class="l5" d="M783.421 495.216L787.155 495.216L787.155 498.95L783.421 498.95L783.421 495.216z"/>
<path class="l5" d="M783.421 540.024L787.155 540.024L787.155 543.758L783.421 543.758L783.421 540.024z"/>
<path class="l5" d="M783.421 554.96L787.155 554.96L787.155 558.694L783.421 558.694L783.421 554.96z"/>
<path class="l5" d="M784.354 481.214L786.221 481.214L786.221 483.081L784.354 483.081L784.354 481.214z"/>
<path class="l5" d="M671.4 480.28L675.134 480.28L675.134 484.014L671.4 484.014L671.4 480.28z"/>
<path class="l5" d="M671.4 525.088L675.134 525.088L675.134 528.822L671.4 528.822L671.4 525.088z"/>
<path class="l5" d="M671.4 540.024L675.134 540.024L675.134 543.758L671.4 543.758L671.4 540.024z"/>
<path class="l5" d="M672.333 473.746L674.2 473.746L674.2 475.613L672.333 475.613L672.333 473.746z"/>
<path class="l5" d="M858.101 375.727L861.835 375.727L861.835 379.461L858.101 379.461L858.101 375.727z"/>
<path class="l5" d="M858.101 420.536L861.835 420.536L861.835 424.27L858.101 424.27L858.101 420.536z"/>
<path class="l5" d="M903.843 309.449L905.71 309.449L905.71 311.316L903.843 311.316L903.843 309.449z"/>
<path class="l5" d="M949.234 310.032L949.935 310.032L949.935 310.732L949.234 310.732L949.234 310.032z"/>
<path class="l5" d="M1059.74 211.431L1063.47 211.431L1063.47 215.165L1059.74 215.165L1059.74 211.431z"/>
<path class="l5" d="M1059.74 256.239L1063.47 256.239L1063.47 259.973L1059.74 259.973L1059.74 256.239z"/>
<path class="l5" d="M1433.14 360.791L1436.87 360.791L1436.87 364.525L1433.14 364.525L1433.14 360.791z"/>
<path class="l5" d="M1433.14 405.6L1436.87 405.6L1436.87 409.334L1433.14 409.334L1433.14 405.6z"/>
<path class="l5" d="M1434.07 331.853L1435.94 331.853L1435.94 333.72L1434.07 333.72L1434.07 331.853z"/>
<path class="l5" d="M1345.04 332.436L1345.74 332.436L1345.74 333.136L1345.04 333.136L1345.04 332.436z"/>
<path class="l5" d="M1171.76 301.047L1175.49 301.047L1175.49 304.781L1171.76 304.781L1171.76 301.047z"/>
<path class="l5" d="M1097.08 308.515L1100.81 308.515L1100.81 312.249L1097.08 312.249L1097.08 308.515z"/>
<path class="l5" d="M1097.08 353.323L1100.81 353.323L1100.81 357.057L1097.08 357.057L1097.08 353.323z"/>
<path class="l5" d="M1224.03 330.919L1227.77 330.919L1227.77 334.653L1224.03 334.653L1224.03 330.919z"/>
<path class="l5" d="M1097.08 330.919L1100.81 330.919L1100.81 334.653L1097.08 334.653L1097.08 330.919z"/>
<path class="l5" d="M1171.76 360.791L1175.49 360.791L1175.49 364.525L1171.76 364.525L1171.76 360.791z"/>
<path class="l5" d="M486.566 665.114L486.332 665.347L486.099 665.581L485.866 665.814L485.632 666.048L485.399 666.281L485.166 666.514L484.932 666.748L484.699 666.981L484.465 667.214L484.232 667.448L483.999 667.681L483.765 667.915L483.532 668.148L483.299 668.381L483.065 668.615L482.832 668.848L482.598 669.081L482.365 669.315L482.132 669.548L481.898 669.782L481.665 670.015L481.432 670.248L481.198 670.482L480.965 670.715L480.731 670.948L480.498 671.182L480.265 671.415L480.031 671.649L479.798 671.882L479.565 672.115L479.331 672.349L479.098 672.582L479.098 672.582L478.872 672.816L478.66 673.049L478.463 673.282L478.281 673.516L478.113 673.749L477.96 673.982L477.822 674.216L477.698 674.449L477.588 674.683L477.493 674.916L477.413 675.149L477.347 675.383L477.296 675.616L477.26 675.849L477.238 676.083L477.231 676.316L477.238 676.55L477.26 676.783L477.296 677.016L477.347 677.25L477.413 677.483L477.493 677.716L477.588 677.95L477.698 678.183L477.822 678.417L477.96 678.65L478.113 678.883L478.281 679.117L478.463 679.35L478.66 679.583L478.872 679.817L479.098 680.05L479.098 680.05L479.332 680.284L479.568 680.521L479.806 680.759L480.046 680.998L480.287 681.24L480.531 681.483L480.776 681.728L481.023 681.976L481.272 682.224L481.523 682.475L481.775 682.728L482.03 682.982L482.286 683.238L482.544 683.496L482.804 683.756L483.065 684.018L483.329 684.281L483.594 684.546L483.861 684.813L484.13 685.082L484.401 685.353L484.673 685.626L484.948 685.9L485.224 686.176L485.502 686.454L485.782 686.734L486.064 687.016L486.347 687.299L486.632 687.585L486.92 687.872L487.209 688.161L487.499 688.452L487.499 688.452L487.789 688.742L488.075 689.028L488.358 689.31L488.637 689.589L488.912 689.865L489.184 690.136L489.452 690.404L489.716 690.669L489.977 690.93L490.234 691.187L490.488 691.44L490.737 691.69L490.984 691.936L491.226 692.178L491.465 692.417L491.7 692.652L491.932 692.884L492.16 693.112L492.384 693.336L492.604 693.557L492.821 693.774L493.035 693.987L493.244 694.197L493.45 694.403L493.653 694.605L493.852 694.804L494.047 694.999L494.238 695.19L494.426 695.378L494.61 695.562L494.791 695.743L494.967 695.92L494.967 695.92L495.137 696.092L495.296 696.259L495.443 696.42L495.58 696.576L495.706 696.727L495.821 696.872L495.925 697.011L496.018 697.145L496.1 697.274L496.171 697.397L496.231 697.514L496.28 697.626L496.318 697.733L496.346 697.834L496.362 697.93L496.368 698.02L496.362 698.105L496.346 698.184L496.318 698.258L496.28 698.326L496.231 698.389L496.171 698.447L496.1 698.499L496.018 698.545L495.925 698.586L495.821 698.622L495.706 698.652L495.58 698.677L495.443 698.696L495.296 698.709L495.137 698.718L494.967 698.72L494.967 698.72L494.792 698.72L494.617 698.72L494.442 698.72L494.267 698.72L494.092 698.72L493.917 698.72L493.742 698.72L493.567 698.72L493.392 698.72L493.217 698.72L493.042 698.72L492.867 698.72L492.692 698.72L492.517 698.72L492.342 698.72L492.167 698.72L491.992 698.72L491.817 698.72L491.642 698.72L491.467 698.72L491.292 698.72L491.117 698.72L490.942 698.72L490.767 698.72L490.592 698.72L490.417 698.72L490.242 698.72L490.066 698.72L489.891 698.72L489.716 698.72L489.541 698.72L489.366 698.72L489.366 698.72L489.192 698.72L489.02 698.72L488.849 698.72L488.681 698.72L488.514 698.72L488.349 698.72L488.186 698.72L488.024 698.72L487.865 698.72L487.707 698.72L487.551 698.72L487.397 698.72L487.245 698.72L487.095 698.72L486.946 698.72L486.799 698.72L486.654 698.72L486.511 698.72L486.37 698.72L486.23 698.72L486.093 698.72L485.957 698.72L485.823 698.72L485.691 698.72L485.56 698.72L485.432 698.72L485.305 698.72L485.18 698.72L485.057 698.72L484.936 698.72L484.816 698.72L484.699 698.72L484.699 698.72L484.582 698.718L484.465 698.713L484.349 698.704L484.232 698.691L484.115 698.675L483.999 698.655L483.882 698.631L483.765 698.604L483.649 698.573L483.532 698.538L483.415 698.5L483.299 698.458L483.182 698.412L483.065 698.363L482.949 698.31L482.832 698.254L482.715 698.193L482.598 698.13L482.482 698.062L482.365 697.991L482.248 697.916L482.132 697.838L482.015 697.756L481.898 697.67L481.782 697.581L481.665 697.488L481.548 697.391L481.432 697.291L481.315 697.187L481.198 697.079L481.082 696.968L480.965 696.853L480.965 696.853L480.848 696.737L480.731 696.62L480.615 696.503L480.498 696.387L480.381 696.27L480.265 696.153L480.148 696.036L480.031 695.92L479.915 695.803L479.798 695.686L479.681 695.57L479.565 695.453L479.448 695.336L479.331 695.22L479.214 695.103L479.098 694.986L478.981 694.87L478.864 694.753L478.748 694.636L478.631 694.52L478.514 694.403L478.398 694.286L478.281 694.169L478.164 694.053L478.048 693.936L477.931 693.819L477.814 693.703L477.698 693.586L477.581 693.469L477.464 693.353L477.347 693.236L477.231 693.119L477.231 693.119L477.112 693.001L476.99 692.879L476.864 692.753L476.735 692.623L476.602 692.49L476.465 692.353L476.325 692.213L476.181 692.069L476.033 691.921L475.882 691.77L475.727 691.615L475.568 691.456L475.406 691.294L475.24 691.128L475.07 690.959L474.897 690.785L474.72 690.609L474.54 690.428L474.356 690.244L474.168 690.056L473.976 689.865L473.781 689.67L473.582 689.471L473.38 689.269L473.174 689.063L472.964 688.853L472.751 688.64L472.534 688.423L472.313 688.202L472.089 687.978L471.861 687.75L471.63 687.518L471.63 687.518L471.396 687.292L471.163 687.081L470.93 686.884L470.696 686.701L470.463 686.534L470.23 686.381L469.996 686.242L469.763 686.118L469.529 686.009L469.296 685.914L469.063 685.834L468.829 685.768L468.596 685.717L468.362 685.68L468.129 685.658L467.896 685.651L467.662 685.658L467.429 685.68L467.196 685.717L466.962 685.768L466.729 685.834L466.495 685.914L466.262 686.009L466.029 686.118L465.795 686.242L465.562 686.381L465.329 686.534L465.095 686.701L464.862 686.884L464.628 687.081L464.395 687.292L464.162 687.518L464.162 687.518L463.93 687.75L463.702 687.978L463.478 688.202L463.257 688.423L463.04 688.64L462.827 688.853L462.617 689.063L462.411 689.269L462.209 689.471L462.01 689.67L461.815 689.865L461.624 690.056L461.436 690.244L461.252 690.428L461.071 690.609L460.894 690.785L460.721 690.959L460.552 691.128L460.386 691.294L460.223 691.456L460.065 691.615L459.91 691.77L459.759 691.921L459.611 692.069L459.467 692.213L459.326 692.353L459.19 692.49L459.057 692.623L458.927 692.753L458.801 692.879L458.679 693.001L458.561 693.119L458.561 693.119L458.444 693.236L458.327 693.353L458.211 693.469L458.094 693.586L457.977 693.703L457.861 693.819L457.744 693.936L457.627 694.053L457.51 694.169L457.394 694.286L457.277 694.403L457.16 694.52L457.044 694.636L456.927 694.753L456.81 694.87L456.694 694.986L456.577 695.103L456.46 695.22L456.344 695.336L456.227 695.453L456.11 695.57L455.994 695.686L455.877 695.803L455.76 695.92L455.643 696.036L455.527 696.153L455.41 696.27L455.293 696.387L455.177 696.503L455.06 696.62L454.943 696.737L454.827 696.853L454.827 696.853L454.71 696.968L454.593 697.079L454.477 697.187L454.36 697.291L454.243 697.391L454.127 697.488L454.01 697.581L453.893 697.67L453.776 697.756L453.66 697.838L453.543 697.916L453.426 697.991L453.31 698.062L453.193 698.13L453.076 698.193L452.96 698.254L452.843 698.31L452.726 698.363L452.61 698.412L452.493 698.458L452.376 698.5L452.26 698.538L452.143 698.573L452.026 698.604L451.909 698.631L451.793 698.655L451.676 698.675L451.559 698.691L451.443 698.704L451.326 698.713L451.209 698.718L451.093 698.72L451.093 698.72L450.975 698.72L450.856 698.72L450.734 698.72L450.611 698.72L450.486 698.72L450.36 698.72L450.231 698.72L450.101 698.72L449.969 698.72L449.835 698.72L449.699 698.72L449.561 698.72L449.422 698.72L449.28 698.72L449.137 698.72L448.992 698.72L448.845 698.72L448.697 698.72L448.546 698.72L448.394 698.72L448.24 698.72L448.084 698.72L447.927 698.72L447.767 698.72L447.606 698.72L447.442 698.72L447.277 698.72L447.111 698.72L446.942 698.72L446.772 698.72L446.599 698.72L446.425 698.72L446.425 698.72L446.25 698.72L446.075 698.72L445.9 698.72L445.725 698.72L445.55 698.72L445.375 698.72L445.2 698.72L445.025 698.72L444.85 698.72L444.675 698.72L444.5 698.72L444.325 698.72L444.15 698.72L443.975 698.72L443.8 698.72L443.625 698.72L443.45 698.72L443.275 698.72L443.1 698.72L442.924 698.72L442.749 698.72L442.574 698.72L442.399 698.72L442.224 698.72L442.049 698.72L441.874 698.72L441.699 698.72L441.524 698.72L441.349 698.72L441.174 698.72L440.999 698.72L440.824 698.72L440.824 698.72L440.655 698.718L440.496 698.709L440.348 698.696L440.211 698.677L440.086 698.652L439.971 698.622L439.867 698.586L439.774 698.545L439.692 698.499L439.621 698.447L439.561 698.389L439.511 698.326L439.473 698.258L439.446 698.184L439.429 698.105L439.424 698.02L439.429 697.93L439.446 697.834L439.473 697.733L439.511 697.626L439.561 697.514L439.621 697.397L439.692 697.274L439.774 697.145L439.867 697.011L439.971 696.872L440.086 696.727L440.211 696.576L440.348 696.42L440.496 696.259L440.655 696.092L440.824 695.92L440.824 695.92L441.001 695.743L441.181 695.562L441.366 695.378L441.553 695.19L441.745 694.999L441.94 694.804L442.139 694.605L442.341 694.403L442.547 694.197L442.757 693.987L442.97 693.774L443.187 693.557L443.408 693.336L443.632 693.112L443.86 692.884L444.091 692.652L444.327 692.417L444.565 692.178L444.808 691.936L445.054 691.69L445.304 691.44L445.557 691.187L445.814 690.93L446.075 690.669L446.339 690.404L446.607 690.136L446.879 689.865L447.154 689.589L447.433 689.31L447.716 689.028L448.002 688.742L448.292 688.452L448.292 688.452L448.583 688.161L448.872 687.872L449.159 687.585L449.444 687.299L449.728 687.016L450.01 686.734L450.29 686.454L450.568 686.176L450.844 685.9L451.118 685.626L451.391 685.353L451.662 685.082L451.93 684.813L452.198 684.546L452.463 684.281L452.726 684.018L452.988 683.756L453.248 683.496L453.506 683.238L453.762 682.982L454.016 682.728L454.269 682.475L454.519 682.224L454.768 681.976L455.015 681.728L455.261 681.483L455.504 681.24L455.746 680.998L455.985 680.759L456.223 680.521L456.459 680.284L456.694 680.05L456.694 680.05L456.92 679.817L457.131 679.583L457.328 679.35L457.51 679.117L457.678 678.883L457.831 678.65L457.97 678.417L458.094 678.183L458.203 677.95L458.298 677.716L458.378 677.483L458.444 677.25L458.495 677.016L458.532 676.783L458.553 676.55L458.561 676.316L458.553 676.083L458.532 675.849L458.495 675.616L458.444 675.383L458.378 675.149L458.298 674.916L458.203 674.683L458.094 674.449L457.97 674.216L457.831 673.982L457.678 673.749L457.51 673.516L457.328 673.282L457.131 673.049L456.92 672.816L456.694 672.582L456.694 672.582L456.459 672.348L456.223 672.112L455.985 671.874L455.746 671.634L455.504 671.392L455.261 671.149L455.015 670.904L454.768 670.657L454.519 670.408L454.269 670.157L454.016 669.905L453.762 669.65L453.506 669.394L453.248 669.136L452.988 668.876L452.726 668.615L452.463 668.351L452.198 668.086L451.93 667.819L451.662 667.55L451.391 667.279L451.118 667.007L450.844 666.732L450.568 666.456L450.29 666.178L450.01 665.898L449.728 665.616L449.444 665.333L449.159 665.048L448.872 664.76L448.583 664.471L448.292 664.181L448.292 664.181L448.002 663.891L447.716 663.604L447.433 663.322L447.154 663.043L446.879 662.768L446.607 662.496L446.339 662.228L446.075 661.964L445.814 661.703L445.557 661.446L445.304 661.192L445.054 660.942L444.808 660.696L444.565 660.454L444.327 660.215L444.091 659.98L443.86 659.748L443.632 659.52L443.408 659.296L443.187 659.075L442.97 658.859L442.757 658.645L442.547 658.436L442.341 658.229L442.139 658.027L441.94 657.828L441.745 657.633L441.553 657.442L441.366 657.254L441.181 657.07L441.001 656.889L440.824 656.713L440.824 656.713L440.655 656.54L440.496 656.373L440.348 656.212L440.211 656.056L440.086 655.906L439.971 655.761L439.867 655.621L439.774 655.487L439.692 655.359L439.621 655.236L439.561 655.118L439.511 655.006L439.473 654.899L439.446 654.798L439.429 654.702L439.424 654.612L439.429 654.527L439.446 654.448L439.473 654.374L439.511 654.306L439.561 654.243L439.621 654.186L439.692 654.134L439.774 654.087L439.867 654.046L439.971 654.01L440.086 653.98L440.211 653.956L440.348 653.937L440.496 653.923L440.655 653.915L440.824 653.912L440.824 653.912L440.999 653.912L441.174 653.912L441.349 653.912L441.524 653.912L441.699 653.912L441.874 653.912L442.049 653.912L442.224 653.912L442.399 653.912L442.574 653.912L442.749 653.912L442.924 653.912L443.1 653.912L443.275 653.912L443.45 653.912L443.625 653.912L443.8 653.912L443.975 653.912L444.15 653.912L444.325 653.912L444.5 653.912L444.675 653.912L444.85 653.912L445.025 653.912L445.2 653.912L445.375 653.912L445.55 653.912L445.725 653.912L445.9 653.912L446.075 653.912L446.25 653.912L446.425 653.912L446.425 653.912L446.599 653.912L446.772 653.912L446.942 653.912L447.111 653.912L447.277 653.912L447.442 653.912L447.606 653.912L447.767 653.912L447.927 653.912L448.084 653.912L448.24 653.912L448.394 653.912L448.546 653.912L448.697 653.912L448.845 653.912L448.992 653.912L449.137 653.912L449.28 653.912L449.422 653.912L449.561 653.912L449.699 653.912L449.835 653.912L449.969 653.912L450.101 653.912L450.231 653.912L450.36 653.912L450.486 653.912L450.611 653.912L450.734 653.912L450.856 653.912L450.975 653.912L451.093 653.912L451.093 653.912L451.209 653.914L451.326 653.919L451.443 653.928L451.559 653.941L451.676 653.958L451.793 653.978L451.909 654.001L452.026 654.029L452.143 654.06L452.26 654.094L452.376 654.133L452.493 654.175L452.61 654.22L452.726 654.269L452.843 654.322L452.96 654.379L453.076 654.439L453.193 654.503L453.31 654.57L453.426 654.641L453.543 654.716L453.66 654.794L453.776 654.877L453.893 654.962L454.01 655.052L454.127 655.145L454.243 655.241L454.36 655.341L454.477 655.445L454.593 655.553L454.71 655.664L454.827 655.779L454.827 655.779L454.943 655.896L455.06 656.012L455.177 656.129L455.293 656.246L455.41 656.362L455.527 656.479L455.643 656.596L455.76 656.713L455.877 656.829L455.994 656.946L456.11 657.063L456.227 657.179L456.344 657.296L456.46 657.413L456.577 657.529L456.694 657.646L456.81 657.763L456.927 657.879L457.044 657.996L457.16 658.113L457.277 658.229L457.394 658.346L457.51 658.463L457.627 658.58L457.744 658.696L457.861 658.813L457.977 658.93L458.094 659.046L458.211 659.163L458.327 659.28L458.444 659.396L458.561 659.513L458.561 659.513L458.679 659.632L458.801 659.754L458.927 659.88L459.057 660.009L459.19 660.142L459.326 660.279L459.467 660.419L459.611 660.563L459.759 660.711L459.91 660.862L460.065 661.017L460.223 661.176L460.386 661.338L460.552 661.504L460.721 661.674L460.894 661.847L461.071 662.024L461.252 662.204L461.436 662.388L461.624 662.576L461.815 662.768L462.01 662.963L462.209 663.161L462.411 663.364L462.617 663.57L462.827 663.779L463.04 663.993L463.257 664.21L463.478 664.43L463.702 664.655L463.93 664.883L464.162 665.114L464.162 665.114L464.395 665.34L464.628 665.552L464.862 665.749L465.095 665.931L465.329 666.099L465.562 666.252L465.795 666.39L466.029 666.514L466.262 666.624L466.495 666.719L466.729 666.799L466.962 666.864L467.196 666.915L467.429 666.952L467.662 666.974L467.896 666.981L468.129 666.974L468.362 666.952L468.596 666.915L468.829 666.864L469.063 666.799L469.296 666.719L469.529 666.624L469.763 666.514L469.996 666.39L470.23 666.252L470.463 666.099L470.696 665.931L470.93 665.749L471.163 665.552L471.396 665.34L471.63 665.114L471.63 665.114L471.861 664.883L472.089 664.655L472.313 664.43L472.534 664.21L472.751 663.993L472.964 663.779L473.174 663.57L473.38 663.364L473.582 663.161L473.781 662.963L473.976 662.768L474.168 662.576L474.356 662.388L474.54 662.204L474.72 662.024L474.897 661.847L475.07 661.674L475.24 661.504L475.406 661.338L475.568 661.176L475.727 661.017L475.882 660.862L476.033 660.711L476.181 660.563L476.325 660.419L476.465 660.279L476.602 660.142L476.735 660.009L476.864 659.88L476.99 659.754L477.112 659.632L477.231 659.513L477.231 659.513L477.347 659.396L477.464 659.28L477.581 659.163L477.698 659.046L477.814 658.93L477.931 658.813L478.048 658.696L478.164 658.58L478.281 658.463L478.398 658.346L478.514 658.229L478.631 658.113L478.748 657.996L478.864 657.879L478.981 657.763L479.098 657.646L479.214 657.529L479.331 657.413L479.448 657.296L479.565 657.179L479.681 657.063L479.798 656.946L479.915 656.829L480.031 656.713L480.148 656.596L480.265 656.479L480.381 656.362L480.498 656.246L480.615 656.129L480.731 656.012L480.848 655.896L480.965 655.779L480.965 655.779L481.082 655.664L481.198 655.553L481.315 655.445L481.432 655.341L481.548 655.241L481.665 655.145L481.782 655.052L481.898 654.962L482.015 654.877L482.132 654.794L482.248 654.716L482.365 654.641L482.482 654.57L482.598 654.503L482.715 654.439L482.832 654.379L482.949 654.322L483.065 654.269L483.182 654.22L483.299 654.175L483.415 654.133L483.532 654.094L483.649 654.06L483.765 654.029L483.882 654.001L483.999 653.978L484.115 653.958L484.232 653.941L484.349 653.928L484.465 653.919L484.582 653.914L484.699 653.912L484.699 653.912L484.816 653.912L484.936 653.912L485.057 653.912L485.18 653.912L485.305 653.912L485.432 653.912L485.56 653.912L485.691 653.912L485.823 653.912L485.957 653.912L486.093 653.912L486.23 653.912L486.37 653.912L486.511 653.912L486.654 653.912L486.799 653.912L486.946 653.912L487.095 653.912L487.245 653.912L487.397 653.912L487.551 653.912L487.707 653.912L487.865 653.912L488.024 653.912L488.186 653.912L488.349 653.912L488.514 653.912L488.681 653.912L488.849 653.912L489.02 653.912L489.192 653.912L489.366 653.912L489.366 653.912L489.541 653.912L489.716 653.912L489.891 653.912L490.066 653.912L490.242 653.912L490.417 653.912L490.592 653.912L490.767 653.912L490.942 653.912L491.117 653.912L491.292 653.912L491.467 653.912L491.642 653.912L491.817 653.912L491.992 653.912L492.167 653.912L492.342 653.912L492.517 653.912L492.692 653.912L492.867 653.912L493.042 653.912L493.217 653.912L493.392 653.912L493.567 653.912L493.742 653.912L493.917 653.912L494.092 653.912L494.267 653.912L494.442 653.912L494.617 653.912L494.792 653.912L494.967 653.912L494.967 653.912L495.137 653.915L495.296 653.923L495.443 653.937L495.58 653.956L495.706 653.98L495.821 654.01L495.925 654.046L496.018 654.087L496.1 654.134L496.171 654.186L496.231 654.243L496.28 654.306L496.318 654.374L496.346 654.448L496.362 654.527L496.368 654.612L496.362 654.702L496.346 654.798L496.318 654.899L496.28 655.006L496.231 655.118L496.171 655.236L496.1 655.359L496.018 655.487L495.925 655.621L495.821 655.761L495.706 655.906L495.58 656.056L495.443 656.212L495.296 656.373L495.137 656.54L494.967 656.713L494.967 656.713L494.79 656.89L494.606 657.074L494.418 657.262L494.224 657.456L494.024 657.656L493.819 657.861L493.608 658.072L493.392 658.288L493.171 658.509L492.944 658.736L492.711 658.969L492.473 659.207L492.23 659.45L491.981 659.699L491.727 659.953L491.467 660.213L491.201 660.478L490.931 660.749L490.654 661.025L490.373 661.307L490.086 661.594L489.793 661.887L489.495 662.185L489.191 662.489L488.882 662.798L488.568 663.112L488.248 663.432L487.922 663.758L487.591 664.089L487.255 664.425L486.913 664.767L486.566 665.114"/>
<path class="l6" d="M662.065 676.316L1255.77 676.316"/>
<path class="l6" d="M374.545 676.316L423.087 676.316"/>
<path class="l15" d="M952.385 303.848L957.052 298.247"/>
<path class="l15" d="M949.584 310.382L952.385 303.848"/>
<path class="l15" d="M957.052 289.845L957.052 300.114"/>
<path class="l15" d="M955.185 298.247L971.055 298.247"/>
<path class="l15" d="M958.919 295.446L962.654 295.446"/>
<path class="l15" d="M962.654 292.646L962.654 295.446"/>
<path class="l15" d="M962.654 292.646L965.454 292.646"/>
<path class="l15" d="M965.454 292.646L965.454 295.446"/>
<path class="l15" d="M965.454 295.446L968.255 295.446"/>
<path class="l15" d="M968.255 292.646L968.255 295.446"/>
<path class="l15" d="M968.255 292.646L970.355 292.646"/>
<path class="l15" d="M1348.19 326.252L1352.86 320.651"/>
<path class="l15" d="M1345.39 332.786L1348.19 326.252"/>
<path class="l15" d="M1352.86 312.249L1352.86 322.518"/>
<path class="l15" d="M1350.99 320.651L1366.86 320.651"/>
<path class="l15" d="M1354.73 317.85L1358.46 317.85"/>
<path class="l15" d="M1358.46 315.05L1358.46 317.85"/>
<path class="l15" d="M1358.46 315.05L1361.26 315.05"/>
<path class="l15" d="M1361.26 315.05L1361.26 317.85"/>
<path class="l15" d="M1361.26 317.85L1364.06 317.85"/>
<path class="l15" d="M1364.06 315.05L1364.06 317.85"/>
<path class="l15" d="M1364.06 315.05L1366.16 315.05"/>
<path class="l1" d="M785.288 541.891L785.288 556.827"/>
<path class="l1" d="M785.288 482.147L785.288 497.083"/>
<path class="l1" d="M785.288 482.147L859.968 482.147"/>
<path class="l1" d="M673.267 526.955L673.267 541.891"/>
<path class="l1" d="M673.267 198.361L673.267 482.147"/>
<path class="l1" d="M859.968 310.382L859.968 377.594"/>
<path class="l1" d="M859.968 310.382L1098.95 310.382"/>
<path class="l1" d="M859.968 422.403L859.968 482.147"/>
<path class="l1" d="M1061.61 198.361L1061.61 213.298"/>
<path class="l1" d="M1061.61 258.106L1061.61 332.786"/>
<path class="l1" d="M1061.61 332.786L1098.95 332.786"/>
<path class="l1" d="M673.267 198.361L1061.61 198.361"/>
<path class="l1" d="M1435.01 407.467L1435.01 482.147"/>
<path class="l1" d="M1375.26 332.786L1435.01 332.786"/>
<path class="l1" d="M1435.01 332.786L1435.01 362.658"/>
<path class="l1" d="M1375.26 332.786L1375.26 414.935"/>
<path class="l1" d="M1039.2 355.19L1098.95 355.19"/>
<path class="l1" d="M1039.2 355.19L1039.2 414.935"/>
<path class="l1" d="M1039.2 414.935L1375.26 414.935"/>
<path class="l1" d="M1166.16 198.361L1166.16 295.446"/>
<path class="l1" d="M1166.16 370.126L1166.16 482.147"/>
<path class="l1" d="M1166.16 482.147L1435.01 482.147"/>
<path class="l1" d="M1061.61 198.361L1166.16 198.361"/>
<path class="l1" d="M859.968 482.147L1166.16 482.147"/>
<path class="l1" d="M1173.63 295.446L1173.63 302.914"/>
<path class="l1" d="M1166.16 295.446L1173.63 295.446"/>
<path class="l1" d="M1173.63 362.658L1173.63 370.126"/>
<path class="l1" d="M1166.16 370.126L1173.63 370.126"/>
<path class="l1" d="M1225.9 332.786L1375.26 332.786"/>
<circle class="l1" cx="1061.61" cy="198.361" r="2.76318"/>
<circle class="l1" cx="859.968" cy="482.147" r="2.76318"/>
<circle class="l1" cx="1166.16" cy="482.147" r="2.76318"/>
<circle class="l1" cx="859.968" cy="482.147" r="2.76318"/>
<circle class="l1" cx="859.968" cy="482.147" r="2.76318"/>
<circle class="l1" cx="1061.61" cy="198.361" r="2.76318"/>
<circle class="l1" cx="1061.61" cy="198.361" r="2.76318"/>
<circle class="l1" cx="1375.26" cy="332.786" r="2.76318"/>
<circle class="l1" cx="1166.16" cy="482.147" r="2.76318"/>
<circle class="l1" cx="1166.16" cy="482.147" r="2.76318"/>
<circle class="l1" cx="1375.26" cy="332.786" r="2.76318"/>
<circle class="l1" cx="1375.26" cy="332.786" r="2.76318"/>
</svg>
